<svg xmlns="http://www.w3.org/2000/svg" xmlns:xlink="http://www.w3.org/1999/xlink" width="1080" zoomAndPan="magnify" viewBox="0 0 810 809.999993" height="1080" preserveAspectRatio="xMidYMid meet" version="1.0"><rect x="-81" width="972" fill="#ffffff" y="-80.999999" height="971.999992" fill-opacity="1"/><rect x="-81" width="972" fill="#000000" y="-80.999999" height="971.999992" fill-opacity="1"/><path fill="#d9d9d9" d="M 518.398438 266.707031 L 291.601562 266.707031 C 277.769531 266.707031 266.3125 278.164062 266.3125 291.996094 L 266.3125 518.796875 C 266.3125 532.625 277.769531 544.082031 291.601562 544.082031 L 518.398438 544.082031 C 532.230469 544.082031 543.6875 532.625 543.6875 518.796875 L 543.6875 291.601562 C 543.292969 277.769531 532.230469 266.707031 518.398438 266.707031 Z M 399.46875 495.085938 C 364.699219 495.085938 336.644531 467.035156 336.644531 432.261719 C 336.644531 406.183594 352.449219 383.664062 375.367188 374.179688 L 378.132812 389.589844 C 362.328125 397.492188 351.660156 413.691406 351.660156 432.261719 C 351.660156 458.738281 372.996094 480.074219 399.46875 480.074219 C 419.621094 480.074219 437.003906 467.429688 443.722656 449.648438 L 448.464844 469.40625 C 448.464844 469.800781 448.859375 470.195312 448.859375 470.589844 C 437.398438 485.605469 419.621094 495.085938 399.46875 495.085938 Z M 488.371094 469.800781 L 468.21875 474.542969 C 467.429688 474.542969 466.640625 474.9375 465.847656 474.9375 C 461.503906 474.9375 457.15625 471.777344 455.972656 467.429688 L 444.117188 419.222656 L 399.46875 419.222656 C 394.726562 419.222656 390.378906 415.667969 389.589844 410.925781 L 376.15625 340.988281 C 373.390625 337.828125 371.414062 333.878906 371.414062 329.136719 C 371.414062 318.863281 379.710938 310.566406 389.984375 310.566406 C 400.257812 310.566406 408.554688 318.863281 408.554688 329.136719 C 408.554688 336.644531 404.210938 342.964844 397.492188 346.125 L 401.839844 367.859375 L 434.632812 367.859375 C 440.164062 367.859375 444.511719 372.203125 444.511719 377.738281 C 444.511719 383.269531 440.164062 387.613281 434.632812 387.613281 L 405.789062 387.613281 L 407.765625 399.074219 L 451.625 399.074219 C 456.367188 399.074219 460.316406 402.234375 461.503906 406.582031 L 472.960938 452.414062 L 483.234375 450.042969 C 488.765625 448.859375 493.902344 452.019531 495.484375 457.550781 C 497.0625 463.082031 493.507812 468.613281 488.371094 469.800781 Z M 488.371094 469.800781 " fill-opacity="1" fill-rule="nonzero"/><path fill="#d9d9d9" d="M 518.398438 243 L 291.601562 243 C 264.730469 243 243 264.730469 243 291.601562 L 243 518.398438 C 243 545.269531 264.730469 567 291.601562 567 L 518.398438 567 C 545.269531 567 567 545.269531 567 518.398438 L 567 291.601562 C 567 264.730469 545.269531 243 518.398438 243 Z M 551.195312 518.398438 C 551.195312 536.574219 536.574219 551.589844 518.003906 551.589844 L 291.601562 551.589844 C 273.425781 551.589844 258.410156 536.972656 258.410156 518.398438 L 258.410156 291.601562 C 258.410156 273.425781 273.027344 258.410156 291.601562 258.410156 L 518.398438 258.410156 C 536.574219 258.410156 551.589844 273.027344 551.589844 291.601562 L 551.589844 518.398438 Z M 551.195312 518.398438 " fill-opacity="1" fill-rule="nonzero"/></svg>