<svg xmlns="http://www.w3.org/2000/svg" xmlns:xlink="http://www.w3.org/1999/xlink" width="1080" zoomAndPan="magnify" viewBox="0 0 810 809.999993" height="1080" preserveAspectRatio="xMidYMid meet" version="1.0"><defs><clipPath id="3480d03750"><path d="M 208 447 L 602 447 L 602 591.296875 L 208 591.296875 Z M 208 447 " clip-rule="nonzero"/></clipPath><clipPath id="2f919fd9d6"><path d="M 359 218.546875 L 421 218.546875 L 421 280 L 359 280 Z M 359 218.546875 " clip-rule="nonzero"/></clipPath></defs><rect x="-81" width="972" fill="#ffffff" y="-80.999999" height="971.999992" fill-opacity="1"/><rect x="-81" width="972" fill="#000000" y="-80.999999" height="971.999992" fill-opacity="1"/><path fill="#231f20" d="M 599.46875 542.71875 L 599.902344 555.816406 C 599.902344 555.816406 600.132812 559.125 599.316406 560.195312 C 597.960938 561.980469 595.777344 561.832031 595.777344 561.832031 L 412.078125 589.320312 C 412.078125 589.320312 406.316406 590.085938 401.925781 589.140625 C 396.265625 587.917969 392.792969 585.15625 392.792969 585.15625 L 212.691406 467.054688 C 212.691406 467.054688 211.230469 466.363281 210.6875 465.328125 C 209.992188 464.003906 209.933594 449.148438 209.933594 449.148438 L 599.46875 542.71875 " fill-opacity="1" fill-rule="nonzero"/><g clip-path="url(#3480d03750)"><path fill="#231f20" d="M 599.46875 542.71875 L 597.769531 542.773438 L 598.203125 555.871094 L 598.207031 555.933594 L 598.207031 555.988281 C 598.21875 556.117188 598.230469 556.441406 598.230469 556.855469 C 598.234375 557.332031 598.207031 557.933594 598.136719 558.421875 C 598.101562 558.671875 598.054688 558.886719 598.007812 559.027344 L 597.957031 559.175781 L 597.949219 559.191406 L 598.175781 559.328125 L 597.964844 559.167969 L 597.949219 559.191406 L 598.175781 559.328125 L 597.964844 559.167969 C 597.625 559.613281 597.222656 559.835938 596.8125 559.980469 C 596.410156 560.121094 596.015625 560.136719 595.902344 560.136719 L 595.851562 560.136719 L 595.847656 560.132812 L 595.808594 561.179688 L 595.859375 560.136719 L 595.847656 560.132812 L 595.808594 561.179688 L 595.859375 560.136719 L 595.523438 560.15625 L 411.824219 587.640625 L 412.078125 589.320312 L 411.851562 587.636719 L 411.773438 587.644531 C 411.355469 587.699219 409.429688 587.914062 407.15625 587.914062 C 405.550781 587.914062 403.773438 587.804688 402.28125 587.480469 C 399.640625 586.910156 397.503906 585.980469 396.039062 585.191406 C 395.304688 584.804688 394.742188 584.449219 394.367188 584.199219 C 394.183594 584.074219 394.042969 583.972656 393.957031 583.910156 L 393.847656 583.828125 L 393.695312 584.015625 L 393.851562 583.828125 L 393.847656 583.828125 L 393.695312 584.015625 L 393.851562 583.828125 L 393.722656 583.734375 L 213.625 465.636719 L 213.417969 465.519531 L 213.261719 465.847656 L 213.421875 465.523438 L 213.417969 465.519531 L 213.261719 465.847656 L 213.421875 465.523438 C 213.402344 465.511719 213.101562 465.363281 212.804688 465.144531 C 212.503906 464.9375 212.230469 464.640625 212.1875 464.539062 L 211.523438 464.890625 L 212.246094 464.667969 L 212.1875 464.539062 L 211.523438 464.890625 L 212.246094 464.667969 C 212.242188 464.664062 212.210938 464.542969 212.183594 464.371094 C 212.074219 463.707031 211.96875 462.34375 211.894531 460.773438 C 211.777344 458.398438 211.710938 455.480469 211.675781 453.171875 C 211.660156 452.011719 211.644531 451.003906 211.640625 450.285156 C 211.636719 449.566406 211.632812 449.140625 211.632812 449.140625 L 209.933594 449.148438 L 209.539062 450.796875 L 599.070312 544.371094 L 599.46875 542.71875 L 597.769531 542.773438 L 599.46875 542.71875 L 599.867188 541.070312 L 210.332031 447.496094 C 209.824219 447.375 209.289062 447.492188 208.882812 447.816406 C 208.472656 448.140625 208.238281 448.628906 208.238281 449.152344 C 208.238281 449.160156 208.25 452.882812 208.351562 456.785156 C 208.40625 458.738281 208.476562 460.734375 208.582031 462.351562 C 208.632812 463.160156 208.691406 463.875 208.765625 464.46875 C 208.808594 464.765625 208.847656 465.03125 208.898438 465.28125 C 208.960938 465.539062 209 465.753906 209.183594 466.117188 C 209.683594 467.046875 210.375 467.582031 210.921875 467.972656 C 211.472656 468.355469 211.910156 468.5625 211.96875 468.589844 L 212.691406 467.054688 L 211.761719 468.472656 L 391.859375 586.574219 L 392.792969 585.15625 L 391.734375 586.484375 C 391.859375 586.582031 395.527344 589.492188 401.570312 590.800781 C 403.425781 591.195312 405.398438 591.308594 407.15625 591.308594 C 409.996094 591.308594 412.253906 591.007812 412.300781 591.003906 L 412.324219 591 L 596.027344 563.511719 L 595.777344 561.832031 L 595.6875 563.527344 C 595.714844 563.527344 595.789062 563.53125 595.902344 563.53125 C 596.273438 563.527344 597.007812 563.496094 597.898438 563.195312 C 598.785156 562.902344 599.84375 562.308594 600.671875 561.222656 C 600.972656 560.8125 601.128906 560.421875 601.25 560.035156 C 601.425781 559.464844 601.511719 558.898438 601.5625 558.355469 C 601.613281 557.808594 601.625 557.292969 601.625 556.855469 C 601.625 556.195312 601.59375 555.726562 601.59375 555.699219 L 599.902344 555.816406 L 601.597656 555.757812 L 601.167969 542.660156 C 601.140625 541.898438 600.609375 541.246094 599.867188 541.070312 L 599.46875 542.71875 " fill-opacity="1" fill-rule="nonzero"/></g><path fill="#ffffff" d="M 396.683594 569.824219 C 398.820312 571.203125 403.632812 571.878906 407.441406 571.339844 L 595.738281 544.640625 C 599.542969 544.101562 600.617188 542.574219 598.148438 541.242188 L 383.082031 425.058594 C 380.605469 423.722656 375.980469 423.019531 372.753906 423.492188 L 212.992188 446.921875 C 209.765625 447.394531 208.878906 448.890625 211.015625 450.265625 L 396.683594 569.824219 " fill-opacity="1" fill-rule="nonzero"/><path fill="#231f20" d="M 396.683594 569.824219 L 395.765625 571.25 C 396.875 571.957031 398.234375 572.40625 399.765625 572.730469 C 401.289062 573.050781 402.980469 573.222656 404.65625 573.222656 C 405.679688 573.222656 406.699219 573.15625 407.679688 573.019531 L 595.976562 546.320312 C 597.316406 546.125 598.402344 545.832031 599.304688 545.363281 C 599.757812 545.121094 600.171875 544.835938 600.535156 544.410156 C 600.886719 543.996094 601.175781 543.378906 601.171875 542.71875 C 601.171875 541.949219 600.820312 541.304688 600.417969 540.855469 C 600.007812 540.398438 599.523438 540.054688 598.953125 539.746094 L 383.886719 423.5625 C 382.691406 422.921875 381.257812 422.46875 379.714844 422.144531 C 378.171875 421.824219 376.527344 421.648438 374.960938 421.648438 C 374.113281 421.648438 373.289062 421.699219 372.507812 421.816406 L 372.511719 421.816406 L 212.746094 445.242188 C 211.578125 445.417969 210.609375 445.695312 209.785156 446.183594 C 209.378906 446.429688 208.992188 446.734375 208.679688 447.164062 C 208.371094 447.585938 208.148438 448.164062 208.152344 448.753906 C 208.152344 449.445312 208.425781 450.0625 208.785156 450.523438 C 209.144531 450.996094 209.585938 451.363281 210.097656 451.695312 L 395.765625 571.25 L 396.683594 569.824219 L 397.605469 568.398438 L 211.9375 448.839844 C 211.660156 448.667969 211.515625 448.515625 211.492188 448.476562 L 211.484375 448.46875 L 211.242188 448.625 L 211.515625 448.539062 L 211.484375 448.46875 L 211.242188 448.625 L 211.515625 448.539062 L 210.867188 448.75 L 211.546875 448.753906 L 211.515625 448.539062 L 210.867188 448.75 L 211.546875 448.753906 L 210.875 448.753906 L 211.429688 449.152344 C 211.46875 449.109375 211.550781 448.929688 211.546875 448.753906 L 210.875 448.753906 L 211.429688 449.152344 L 211.292969 449.054688 L 211.410156 449.179688 L 211.429688 449.152344 L 211.292969 449.054688 L 211.410156 449.179688 C 211.417969 449.164062 211.582031 449.042969 211.898438 448.921875 C 212.210938 448.804688 212.667969 448.683594 213.238281 448.601562 L 373 425.171875 L 373.003906 425.171875 C 373.585938 425.089844 374.253906 425.042969 374.960938 425.042969 C 376.273438 425.042969 377.714844 425.195312 379.023438 425.46875 C 380.332031 425.738281 381.515625 426.140625 382.273438 426.550781 L 597.335938 542.734375 C 597.667969 542.910156 597.847656 543.066406 597.878906 543.105469 L 597.886719 543.097656 L 597.878906 543.105469 L 597.886719 543.097656 L 597.878906 543.105469 L 598.460938 542.71875 L 597.773438 542.71875 C 597.773438 542.925781 597.855469 543.078125 597.878906 543.105469 L 598.460938 542.71875 L 597.773438 542.71875 L 598.503906 542.71875 L 597.929688 542.230469 C 597.894531 542.261719 597.769531 542.46875 597.773438 542.71875 L 598.503906 542.71875 L 597.929688 542.230469 L 597.925781 542.230469 C 597.878906 542.28125 597.625 542.4375 597.203125 542.574219 C 596.789062 542.722656 596.210938 542.859375 595.5 542.960938 L 407.203125 569.660156 C 406.40625 569.769531 405.535156 569.828125 404.65625 569.828125 C 403.214844 569.828125 401.726562 569.675781 400.460938 569.40625 C 399.195312 569.152344 398.128906 568.75 397.605469 568.394531 L 396.683594 569.824219 " fill-opacity="1" fill-rule="nonzero"/><path fill="#ffffff" d="M 380.160156 556.429688 C 381.917969 557.5625 386.277344 558.058594 389.882812 557.546875 L 568.578125 532.125 C 572.191406 531.613281 573.46875 530.304688 571.441406 529.203125 L 394.8125 433.511719 C 392.785156 432.410156 388.582031 431.890625 385.429688 432.355469 L 229.394531 455.167969 C 226.246094 455.632812 225.121094 456.921875 226.882812 458.054688 L 380.160156 556.429688 " fill-opacity="1" fill-rule="nonzero"/><path fill="#231f20" d="M 380.160156 556.429688 L 379.238281 557.855469 C 380.207031 558.460938 381.347656 558.808594 382.660156 559.0625 C 383.964844 559.316406 385.417969 559.445312 386.90625 559.445312 C 387.984375 559.445312 389.070312 559.378906 390.125 559.226562 L 568.816406 533.804688 C 570.160156 533.613281 571.253906 533.328125 572.15625 532.894531 C 572.605469 532.671875 573.019531 532.410156 573.394531 532.011719 C 573.578125 531.8125 573.75 531.574219 573.882812 531.28125 C 574.015625 530.996094 574.101562 530.648438 574.101562 530.296875 C 574.101562 529.621094 573.796875 529.027344 573.445312 528.632812 C 573.09375 528.238281 572.695312 527.957031 572.246094 527.710938 L 395.625 432.019531 C 394.613281 431.476562 393.417969 431.121094 392.089844 430.871094 C 390.769531 430.617188 389.335938 430.484375 387.921875 430.484375 C 386.988281 430.484375 386.058594 430.542969 385.175781 430.675781 L 385.179688 430.675781 L 229.152344 453.488281 C 227.945312 453.671875 226.949219 453.945312 226.109375 454.398438 C 225.691406 454.625 225.296875 454.902344 224.960938 455.3125 C 224.625 455.710938 224.347656 456.300781 224.351562 456.949219 C 224.347656 457.554688 224.589844 458.113281 224.890625 458.511719 C 225.195312 458.921875 225.5625 459.222656 225.964844 459.484375 L 379.238281 557.855469 L 380.160156 556.429688 L 381.074219 554.996094 L 227.800781 456.628906 L 227.636719 456.503906 L 227.613281 456.484375 L 227.609375 456.480469 L 227.253906 456.78125 L 227.679688 456.601562 L 227.609375 456.480469 L 227.253906 456.78125 L 227.679688 456.601562 L 226.863281 456.949219 L 227.746094 456.949219 C 227.746094 456.8125 227.714844 456.683594 227.679688 456.601562 L 226.863281 456.949219 L 227.746094 456.949219 L 226.949219 456.949219 L 227.582031 457.46875 C 227.628906 457.425781 227.75 457.210938 227.746094 456.949219 L 226.949219 456.949219 L 227.582031 457.46875 L 227.386719 457.304688 L 227.570312 457.484375 L 227.582031 457.46875 L 227.386719 457.304688 L 227.570312 457.484375 C 227.597656 457.453125 227.804688 457.316406 228.160156 457.191406 C 228.519531 457.066406 229.023438 456.9375 229.644531 456.847656 L 385.675781 434.035156 L 385.679688 434.035156 C 386.355469 433.933594 387.125 433.878906 387.921875 433.878906 C 389.121094 433.878906 390.367188 434 391.457031 434.203125 C 392.546875 434.40625 393.488281 434.714844 394.003906 435.003906 L 570.628906 530.699219 C 570.730469 530.75 570.804688 530.800781 570.847656 530.832031 L 570.886719 530.867188 L 571.261719 530.5 L 570.796875 530.726562 L 570.886719 530.867188 L 571.261719 530.5 L 570.796875 530.726562 L 571.683594 530.296875 L 570.707031 530.296875 C 570.703125 530.46875 570.75 530.628906 570.796875 530.726562 L 571.683594 530.296875 L 570.707031 530.296875 L 571.710938 530.296875 L 570.789062 529.886719 C 570.742188 529.988281 570.703125 530.140625 570.707031 530.296875 L 571.710938 530.296875 L 570.789062 529.886719 L 571.421875 530.167969 L 570.894531 529.710938 L 570.789062 529.886719 L 571.421875 530.167969 L 570.894531 529.710938 L 571.082031 529.871094 L 570.914062 529.695312 L 570.894531 529.710938 L 571.082031 529.871094 L 570.914062 529.695312 L 570.875 529.722656 C 570.777344 529.796875 570.484375 529.945312 570.050781 530.078125 C 569.613281 530.214844 569.035156 530.347656 568.339844 530.445312 L 389.644531 555.867188 L 389.648438 555.867188 C 388.773438 555.988281 387.835938 556.050781 386.90625 556.050781 C 385.621094 556.054688 384.355469 555.933594 383.296875 555.730469 C 382.25 555.535156 381.402344 555.222656 381.074219 554.996094 L 380.160156 556.429688 " fill-opacity="1" fill-rule="nonzero"/><path fill="#ffffff" d="M 457.859375 556.394531 C 459.65625 557.480469 463.585938 558.011719 466.636719 557.582031 L 521.832031 549.746094 C 524.882812 549.3125 525.824219 548.089844 523.9375 547.007812 C 522.054688 545.929688 518.066406 545.410156 515.03125 545.839844 L 460.101562 553.644531 C 457.070312 554.074219 456.066406 555.304688 457.859375 556.394531 " fill-opacity="1" fill-rule="nonzero"/><path fill="#231f20" d="M 457.859375 556.394531 L 456.980469 557.84375 C 457.941406 558.417969 459.082031 558.777344 460.347656 559.039062 C 461.609375 559.292969 462.992188 559.425781 464.367188 559.425781 C 465.21875 559.425781 466.058594 559.375 466.871094 559.261719 L 466.875 559.261719 L 522.070312 551.425781 C 523.195312 551.261719 524.117188 551.015625 524.910156 550.601562 C 525.308594 550.386719 525.683594 550.128906 526.011719 549.738281 C 526.335938 549.355469 526.613281 548.78125 526.605469 548.148438 C 526.605469 547.46875 526.3125 546.886719 525.96875 546.492188 C 525.625 546.082031 525.226562 545.792969 524.777344 545.53125 L 524.78125 545.539062 C 523.800781 544.984375 522.640625 544.632812 521.359375 544.375 C 520.082031 544.125 518.6875 543.992188 517.3125 543.992188 C 516.457031 543.992188 515.609375 544.039062 514.789062 544.160156 L 514.792969 544.160156 L 459.863281 551.964844 C 458.722656 552.128906 457.78125 552.378906 456.976562 552.804688 C 456.578125 553.027344 456.199219 553.285156 455.867188 553.679688 C 455.539062 554.070312 455.265625 554.648438 455.269531 555.28125 C 455.269531 555.921875 455.535156 556.492188 455.855469 556.882812 C 456.179688 557.292969 456.558594 557.582031 456.980469 557.84375 L 458.742188 554.945312 L 458.550781 554.8125 L 458.515625 554.777344 L 458.152344 555.09375 L 458.589844 554.902344 L 458.515625 554.777344 L 458.152344 555.09375 L 458.589844 554.902344 L 457.738281 555.28125 L 458.664062 555.28125 C 458.664062 555.128906 458.628906 554.988281 458.589844 554.902344 L 457.738281 555.28125 L 458.664062 555.28125 L 457.800781 555.28125 L 458.484375 555.847656 C 458.539062 555.789062 458.671875 555.558594 458.664062 555.28125 L 457.800781 555.28125 L 458.484375 555.847656 L 458.300781 555.695312 L 458.453125 555.875 L 458.484375 555.847656 L 458.300781 555.695312 L 458.453125 555.875 C 458.460938 555.867188 458.648438 555.742188 458.976562 555.632812 C 459.300781 555.519531 459.765625 555.402344 460.339844 555.324219 L 515.273438 547.519531 L 515.277344 547.519531 C 515.894531 547.429688 516.59375 547.386719 517.3125 547.386719 C 518.464844 547.386719 519.667969 547.5 520.703125 547.707031 C 521.742188 547.90625 522.636719 548.214844 523.097656 548.480469 L 523.097656 548.484375 C 523.199219 548.542969 523.273438 548.59375 523.316406 548.628906 L 523.371094 548.671875 L 523.699219 548.363281 L 523.296875 548.550781 L 523.371094 548.671875 L 523.699219 548.363281 L 523.296875 548.550781 L 524.152344 548.148438 L 523.210938 548.148438 C 523.210938 548.3125 523.253906 548.464844 523.296875 548.550781 L 524.152344 548.148438 L 523.210938 548.148438 L 524.105469 548.148438 L 523.402344 547.566406 C 523.34375 547.628906 523.207031 547.867188 523.210938 548.148438 L 524.105469 548.148438 L 523.402344 547.566406 L 523.617188 547.746094 L 523.4375 547.53125 L 523.402344 547.566406 L 523.617188 547.746094 L 523.4375 547.53125 C 523.4375 547.535156 523.253906 547.65625 522.9375 547.761719 C 522.613281 547.871094 522.160156 547.980469 521.59375 548.0625 L 466.398438 555.898438 C 465.765625 555.988281 465.074219 556.03125 464.367188 556.03125 C 463.21875 556.03125 462.035156 555.917969 461.023438 555.707031 C 460.003906 555.511719 459.152344 555.195312 458.742188 554.941406 L 457.859375 556.394531 " fill-opacity="1" fill-rule="nonzero"/><path fill="#ffffff" d="M 235.300781 450.558594 C 236.378906 451.238281 238.574219 451.59375 240.203125 451.359375 L 254.628906 449.246094 C 256.261719 449.007812 256.695312 448.265625 255.59375 447.585938 C 254.496094 446.910156 252.292969 446.554688 250.667969 446.792969 L 236.289062 448.894531 C 234.664062 449.132812 234.222656 449.878906 235.300781 450.558594 " fill-opacity="1" fill-rule="nonzero"/><path fill="#231f20" d="M 235.300781 450.558594 L 234.394531 451.996094 C 235.078125 452.417969 235.824219 452.667969 236.628906 452.851562 C 237.429688 453.027344 238.277344 453.125 239.117188 453.125 C 239.5625 453.125 240.011719 453.101562 240.441406 453.039062 L 240.449219 453.039062 L 254.878906 450.925781 C 255.53125 450.824219 256.101562 450.671875 256.660156 450.355469 C 256.9375 450.1875 257.222656 449.96875 257.46875 449.640625 C 257.714844 449.3125 257.90625 448.835938 257.898438 448.34375 C 257.902344 447.75 257.648438 447.25 257.382812 446.914062 C 257.109375 446.574219 256.804688 446.339844 256.484375 446.136719 L 256.488281 446.148438 C 255.800781 445.726562 255.054688 445.480469 254.25 445.296875 C 253.449219 445.117188 252.597656 445.019531 251.757812 445.019531 C 251.304688 445.019531 250.859375 445.046875 250.414062 445.117188 L 250.421875 445.113281 L 236.042969 447.214844 C 235.390625 447.316406 234.816406 447.46875 234.253906 447.789062 C 233.976562 447.957031 233.691406 448.175781 233.445312 448.507812 C 233.199219 448.835938 233.011719 449.316406 233.015625 449.808594 C 233.015625 450.386719 233.25 450.875 233.511719 451.210938 C 233.78125 451.550781 234.078125 451.785156 234.394531 451.996094 L 236.207031 449.121094 L 236.152344 449.082031 L 235.773438 449.515625 L 236.265625 449.230469 C 236.195312 449.117188 236.144531 449.082031 236.152344 449.082031 L 235.773438 449.515625 L 236.265625 449.230469 L 235.269531 449.808594 L 236.410156 449.808594 C 236.410156 449.554688 236.332031 449.34375 236.265625 449.230469 L 235.269531 449.808594 L 236.410156 449.808594 L 235.21875 449.808594 L 236.1875 450.515625 C 236.296875 450.371094 236.414062 450.089844 236.410156 449.808594 L 235.21875 449.808594 L 236.1875 450.515625 L 235.53125 450.035156 L 236 450.699219 C 236.03125 450.675781 236.101562 450.625 236.1875 450.515625 L 235.53125 450.035156 L 236 450.699219 L 235.832031 450.460938 L 235.976562 450.71875 L 236 450.699219 L 235.832031 450.460938 L 235.976562 450.71875 L 235.984375 450.710938 C 236.011719 450.695312 236.21875 450.621094 236.535156 450.574219 L 250.914062 448.472656 L 250.921875 448.472656 C 251.160156 448.4375 251.445312 448.414062 251.757812 448.414062 C 252.332031 448.414062 252.964844 448.484375 253.511719 448.609375 C 254.054688 448.726562 254.519531 448.914062 254.699219 449.03125 L 254.710938 449.039062 L 254.773438 449.082031 L 255.132812 448.648438 L 254.65625 448.929688 C 254.726562 449.046875 254.773438 449.082031 254.773438 449.082031 L 255.132812 448.648438 L 254.65625 448.929688 L 255.648438 448.34375 L 254.507812 448.34375 C 254.5 448.605469 254.589844 448.816406 254.65625 448.929688 L 255.648438 448.34375 L 254.507812 448.34375 L 255.703125 448.34375 L 254.730469 447.632812 C 254.621094 447.773438 254.496094 448.054688 254.507812 448.34375 L 255.703125 448.34375 L 254.730469 447.632812 L 255.386719 448.109375 L 254.914062 447.441406 C 254.882812 447.46875 254.816406 447.515625 254.730469 447.632812 L 255.386719 448.109375 L 254.914062 447.441406 L 255.085938 447.683594 L 254.941406 447.429688 L 254.914062 447.441406 L 255.085938 447.683594 L 254.941406 447.429688 L 254.933594 447.429688 C 254.898438 447.445312 254.699219 447.519531 254.386719 447.566406 L 239.957031 449.679688 L 239.964844 449.675781 C 239.714844 449.714844 239.421875 449.730469 239.117188 449.730469 C 238.542969 449.730469 237.910156 449.660156 237.371094 449.542969 C 236.832031 449.421875 236.375 449.238281 236.207031 449.121094 L 235.300781 450.558594 " fill-opacity="1" fill-rule="nonzero"/><path fill="#ffffff" d="M 359.054688 431.765625 C 360.78125 432.730469 364.09375 433.230469 366.449219 432.886719 C 368.804688 432.539062 369.300781 431.484375 367.558594 430.519531 C 365.8125 429.5625 362.5 429.0625 360.15625 429.402344 C 357.816406 429.75 357.324219 430.808594 359.054688 431.765625 " fill-opacity="1" fill-rule="nonzero"/><path fill="#231f20" d="M 359.054688 431.765625 L 358.226562 433.25 C 359.132812 433.753906 360.183594 434.082031 361.320312 434.328125 C 362.453125 434.5625 363.660156 434.6875 364.828125 434.6875 C 365.464844 434.6875 366.089844 434.648438 366.691406 434.566406 L 366.695312 434.566406 C 367.535156 434.4375 368.242188 434.246094 368.898438 433.875 C 369.226562 433.691406 369.542969 433.445312 369.816406 433.085938 C 370.09375 432.726562 370.300781 432.203125 370.296875 431.679688 C 370.296875 431.320312 370.210938 430.984375 370.082031 430.703125 C 369.890625 430.277344 369.617188 429.964844 369.332031 429.703125 C 369.042969 429.4375 368.726562 429.230469 368.371094 429.035156 C 367.464844 428.535156 366.40625 428.203125 365.269531 427.964844 C 364.132812 427.726562 362.929688 427.597656 361.761719 427.597656 C 361.128906 427.597656 360.507812 427.632812 359.910156 427.722656 C 359.074219 427.851562 358.363281 428.039062 357.714844 428.414062 C 357.390625 428.601562 357.066406 428.84375 356.792969 429.207031 C 356.519531 429.566406 356.316406 430.082031 356.320312 430.613281 C 356.320312 430.960938 356.40625 431.304688 356.53125 431.582031 C 356.722656 432.007812 356.992188 432.320312 357.277344 432.582031 C 357.5625 432.839844 357.878906 433.054688 358.226562 433.25 L 359.054688 431.765625 L 359.875 430.28125 C 359.761719 430.214844 359.671875 430.164062 359.617188 430.117188 L 359.546875 430.0625 L 359.121094 430.433594 L 359.636719 430.207031 L 359.546875 430.0625 L 359.121094 430.433594 L 359.636719 430.207031 L 358.707031 430.613281 L 359.714844 430.613281 C 359.714844 430.445312 359.675781 430.296875 359.636719 430.207031 L 358.707031 430.613281 L 359.714844 430.613281 L 358.675781 430.613281 L 359.515625 431.238281 C 359.609375 431.125 359.71875 430.871094 359.714844 430.613281 L 358.675781 430.613281 L 359.515625 431.238281 L 359.109375 430.933594 L 359.402344 431.355469 L 359.515625 431.238281 L 359.109375 430.933594 L 359.402344 431.355469 C 359.402344 431.355469 359.496094 431.304688 359.667969 431.246094 C 359.839844 431.1875 360.09375 431.128906 360.40625 431.082031 C 360.804688 431.023438 361.269531 430.992188 361.761719 430.992188 C 362.671875 430.992188 363.675781 431.101562 364.574219 431.285156 C 365.476562 431.472656 366.277344 431.75 366.738281 432.011719 C 366.855469 432.074219 366.941406 432.128906 366.996094 432.167969 L 367.066406 432.230469 L 367.492188 431.859375 L 366.984375 432.085938 L 367.066406 432.230469 L 367.492188 431.859375 L 366.984375 432.085938 L 367.90625 431.679688 L 366.898438 431.679688 C 366.898438 431.847656 366.941406 431.992188 366.984375 432.085938 L 367.90625 431.679688 L 366.898438 431.679688 L 367.9375 431.679688 L 367.097656 431.050781 C 367.011719 431.160156 366.894531 431.417969 366.898438 431.679688 L 367.9375 431.679688 L 367.097656 431.050781 L 367.503906 431.355469 L 367.214844 430.933594 L 367.097656 431.050781 L 367.503906 431.355469 L 367.214844 430.933594 C 367.214844 430.933594 367.125 430.984375 366.949219 431.042969 C 366.777344 431.101562 366.523438 431.15625 366.207031 431.207031 C 365.792969 431.261719 365.320312 431.292969 364.828125 431.292969 C 363.910156 431.292969 362.90625 431.1875 362.015625 431.003906 C 361.121094 430.816406 360.328125 430.539062 359.878906 430.28125 L 359.875 430.28125 L 359.054688 431.765625 " fill-opacity="1" fill-rule="nonzero"/><path fill="#ffffff" d="M 292.433594 487.714844 L 475.523438 487.714844 L 475.523438 296.617188 L 292.433594 296.617188 L 292.433594 487.714844 " fill-opacity="1" fill-rule="nonzero"/><path fill="#231f20" d="M 292.433594 487.714844 L 292.433594 489.414062 L 475.523438 489.414062 C 475.976562 489.414062 476.402344 489.234375 476.726562 488.917969 C 477.042969 488.59375 477.21875 488.171875 477.21875 487.714844 L 477.21875 296.617188 C 477.21875 296.160156 477.042969 295.734375 476.726562 295.414062 C 476.402344 295.09375 475.976562 294.917969 475.523438 294.917969 L 292.433594 294.917969 C 291.988281 294.917969 291.550781 295.101562 291.234375 295.414062 C 290.917969 295.730469 290.734375 296.167969 290.734375 296.617188 L 290.734375 487.714844 C 290.734375 488.171875 290.914062 488.59375 291.234375 488.917969 C 291.554688 489.234375 291.984375 489.414062 292.433594 489.414062 L 292.433594 487.714844 L 294.132812 487.714844 L 294.132812 298.308594 L 473.824219 298.308594 L 473.824219 486.019531 L 292.433594 486.019531 L 292.433594 487.714844 L 294.132812 487.714844 L 292.433594 487.714844 " fill-opacity="1" fill-rule="nonzero"/><path fill="#ffffff" d="M 292.433594 312.089844 L 475.523438 312.089844 L 475.523438 296.617188 L 292.433594 296.617188 L 292.433594 312.089844 " fill-opacity="1" fill-rule="nonzero"/><path fill="#231f20" d="M 292.433594 312.089844 L 292.433594 313.789062 L 475.523438 313.789062 C 475.976562 313.789062 476.402344 313.613281 476.726562 313.292969 C 477.042969 312.972656 477.21875 312.546875 477.21875 312.089844 L 477.21875 296.617188 C 477.21875 296.160156 477.042969 295.734375 476.726562 295.414062 C 476.402344 295.09375 475.976562 294.917969 475.523438 294.917969 L 292.433594 294.917969 C 291.988281 294.917969 291.550781 295.101562 291.234375 295.414062 C 290.917969 295.730469 290.734375 296.167969 290.734375 296.617188 L 290.734375 312.089844 C 290.734375 312.546875 290.914062 312.972656 291.234375 313.292969 C 291.554688 313.613281 291.984375 313.789062 292.433594 313.789062 L 292.433594 312.089844 L 294.132812 312.089844 L 294.132812 298.308594 L 473.824219 298.308594 L 473.824219 310.394531 L 292.433594 310.394531 L 292.433594 312.089844 L 294.132812 312.089844 L 292.433594 312.089844 " fill-opacity="1" fill-rule="nonzero"/><path fill="#ffffff" d="M 463.617188 304.054688 C 463.617188 306.191406 465.351562 307.921875 467.484375 307.921875 C 469.625 307.921875 471.359375 306.191406 471.359375 304.054688 C 471.359375 301.921875 469.625 300.1875 467.484375 300.1875 C 465.351562 300.1875 463.617188 301.921875 463.617188 304.054688 " fill-opacity="1" fill-rule="nonzero"/><path fill="#231f20" d="M 463.617188 304.054688 L 461.917969 304.054688 C 461.917969 307.132812 464.410156 309.621094 467.484375 309.621094 C 470.5625 309.621094 473.050781 307.132812 473.054688 304.054688 C 473.050781 300.984375 470.5625 298.488281 467.484375 298.488281 C 464.410156 298.488281 461.917969 300.984375 461.917969 304.054688 L 465.316406 304.054688 C 465.316406 302.855469 466.289062 301.886719 467.484375 301.886719 C 468.683594 301.886719 469.65625 302.855469 469.660156 304.054688 C 469.65625 305.253906 468.683594 306.226562 467.484375 306.226562 C 466.289062 306.226562 465.316406 305.253906 465.316406 304.054688 L 463.617188 304.054688 " fill-opacity="1" fill-rule="nonzero"/><path fill="#ffffff" d="M 451.707031 304.054688 C 451.707031 306.191406 453.441406 307.921875 455.578125 307.921875 C 457.714844 307.921875 459.449219 306.191406 459.449219 304.054688 C 459.449219 301.921875 457.714844 300.1875 455.578125 300.1875 C 453.441406 300.1875 451.707031 301.921875 451.707031 304.054688 " fill-opacity="1" fill-rule="nonzero"/><path fill="#231f20" d="M 451.707031 304.054688 L 450.007812 304.054688 C 450.007812 307.132812 452.503906 309.621094 455.578125 309.621094 C 458.652344 309.621094 461.144531 307.132812 461.144531 304.054688 C 461.144531 300.984375 458.652344 298.488281 455.578125 298.488281 C 452.503906 298.488281 450.007812 300.984375 450.007812 304.054688 L 453.40625 304.054688 C 453.410156 302.855469 454.378906 301.886719 455.578125 301.886719 C 456.777344 301.886719 457.75 302.855469 457.75 304.054688 C 457.75 305.253906 456.777344 306.226562 455.578125 306.226562 C 454.378906 306.226562 453.410156 305.253906 453.40625 304.054688 L 451.707031 304.054688 " fill-opacity="1" fill-rule="nonzero"/><path fill="#ffffff" d="M 439.800781 304.054688 C 439.800781 306.191406 441.53125 307.921875 443.667969 307.921875 C 445.804688 307.921875 447.542969 306.191406 447.542969 304.054688 C 447.542969 301.921875 445.804688 300.1875 443.667969 300.1875 C 441.53125 300.1875 439.800781 301.921875 439.800781 304.054688 " fill-opacity="1" fill-rule="nonzero"/><path fill="#231f20" d="M 439.800781 304.054688 L 438.105469 304.054688 C 438.105469 307.132812 440.59375 309.621094 443.667969 309.621094 C 446.746094 309.621094 449.234375 307.132812 449.242188 304.054688 C 449.234375 300.980469 446.746094 298.488281 443.667969 298.488281 C 440.59375 298.488281 438.105469 300.980469 438.105469 304.054688 L 441.496094 304.054688 C 441.5 302.855469 442.472656 301.886719 443.667969 301.886719 C 444.867188 301.886719 445.839844 302.855469 445.84375 304.054688 C 445.839844 305.25 444.867188 306.226562 443.667969 306.226562 C 442.46875 306.226562 441.5 305.253906 441.496094 304.054688 L 439.800781 304.054688 " fill-opacity="1" fill-rule="nonzero"/><path fill="#ffffff" d="M 307.914062 332.335938 L 463.617188 332.335938 L 463.617188 326.378906 L 307.914062 326.378906 L 307.914062 332.335938 " fill-opacity="1" fill-rule="nonzero"/><path fill="#231f20" d="M 307.914062 332.335938 L 307.914062 334.03125 L 463.617188 334.03125 C 464.066406 334.03125 464.496094 333.855469 464.816406 333.535156 C 465.136719 333.210938 465.316406 332.789062 465.316406 332.335938 L 465.316406 326.378906 C 465.316406 325.925781 465.136719 325.503906 464.816406 325.179688 C 464.496094 324.855469 464.066406 324.679688 463.617188 324.679688 L 307.914062 324.679688 C 307.46875 324.679688 307.03125 324.863281 306.71875 325.179688 C 306.398438 325.492188 306.21875 325.929688 306.21875 326.378906 L 306.21875 332.335938 C 306.21875 332.789062 306.394531 333.210938 306.71875 333.535156 C 307.035156 333.855469 307.464844 334.03125 307.914062 334.03125 L 307.914062 332.335938 L 309.613281 332.335938 L 309.613281 328.074219 L 461.917969 328.074219 L 461.917969 330.632812 L 307.914062 330.640625 L 307.914062 332.335938 L 309.613281 332.335938 L 307.914062 332.335938 " fill-opacity="1" fill-rule="nonzero"/><path fill="#ffffff" d="M 324.882812 344.835938 L 463.617188 344.835938 L 463.617188 338.882812 L 324.882812 338.882812 L 324.882812 344.835938 " fill-opacity="1" fill-rule="nonzero"/><path fill="#231f20" d="M 324.882812 344.835938 L 324.882812 346.535156 L 463.617188 346.535156 C 464.066406 346.535156 464.496094 346.359375 464.816406 346.035156 C 465.136719 345.71875 465.316406 345.289062 465.316406 344.835938 L 465.316406 338.882812 C 465.316406 338.429688 465.136719 338.003906 464.816406 337.679688 C 464.496094 337.363281 464.066406 337.1875 463.617188 337.1875 L 324.882812 337.1875 C 324.4375 337.1875 324 337.367188 323.683594 337.679688 C 323.367188 338 323.1875 338.4375 323.1875 338.882812 L 323.1875 344.835938 C 323.1875 345.289062 323.363281 345.71875 323.683594 346.035156 C 324.003906 346.359375 324.433594 346.535156 324.882812 346.535156 L 324.882812 344.835938 L 326.582031 344.835938 L 326.582031 340.582031 L 461.917969 340.582031 L 461.917969 343.140625 L 324.882812 343.140625 L 324.882812 344.835938 L 326.582031 344.835938 L 324.882812 344.835938 " fill-opacity="1" fill-rule="nonzero"/><path fill="#ffffff" d="M 324.882812 370.140625 L 463.617188 370.140625 L 463.617188 364.183594 L 324.882812 364.183594 L 324.882812 370.140625 " fill-opacity="1" fill-rule="nonzero"/><path fill="#231f20" d="M 324.882812 370.140625 L 324.882812 371.835938 L 463.617188 371.835938 C 464.066406 371.835938 464.496094 371.660156 464.816406 371.335938 C 465.136719 371.015625 465.316406 370.589844 465.316406 370.140625 L 465.316406 364.183594 C 465.316406 363.730469 465.136719 363.304688 464.816406 362.984375 C 464.496094 362.664062 464.066406 362.488281 463.617188 362.488281 L 324.882812 362.488281 C 324.4375 362.488281 324 362.667969 323.683594 362.984375 C 323.367188 363.300781 323.1875 363.738281 323.1875 364.183594 L 323.1875 370.140625 C 323.1875 370.589844 323.363281 371.015625 323.683594 371.335938 C 324.003906 371.660156 324.433594 371.835938 324.882812 371.835938 L 324.882812 370.140625 L 326.582031 370.140625 L 326.582031 365.878906 L 461.917969 365.878906 L 461.917969 368.441406 L 324.882812 368.441406 L 324.882812 370.140625 L 326.582031 370.140625 L 324.882812 370.140625 " fill-opacity="1" fill-rule="nonzero"/><path fill="#ffffff" d="M 357.628906 380.554688 L 448.730469 380.554688 L 448.730469 374.605469 L 357.628906 374.605469 L 357.628906 380.554688 " fill-opacity="1" fill-rule="nonzero"/><path fill="#231f20" d="M 357.628906 380.554688 L 357.628906 382.25 L 448.730469 382.25 C 449.183594 382.25 449.613281 382.074219 449.929688 381.753906 C 450.253906 381.433594 450.429688 381.007812 450.429688 380.554688 L 450.429688 374.605469 C 450.429688 374.148438 450.253906 373.722656 449.929688 373.402344 C 449.613281 373.082031 449.183594 372.90625 448.730469 372.90625 L 357.628906 372.90625 C 357.183594 372.90625 356.746094 373.085938 356.429688 373.402344 C 356.113281 373.71875 355.933594 374.15625 355.933594 374.605469 L 355.933594 380.554688 C 355.933594 381.007812 356.109375 381.433594 356.429688 381.753906 C 356.75 382.074219 357.179688 382.25 357.628906 382.25 L 357.628906 380.554688 L 359.328125 380.554688 L 359.328125 376.296875 L 447.035156 376.296875 L 447.035156 378.855469 L 357.628906 378.855469 L 357.628906 380.554688 L 359.328125 380.554688 L 357.628906 380.554688 " fill-opacity="1" fill-rule="nonzero"/><path fill="#ffffff" d="M 307.914062 380.554688 L 354.660156 380.554688 L 354.660156 374.605469 L 307.914062 374.605469 L 307.914062 380.554688 " fill-opacity="1" fill-rule="nonzero"/><path fill="#231f20" d="M 307.914062 380.554688 L 307.914062 382.25 L 354.660156 382.25 C 355.109375 382.25 355.539062 382.074219 355.855469 381.753906 C 356.179688 381.433594 356.355469 381.007812 356.355469 380.554688 L 356.355469 374.605469 C 356.355469 374.148438 356.179688 373.722656 355.855469 373.402344 C 355.539062 373.082031 355.109375 372.90625 354.660156 372.90625 L 307.914062 372.90625 C 307.46875 372.90625 307.03125 373.085938 306.71875 373.402344 C 306.398438 373.71875 306.21875 374.15625 306.21875 374.605469 L 306.21875 380.554688 C 306.21875 381.007812 306.394531 381.433594 306.71875 381.753906 C 307.035156 382.074219 307.464844 382.25 307.914062 382.25 L 307.914062 380.554688 L 309.613281 380.554688 L 309.613281 376.300781 L 352.960938 376.300781 L 352.960938 378.855469 L 307.914062 378.855469 L 307.914062 380.554688 L 309.613281 380.554688 L 307.914062 380.554688 " fill-opacity="1" fill-rule="nonzero"/><path fill="#ffffff" d="M 307.914062 401.390625 L 354.660156 401.390625 L 354.660156 395.4375 L 307.914062 395.4375 L 307.914062 401.390625 " fill-opacity="1" fill-rule="nonzero"/><path fill="#231f20" d="M 307.914062 401.390625 L 307.914062 403.089844 L 354.660156 403.089844 C 355.109375 403.089844 355.539062 402.910156 355.855469 402.59375 C 356.179688 402.269531 356.355469 401.847656 356.355469 401.390625 L 356.355469 395.4375 C 356.355469 394.984375 356.179688 394.558594 355.855469 394.238281 C 355.539062 393.917969 355.109375 393.738281 354.660156 393.738281 L 307.914062 393.738281 C 307.46875 393.738281 307.03125 393.921875 306.71875 394.238281 C 306.398438 394.550781 306.21875 394.988281 306.21875 395.4375 L 306.21875 401.390625 C 306.21875 401.847656 306.394531 402.269531 306.71875 402.59375 C 307.035156 402.910156 307.464844 403.089844 307.914062 403.089844 L 307.914062 401.390625 L 309.613281 401.390625 L 309.613281 397.132812 L 352.960938 397.132812 L 352.960938 399.695312 L 307.914062 399.695312 L 307.914062 401.390625 L 309.613281 401.390625 L 307.914062 401.390625 " fill-opacity="1" fill-rule="nonzero"/><path fill="#ffffff" d="M 416.433594 451.398438 L 463.171875 451.398438 L 463.171875 445.449219 L 416.433594 445.449219 L 416.433594 451.398438 " fill-opacity="1" fill-rule="nonzero"/><path fill="#231f20" d="M 416.433594 451.398438 L 416.433594 453.09375 L 463.171875 453.09375 C 463.621094 453.09375 464.050781 452.917969 464.367188 452.601562 C 464.691406 452.277344 464.867188 451.851562 464.867188 451.398438 L 464.867188 445.449219 C 464.867188 444.992188 464.691406 444.570312 464.367188 444.246094 C 464.050781 443.925781 463.621094 443.75 463.171875 443.75 L 416.433594 443.75 C 415.984375 443.75 415.546875 443.933594 415.230469 444.246094 C 414.917969 444.5625 414.734375 445 414.734375 445.449219 L 414.734375 451.398438 C 414.734375 451.851562 414.910156 452.277344 415.230469 452.601562 C 415.550781 452.917969 415.976562 453.09375 416.433594 453.09375 L 416.433594 451.398438 L 418.128906 451.398438 L 418.128906 447.144531 L 461.472656 447.144531 L 461.472656 449.699219 L 416.433594 449.699219 L 416.433594 451.398438 L 418.128906 451.398438 L 416.433594 451.398438 " fill-opacity="1" fill-rule="nonzero"/><path fill="#ffffff" d="M 360.757812 451.398438 L 407.496094 451.398438 L 407.496094 445.449219 L 360.757812 445.449219 L 360.757812 451.398438 " fill-opacity="1" fill-rule="nonzero"/><path fill="#231f20" d="M 360.757812 451.398438 L 360.757812 453.09375 L 407.496094 453.09375 C 407.953125 453.09375 408.378906 452.917969 408.699219 452.601562 C 409.019531 452.277344 409.195312 451.851562 409.195312 451.398438 L 409.195312 445.449219 C 409.195312 444.992188 409.019531 444.570312 408.699219 444.246094 C 408.378906 443.925781 407.953125 443.75 407.496094 443.75 L 360.757812 443.75 C 360.3125 443.75 359.875 443.933594 359.558594 444.246094 C 359.242188 444.5625 359.0625 445 359.0625 445.449219 L 359.0625 451.398438 C 359.0625 451.851562 359.238281 452.277344 359.558594 452.601562 C 359.878906 452.917969 360.304688 453.09375 360.757812 453.09375 L 360.757812 451.398438 L 362.457031 451.398438 L 362.457031 447.144531 L 405.800781 447.144531 L 405.800781 449.699219 L 360.757812 449.699219 L 360.757812 451.398438 L 362.457031 451.398438 L 360.757812 451.398438 " fill-opacity="1" fill-rule="nonzero"/><path fill="#ffffff" d="M 307.914062 451.398438 L 354.660156 451.398438 L 354.660156 445.449219 L 307.914062 445.449219 L 307.914062 451.398438 " fill-opacity="1" fill-rule="nonzero"/><path fill="#231f20" d="M 307.914062 451.398438 L 307.914062 453.09375 L 354.660156 453.09375 C 355.109375 453.09375 355.539062 452.917969 355.855469 452.601562 C 356.179688 452.277344 356.355469 451.851562 356.355469 451.398438 L 356.355469 445.449219 C 356.355469 444.992188 356.179688 444.570312 355.855469 444.246094 C 355.539062 443.925781 355.109375 443.75 354.660156 443.75 L 307.914062 443.75 C 307.46875 443.75 307.03125 443.933594 306.71875 444.246094 C 306.398438 444.5625 306.21875 445 306.21875 445.449219 L 306.21875 451.398438 C 306.21875 451.851562 306.394531 452.277344 306.71875 452.601562 C 307.035156 452.917969 307.464844 453.09375 307.914062 453.09375 L 307.914062 451.398438 L 309.613281 451.398438 L 309.613281 447.144531 L 352.960938 447.144531 L 352.960938 449.699219 L 307.914062 449.699219 L 307.914062 451.398438 L 309.613281 451.398438 L 307.914062 451.398438 " fill-opacity="1" fill-rule="nonzero"/><path fill="#ffffff" d="M 357.628906 390.972656 L 448.730469 390.972656 L 448.730469 385.023438 L 357.628906 385.023438 L 357.628906 390.972656 " fill-opacity="1" fill-rule="nonzero"/><path fill="#231f20" d="M 357.628906 390.972656 L 357.628906 392.667969 L 448.730469 392.667969 C 449.183594 392.667969 449.613281 392.496094 449.929688 392.175781 C 450.253906 391.851562 450.429688 391.425781 450.429688 390.972656 L 450.429688 385.023438 C 450.429688 384.566406 450.253906 384.144531 449.929688 383.820312 C 449.613281 383.5 449.183594 383.324219 448.730469 383.324219 L 357.628906 383.324219 C 357.183594 383.324219 356.746094 383.507812 356.429688 383.820312 C 356.113281 384.136719 355.933594 384.574219 355.933594 385.023438 L 355.933594 390.972656 C 355.933594 391.425781 356.109375 391.851562 356.429688 392.175781 C 356.75 392.496094 357.179688 392.667969 357.628906 392.667969 L 357.628906 390.972656 L 359.328125 390.972656 L 359.328125 386.71875 L 447.035156 386.71875 L 447.035156 389.273438 L 357.628906 389.273438 L 357.628906 390.972656 L 359.328125 390.972656 L 357.628906 390.972656 " fill-opacity="1" fill-rule="nonzero"/><path fill="#ffffff" d="M 357.628906 401.390625 L 448.730469 401.390625 L 448.730469 395.4375 L 357.628906 395.4375 L 357.628906 401.390625 " fill-opacity="1" fill-rule="nonzero"/><path fill="#231f20" d="M 357.628906 401.390625 L 357.628906 403.089844 L 448.730469 403.089844 C 449.183594 403.089844 449.613281 402.910156 449.929688 402.59375 C 450.253906 402.269531 450.429688 401.847656 450.429688 401.390625 L 450.429688 395.4375 C 450.429688 394.984375 450.253906 394.558594 449.929688 394.238281 C 449.613281 393.917969 449.183594 393.738281 448.730469 393.738281 L 357.628906 393.738281 C 357.183594 393.738281 356.746094 393.921875 356.429688 394.238281 C 356.113281 394.550781 355.933594 394.988281 355.933594 395.4375 L 355.933594 401.390625 C 355.933594 401.847656 356.109375 402.269531 356.429688 402.59375 C 356.75 402.910156 357.179688 403.089844 357.628906 403.089844 L 357.628906 401.390625 L 359.328125 401.390625 L 359.328125 397.132812 L 447.035156 397.132812 L 447.035156 399.695312 L 357.628906 399.695312 L 357.628906 401.390625 L 359.328125 401.390625 L 357.628906 401.390625 " fill-opacity="1" fill-rule="nonzero"/><path fill="#ffffff" d="M 324.882812 411.808594 L 463.617188 411.808594 L 463.617188 405.859375 L 324.882812 405.859375 L 324.882812 411.808594 " fill-opacity="1" fill-rule="nonzero"/><path fill="#231f20" d="M 324.882812 411.808594 L 324.882812 413.507812 L 463.617188 413.507812 C 464.066406 413.507812 464.496094 413.332031 464.816406 413.011719 C 465.136719 412.6875 465.316406 412.265625 465.316406 411.808594 L 465.316406 405.859375 C 465.316406 405.40625 465.136719 404.980469 464.816406 404.65625 C 464.496094 404.339844 464.066406 404.164062 463.617188 404.164062 L 324.882812 404.164062 C 324.4375 404.164062 324 404.34375 323.683594 404.65625 C 323.367188 404.976562 323.1875 405.414062 323.1875 405.859375 L 323.1875 411.808594 C 323.1875 412.265625 323.363281 412.6875 323.683594 413.011719 C 324.003906 413.332031 324.433594 413.507812 324.882812 413.507812 L 324.882812 411.808594 L 326.582031 411.808594 L 326.582031 407.558594 L 461.917969 407.558594 L 461.917969 410.113281 L 324.882812 410.113281 L 324.882812 411.808594 L 326.582031 411.808594 L 324.882812 411.808594 " fill-opacity="1" fill-rule="nonzero"/><path fill="#ffffff" d="M 324.882812 438.601562 L 463.617188 438.601562 L 463.617188 432.648438 L 324.882812 432.648438 L 324.882812 438.601562 " fill-opacity="1" fill-rule="nonzero"/><path fill="#231f20" d="M 324.882812 438.601562 L 324.882812 440.296875 L 463.617188 440.296875 C 464.066406 440.296875 464.496094 440.121094 464.816406 439.800781 C 465.136719 439.476562 465.316406 439.050781 465.316406 438.601562 L 465.316406 432.648438 C 465.316406 432.195312 465.136719 431.765625 464.816406 431.449219 C 464.496094 431.125 464.066406 430.949219 463.617188 430.949219 L 324.882812 430.949219 C 324.4375 430.949219 324 431.128906 323.683594 431.449219 C 323.367188 431.761719 323.1875 432.199219 323.1875 432.648438 L 323.1875 438.601562 C 323.1875 439.050781 323.363281 439.476562 323.683594 439.800781 C 324.003906 440.121094 324.433594 440.296875 324.882812 440.296875 L 324.882812 438.601562 L 326.582031 438.601562 L 326.582031 434.34375 L 461.917969 434.34375 L 461.917969 436.902344 L 324.882812 436.902344 L 324.882812 438.601562 L 326.582031 438.601562 L 324.882812 438.601562 " fill-opacity="1" fill-rule="nonzero"/><path fill="#ffffff" d="M 324.882812 465.394531 L 463.617188 465.394531 L 463.617188 459.433594 L 324.882812 459.433594 L 324.882812 465.394531 " fill-opacity="1" fill-rule="nonzero"/><path fill="#231f20" d="M 324.882812 465.394531 L 324.882812 467.085938 L 463.617188 467.085938 C 464.066406 467.085938 464.496094 466.914062 464.816406 466.589844 C 465.136719 466.269531 465.316406 465.84375 465.316406 465.394531 L 465.316406 459.433594 C 465.316406 458.984375 465.136719 458.558594 464.816406 458.234375 C 464.496094 457.914062 464.066406 457.738281 463.617188 457.738281 L 324.882812 457.738281 C 324.4375 457.738281 324 457.917969 323.683594 458.234375 C 323.367188 458.550781 323.1875 458.988281 323.1875 459.433594 L 323.1875 465.394531 C 323.1875 465.84375 323.363281 466.269531 323.683594 466.589844 C 324.003906 466.914062 324.433594 467.085938 324.882812 467.085938 L 324.882812 465.394531 L 326.582031 465.394531 L 326.582031 461.132812 L 461.917969 461.132812 L 461.917969 463.695312 L 324.882812 463.695312 L 324.882812 465.394531 L 326.582031 465.394531 L 324.882812 465.394531 " fill-opacity="1" fill-rule="nonzero"/><path fill="#ffffff" d="M 516.253906 449.179688 C 516.253906 451.828125 514.105469 453.96875 511.457031 453.96875 L 467.503906 453.96875 C 464.855469 453.96875 462.707031 451.828125 462.707031 449.179688 L 462.707031 405.226562 C 462.707031 402.578125 464.855469 400.4375 467.503906 400.4375 L 511.457031 400.4375 C 514.105469 400.4375 516.253906 402.578125 516.253906 405.226562 L 516.253906 449.179688 " fill-opacity="1" fill-rule="nonzero"/><path fill="#231f20" d="M 516.253906 449.179688 L 514.554688 449.179688 C 514.550781 450.886719 513.167969 452.269531 511.457031 452.273438 L 467.503906 452.273438 C 465.792969 452.269531 464.410156 450.886719 464.402344 449.179688 L 464.402344 405.226562 C 464.410156 403.515625 465.792969 402.132812 467.503906 402.132812 L 511.457031 402.132812 C 513.167969 402.132812 514.550781 403.515625 514.554688 405.226562 L 514.554688 449.179688 L 517.945312 449.179688 L 517.945312 405.226562 C 517.945312 401.644531 515.042969 398.738281 511.457031 398.738281 L 467.503906 398.738281 C 463.917969 398.738281 461.007812 401.644531 461.007812 405.226562 L 461.007812 449.179688 C 461.007812 452.765625 463.917969 455.664062 467.503906 455.667969 L 511.457031 455.667969 C 515.042969 455.667969 517.945312 452.765625 517.945312 449.179688 L 516.253906 449.179688 " fill-opacity="1" fill-rule="nonzero"/><path fill="#ffffff" d="M 503.683594 440.996094 C 498.441406 441.027344 491.351562 438.816406 486.042969 433.519531 C 480.738281 428.214844 478.535156 421.125 478.566406 415.875 L 476.359375 413.679688 C 476.199219 413.8125 476.042969 413.957031 475.894531 414.105469 C 470.765625 419.230469 473.226562 430.007812 481.394531 438.171875 C 489.554688 446.332031 500.328125 448.792969 505.460938 443.667969 C 505.613281 443.515625 505.75 443.363281 505.890625 443.199219 L 503.683594 440.996094 " fill-opacity="1" fill-rule="nonzero"/><path fill="#231f20" d="M 503.683594 440.996094 L 503.683594 440.429688 L 503.574219 440.429688 C 498.492188 440.4375 491.585938 438.261719 486.441406 433.117188 C 481.292969 427.976562 479.121094 421.066406 479.125 415.980469 L 479.125 415.90625 L 479.140625 415.65625 L 476.390625 412.90625 L 475.992188 413.246094 C 475.824219 413.390625 475.65625 413.542969 475.496094 413.707031 C 473.554688 415.640625 472.648438 418.324219 472.652344 421.292969 C 472.65625 426.726562 475.628906 433.199219 480.992188 438.570312 C 486.363281 443.933594 492.832031 446.902344 498.269531 446.90625 C 501.234375 446.910156 503.917969 446.003906 505.859375 444.066406 C 506.023438 443.902344 506.171875 443.738281 506.320312 443.570312 L 506.660156 443.171875 L 503.917969 440.429688 L 503.683594 440.429688 L 503.683594 440.996094 L 503.285156 441.398438 L 505.488281 443.601562 L 505.890625 443.199219 L 505.460938 442.828125 C 505.324219 442.984375 505.195312 443.128906 505.058594 443.265625 C 503.371094 444.949219 501.019531 445.773438 498.269531 445.773438 C 493.246094 445.785156 486.976562 442.964844 481.792969 437.769531 C 476.597656 432.582031 473.777344 426.3125 473.78125 421.292969 C 473.785156 418.542969 474.609375 416.191406 476.296875 414.507812 C 476.433594 414.367188 476.578125 414.230469 476.726562 414.109375 L 476.359375 413.679688 L 475.960938 414.078125 L 478.164062 416.277344 L 478.566406 415.875 L 478 415.851562 L 477.996094 415.980469 C 478 421.371094 480.253906 428.519531 485.640625 433.914062 C 491.039062 439.304688 498.1875 441.558594 503.574219 441.5625 L 503.683594 441.5625 L 503.683594 440.996094 L 503.285156 441.398438 L 503.683594 440.996094 " fill-opacity="1" fill-rule="nonzero"/><path fill="#ffffff" d="M 484.199219 423.015625 C 483.609375 423.402344 482.808594 423.234375 482.414062 422.640625 L 476.554688 413.691406 C 476.160156 413.101562 476.328125 412.296875 476.925781 411.90625 L 477.550781 411.496094 C 478.152344 411.101562 478.953125 411.269531 479.34375 411.867188 L 485.210938 420.808594 C 485.597656 421.410156 485.433594 422.207031 484.832031 422.597656 L 484.199219 423.015625 " fill-opacity="1" fill-rule="nonzero"/><path fill="#231f20" d="M 484.199219 423.015625 L 483.890625 422.542969 C 483.769531 422.621094 483.636719 422.65625 483.5 422.65625 C 483.257812 422.65625 483.023438 422.542969 482.886719 422.328125 L 477.027344 413.382812 C 476.941406 413.257812 476.902344 413.121094 476.902344 412.984375 C 476.90625 412.746094 477.023438 412.515625 477.230469 412.378906 L 477.863281 411.96875 L 477.867188 411.96875 C 477.988281 411.882812 478.125 411.84375 478.257812 411.84375 C 478.5 411.847656 478.726562 411.960938 478.871094 412.175781 L 484.734375 421.125 C 484.816406 421.246094 484.851562 421.378906 484.851562 421.515625 C 484.851562 421.753906 484.742188 421.984375 484.519531 422.125 L 484.523438 422.125 L 483.890625 422.542969 L 484.199219 423.015625 L 484.515625 423.488281 L 485.144531 423.074219 L 485.148438 423.074219 C 485.6875 422.714844 485.988281 422.121094 485.984375 421.515625 C 485.984375 421.171875 485.886719 420.8125 485.683594 420.503906 L 479.816406 411.558594 C 479.460938 411.007812 478.863281 410.714844 478.257812 410.714844 C 477.910156 410.714844 477.550781 410.816406 477.242188 411.023438 L 476.613281 411.429688 C 476.066406 411.789062 475.769531 412.382812 475.769531 412.984375 C 475.769531 413.335938 475.871094 413.691406 476.078125 414.007812 L 481.941406 422.949219 C 482.296875 423.492188 482.890625 423.789062 483.5 423.789062 C 483.847656 423.789062 484.199219 423.691406 484.515625 423.488281 L 484.199219 423.015625 " fill-opacity="1" fill-rule="nonzero"/><path fill="#ffffff" d="M 477.03125 412.855469 L 476.960938 412.90625 C 474.28125 414.660156 473.515625 418.242188 475.253906 420.894531 C 476.996094 423.546875 480.574219 424.273438 483.253906 422.519531 L 483.332031 422.46875 L 477.03125 412.855469 " fill-opacity="1" fill-rule="nonzero"/><path fill="#231f20" d="M 477.03125 412.855469 L 476.726562 412.382812 L 476.648438 412.429688 L 476.648438 412.433594 C 474.777344 413.65625 473.753906 415.699219 473.753906 417.769531 C 473.753906 418.949219 474.085938 420.144531 474.78125 421.203125 C 475.988281 423.042969 478.007812 424.039062 480.0625 424.039062 C 481.265625 424.039062 482.484375 423.699219 483.566406 422.992188 L 483.582031 422.980469 L 483.65625 422.929688 L 484.105469 422.617188 L 477.195312 412.078125 L 476.726562 412.382812 L 477.03125 412.855469 L 476.558594 413.167969 L 482.855469 422.777344 L 483.332031 422.46875 L 483.007812 422.003906 L 482.933594 422.054688 L 483.253906 422.519531 L 482.949219 422.042969 C 482.050781 422.628906 481.050781 422.910156 480.0625 422.910156 C 478.367188 422.910156 476.714844 422.089844 475.726562 420.578125 C 475.15625 419.714844 474.886719 418.742188 474.886719 417.769531 C 474.886719 416.066406 475.726562 414.390625 477.269531 413.378906 L 477.265625 413.378906 L 477.339844 413.335938 L 477.03125 412.855469 L 476.558594 413.167969 L 477.03125 412.855469 " fill-opacity="1" fill-rule="nonzero"/><path fill="#ffffff" d="M 496.765625 435.574219 C 496.371094 436.171875 496.539062 436.972656 497.136719 437.363281 L 506.082031 443.226562 C 506.683594 443.617188 507.480469 443.449219 507.875 442.851562 L 508.285156 442.222656 C 508.679688 441.625 508.511719 440.824219 507.914062 440.429688 L 498.96875 434.570312 C 498.371094 434.175781 497.570312 434.34375 497.175781 434.945312 L 496.765625 435.574219 " fill-opacity="1" fill-rule="nonzero"/><path fill="#231f20" d="M 496.765625 435.574219 L 496.292969 435.257812 C 496.085938 435.574219 495.988281 435.929688 495.988281 436.28125 C 495.988281 436.882812 496.285156 437.476562 496.828125 437.835938 L 505.769531 443.699219 C 506.085938 443.902344 506.441406 444.003906 506.792969 444.003906 C 507.398438 444.003906 507.992188 443.703125 508.34375 443.164062 L 508.347656 443.164062 L 508.757812 442.53125 C 508.964844 442.21875 509.066406 441.863281 509.066406 441.515625 C 509.066406 440.910156 508.769531 440.316406 508.230469 439.957031 L 499.277344 434.097656 C 498.96875 433.894531 498.609375 433.792969 498.261719 433.792969 C 497.652344 433.792969 497.058594 434.089844 496.703125 434.636719 L 496.703125 434.632812 L 496.292969 435.257812 L 496.765625 435.574219 L 497.238281 435.882812 L 497.648438 435.253906 L 497.652344 435.25 C 497.792969 435.039062 498.019531 434.921875 498.261719 434.921875 C 498.398438 434.921875 498.53125 434.957031 498.65625 435.042969 L 507.605469 440.902344 C 507.8125 441.042969 507.933594 441.277344 507.933594 441.515625 C 507.933594 441.652344 507.894531 441.789062 507.8125 441.910156 L 507.398438 442.542969 L 507.402344 442.539062 C 507.261719 442.757812 507.027344 442.871094 506.792969 442.871094 C 506.65625 442.871094 506.519531 442.832031 506.394531 442.75 L 497.445312 436.890625 C 497.234375 436.75 497.121094 436.519531 497.121094 436.28125 C 497.121094 436.144531 497.15625 436.007812 497.238281 435.882812 L 496.765625 435.574219 " fill-opacity="1" fill-rule="nonzero"/><path fill="#ffffff" d="M 506.921875 442.742188 L 506.875 442.816406 C 505.117188 445.496094 501.539062 446.261719 498.886719 444.519531 C 496.230469 442.777344 495.503906 439.199219 497.261719 436.515625 L 497.3125 436.449219 L 506.921875 442.742188 " fill-opacity="1" fill-rule="nonzero"/><path fill="#231f20" d="M 506.921875 442.742188 L 506.449219 442.433594 L 506.402344 442.503906 C 505.386719 444.050781 503.710938 444.886719 502.007812 444.886719 C 501.035156 444.886719 500.0625 444.617188 499.195312 444.046875 C 497.683594 443.058594 496.871094 441.40625 496.867188 439.710938 C 496.867188 438.71875 497.144531 437.722656 497.734375 436.828125 L 497.261719 436.515625 L 497.71875 436.851562 L 497.769531 436.78125 L 497.3125 436.449219 L 497.003906 436.921875 L 506.609375 443.214844 L 506.921875 442.742188 L 506.449219 442.433594 L 506.921875 442.742188 L 507.230469 442.269531 L 497.171875 435.679688 L 496.804688 436.183594 L 496.789062 436.207031 C 496.074219 437.289062 495.734375 438.507812 495.734375 439.710938 C 495.734375 441.769531 496.734375 443.785156 498.578125 444.992188 C 499.628906 445.6875 500.828125 446.019531 502.007812 446.019531 C 504.078125 446.019531 506.121094 444.996094 507.347656 443.128906 L 507.394531 443.058594 L 507.707031 442.582031 L 507.230469 442.269531 L 506.921875 442.742188 " fill-opacity="1" fill-rule="nonzero"/><path fill="#ffffff" d="M 273.085938 306.570312 C 273.085938 309.195312 275.210938 311.316406 277.832031 311.316406 L 321.351562 311.316406 C 323.972656 311.316406 326.09375 309.195312 326.09375 306.570312 L 326.09375 263.0625 C 326.09375 260.441406 323.972656 258.316406 321.351562 258.316406 L 277.832031 258.316406 C 275.210938 258.316406 273.085938 260.441406 273.085938 263.0625 L 273.085938 306.570312 " fill-opacity="1" fill-rule="nonzero"/><path fill="#231f20" d="M 273.085938 306.570312 L 271.390625 306.570312 C 271.390625 310.132812 274.273438 313.015625 277.832031 313.015625 L 321.351562 313.015625 C 324.910156 313.015625 327.792969 310.132812 327.792969 306.570312 L 327.792969 263.0625 C 327.792969 259.503906 324.910156 256.621094 321.351562 256.621094 L 277.832031 256.621094 C 274.273438 256.621094 271.390625 259.503906 271.390625 263.0625 L 271.390625 306.570312 L 274.785156 306.570312 L 274.785156 263.0625 C 274.785156 261.378906 276.148438 260.015625 277.832031 260.011719 L 321.351562 260.011719 C 323.03125 260.015625 324.394531 261.378906 324.398438 263.0625 L 324.398438 306.570312 C 324.394531 308.257812 323.035156 309.617188 321.351562 309.621094 L 277.832031 309.621094 C 276.148438 309.617188 274.785156 308.257812 274.785156 306.570312 L 273.085938 306.570312 " fill-opacity="1" fill-rule="nonzero"/><path fill="#ffffff" d="M 300.195312 291.433594 L 305.53125 294.238281 L 304.515625 288.296875 C 304.441406 287.875 304.582031 287.445312 304.886719 287.148438 L 309.207031 282.9375 L 303.238281 282.074219 C 302.820312 282.011719 302.453125 281.746094 302.261719 281.363281 L 299.589844 275.957031 L 296.925781 281.363281 C 296.734375 281.746094 296.367188 282.011719 295.945312 282.074219 L 289.980469 282.9375 L 294.292969 287.148438 C 294.605469 287.445312 294.742188 287.875 294.671875 288.296875 L 293.648438 294.238281 L 298.988281 291.433594 C 299.179688 291.332031 299.382812 291.285156 299.589844 291.285156 C 299.800781 291.285156 300.007812 291.332031 300.195312 291.433594 Z M 291.164062 297.664062 C 290.761719 297.371094 290.5625 296.882812 290.648438 296.394531 L 291.996094 288.53125 L 286.28125 282.960938 C 285.925781 282.617188 285.796875 282.097656 285.949219 281.632812 C 286.101562 281.15625 286.507812 280.816406 287 280.746094 L 294.894531 279.597656 L 298.429688 272.445312 C 298.644531 272.003906 299.101562 271.71875 299.589844 271.71875 C 300.085938 271.71875 300.539062 272.003906 300.757812 272.445312 L 304.289062 279.597656 L 312.1875 280.746094 C 312.671875 280.816406 313.078125 281.15625 313.234375 281.632812 C 313.382812 282.097656 313.261719 282.617188 312.90625 282.960938 L 307.191406 288.53125 L 308.539062 296.394531 C 308.625 296.882812 308.425781 297.371094 308.023438 297.664062 C 307.625 297.957031 307.09375 297.992188 306.65625 297.765625 L 299.589844 294.050781 L 292.53125 297.765625 C 292.339844 297.863281 292.132812 297.910156 291.925781 297.910156 C 291.65625 297.910156 291.386719 297.832031 291.164062 297.664062 " fill-opacity="1" fill-rule="nonzero"/><path fill="#231f20" d="M 300.195312 291.433594 L 299.929688 291.933594 L 306.285156 295.277344 L 305.074219 288.203125 L 305.070312 288.199219 L 305.058594 288.074219 C 305.058594 287.882812 305.140625 287.691406 305.28125 287.558594 L 305.28125 287.554688 L 310.421875 282.546875 L 303.324219 281.515625 C 303.082031 281.480469 302.875 281.332031 302.765625 281.109375 L 299.589844 274.679688 L 296.417969 281.109375 C 296.3125 281.332031 296.097656 281.480469 295.863281 281.515625 L 288.765625 282.546875 L 293.902344 287.554688 L 293.90625 287.554688 C 294.042969 287.691406 294.121094 287.875 294.121094 288.070312 L 294.109375 288.207031 L 294.109375 288.203125 L 292.898438 295.273438 L 299.25 291.933594 L 299.257812 291.929688 C 299.359375 291.878906 299.472656 291.851562 299.589844 291.851562 C 299.710938 291.851562 299.824219 291.878906 299.929688 291.933594 L 300.460938 290.9375 C 300.1875 290.789062 299.886719 290.71875 299.589844 290.71875 C 299.296875 290.71875 298.996094 290.789062 298.71875 290.9375 L 298.988281 291.433594 L 298.726562 290.929688 L 294.402344 293.203125 L 295.226562 288.394531 L 295.226562 288.390625 C 295.242188 288.289062 295.253906 288.183594 295.253906 288.070312 C 295.253906 287.578125 295.054688 287.089844 294.6875 286.742188 L 294.6875 286.746094 L 291.195312 283.335938 L 296.027344 282.632812 C 296.632812 282.546875 297.160156 282.160156 297.429688 281.613281 L 299.589844 277.234375 L 301.753906 281.613281 C 302.027344 282.160156 302.546875 282.546875 303.160156 282.632812 L 307.988281 283.335938 L 304.492188 286.746094 L 304.5 286.742188 C 304.128906 287.089844 303.929688 287.578125 303.929688 288.074219 C 303.929688 288.183594 303.9375 288.292969 303.960938 288.398438 L 303.953125 288.394531 L 304.78125 293.203125 L 300.460938 290.929688 L 300.460938 290.9375 Z M 291.164062 297.664062 L 291.496094 297.207031 C 291.300781 297.066406 291.191406 296.847656 291.191406 296.617188 L 291.199219 296.5 L 291.203125 296.492188 L 292.601562 288.335938 L 286.671875 282.558594 C 286.53125 282.417969 286.453125 282.222656 286.453125 282.027344 L 286.488281 281.8125 L 286.488281 281.808594 C 286.574219 281.539062 286.800781 281.347656 287.078125 281.308594 L 295.273438 280.113281 L 298.933594 272.699219 C 299.054688 272.445312 299.3125 272.285156 299.589844 272.285156 C 299.871094 272.285156 300.125 272.445312 300.25 272.699219 L 303.910156 280.113281 L 312.101562 281.308594 C 312.382812 281.347656 312.605469 281.539062 312.695312 281.808594 L 312.730469 282.035156 C 312.730469 282.226562 312.652344 282.417969 312.507812 282.558594 L 306.585938 288.335938 L 307.980469 296.492188 L 307.980469 296.488281 L 307.992188 296.613281 C 307.992188 296.839844 307.878906 297.066406 307.6875 297.207031 L 307.691406 297.207031 C 307.5625 297.300781 307.410156 297.34375 307.257812 297.34375 C 307.140625 297.34375 307.023438 297.320312 306.917969 297.261719 L 299.589844 293.410156 L 292.269531 297.261719 C 292.164062 297.320312 292.039062 297.34375 291.925781 297.34375 C 291.769531 297.34375 291.621094 297.300781 291.5 297.207031 L 291.496094 297.207031 L 291.164062 297.664062 L 290.828125 298.117188 C 291.15625 298.363281 291.546875 298.476562 291.925781 298.476562 C 292.222656 298.476562 292.519531 298.40625 292.792969 298.265625 L 292.796875 298.265625 L 299.589844 294.6875 L 306.390625 298.265625 C 306.664062 298.40625 306.960938 298.476562 307.257812 298.476562 C 307.640625 298.476562 308.03125 298.359375 308.355469 298.125 L 308.359375 298.117188 C 308.839844 297.765625 309.121094 297.203125 309.121094 296.613281 C 309.121094 296.511719 309.113281 296.40625 309.101562 296.300781 L 309.097656 296.296875 L 307.800781 288.730469 L 313.300781 283.367188 L 313.304688 283.363281 C 313.664062 283.011719 313.863281 282.527344 313.863281 282.035156 C 313.863281 281.839844 313.832031 281.644531 313.769531 281.457031 C 313.550781 280.78125 312.96875 280.292969 312.265625 280.191406 L 304.660156 279.082031 L 301.265625 272.195312 C 300.949219 271.558594 300.296875 271.15625 299.589844 271.15625 C 298.882812 271.15625 298.234375 271.558594 297.921875 272.199219 L 294.519531 279.082031 L 286.921875 280.191406 C 286.21875 280.289062 285.628906 280.777344 285.414062 281.453125 L 285.949219 281.632812 L 285.414062 281.449219 C 285.347656 281.644531 285.320312 281.839844 285.320312 282.027344 C 285.320312 282.523438 285.519531 283.011719 285.886719 283.367188 L 291.386719 288.730469 L 290.089844 296.296875 L 290.648438 296.394531 L 290.089844 296.285156 C 290.070312 296.402344 290.058594 296.515625 290.058594 296.617188 C 290.058594 297.203125 290.34375 297.769531 290.832031 298.125 L 290.828125 298.117188 L 291.164062 297.664062 " fill-opacity="1" fill-rule="nonzero"/><path fill="#ffffff" d="M 454.972656 320.941406 C 454.972656 323.710938 457.21875 325.957031 459.996094 325.957031 L 505.996094 325.957031 C 508.769531 325.957031 511.019531 323.710938 511.019531 320.941406 L 511.019531 274.941406 C 511.019531 272.171875 508.769531 269.925781 505.996094 269.925781 L 459.996094 269.925781 C 457.21875 269.925781 454.972656 272.171875 454.972656 274.941406 L 454.972656 320.941406 " fill-opacity="1" fill-rule="nonzero"/><path fill="#231f20" d="M 454.972656 320.941406 L 453.277344 320.941406 C 453.277344 324.648438 456.28125 327.65625 459.996094 327.65625 L 505.996094 327.65625 C 509.707031 327.652344 512.710938 324.648438 512.714844 320.941406 L 512.714844 274.941406 C 512.710938 271.230469 509.707031 268.230469 505.996094 268.230469 L 459.996094 268.230469 C 456.28125 268.230469 453.277344 271.234375 453.277344 274.941406 L 453.277344 320.941406 L 456.671875 320.941406 L 456.671875 274.941406 C 456.675781 273.109375 458.15625 271.625 459.996094 271.625 L 505.996094 271.625 C 507.832031 271.625 509.316406 273.109375 509.320312 274.941406 L 509.320312 320.941406 C 509.316406 322.769531 507.832031 324.257812 505.996094 324.261719 L 459.996094 324.261719 C 458.15625 324.257812 456.675781 322.773438 456.671875 320.941406 L 454.972656 320.941406 " fill-opacity="1" fill-rule="nonzero"/><path fill="#ffffff" d="M 464.21875 311.632812 L 464.21875 285.851562 L 483 298.308594 L 501.773438 285.851562 L 501.773438 311.632812 L 464.21875 311.632812 " fill-opacity="1" fill-rule="nonzero"/><path fill="#231f20" d="M 502.339844 284.800781 L 500.585938 285.964844 L 483 297.628906 L 465.40625 285.964844 L 463.652344 284.800781 L 463.652344 312.199219 L 502.339844 312.199219 Z M 501.207031 286.90625 L 501.207031 311.066406 L 464.785156 311.066406 L 464.785156 286.90625 L 483 298.984375 L 501.207031 286.90625 " fill-opacity="1" fill-rule="nonzero"/><path fill="#ffffff" d="M 462.90625 311.632812 L 483 298.308594 L 503.085938 311.632812 Z M 462.90625 311.632812 " fill-opacity="1" fill-rule="nonzero"/><path fill="#231f20" d="M 483 297.628906 L 482.371094 298.042969 L 464.15625 310.125 L 461.03125 312.199219 L 504.960938 312.199219 L 501.835938 310.125 L 483.621094 298.042969 Z M 483 298.984375 L 501.207031 311.066406 L 464.785156 311.066406 L 483 298.984375 " fill-opacity="1" fill-rule="nonzero"/><path fill="#ffffff" d="M 462.90625 284.246094 L 503.085938 284.246094 L 483 297.574219 Z M 462.90625 284.246094 " fill-opacity="1" fill-rule="nonzero"/><path fill="#231f20" d="M 504.960938 283.683594 L 461.03125 283.683594 L 464.15625 285.757812 L 482.371094 297.835938 L 483 298.25 L 483.621094 297.835938 L 501.835938 285.757812 Z M 501.207031 284.8125 L 483 296.894531 L 464.785156 284.8125 L 501.207031 284.8125 " fill-opacity="1" fill-rule="nonzero"/><path fill="#ffffff" d="M 268.714844 417.117188 C 268.714844 419.738281 270.835938 421.863281 273.457031 421.863281 L 316.980469 421.863281 C 319.597656 421.863281 321.722656 419.738281 321.722656 417.117188 L 321.722656 373.605469 C 321.722656 370.988281 319.597656 368.863281 316.980469 368.863281 L 273.457031 368.863281 C 270.835938 368.863281 268.714844 370.988281 268.714844 373.605469 L 268.714844 417.117188 " fill-opacity="1" fill-rule="nonzero"/><path fill="#231f20" d="M 268.714844 417.117188 L 267.019531 417.117188 C 267.019531 420.675781 269.898438 423.558594 273.457031 423.558594 L 316.980469 423.558594 C 320.535156 423.558594 323.421875 420.675781 323.421875 417.117188 L 323.421875 373.605469 C 323.421875 370.046875 320.535156 367.164062 316.980469 367.164062 L 273.457031 367.164062 C 269.898438 367.164062 267.019531 370.046875 267.019531 373.605469 L 267.019531 417.117188 L 270.414062 417.117188 L 270.414062 373.605469 C 270.417969 371.921875 271.777344 370.5625 273.457031 370.558594 L 316.980469 370.558594 C 318.660156 370.5625 320.023438 371.925781 320.023438 373.605469 L 320.023438 417.117188 C 320.023438 418.796875 318.660156 420.160156 316.980469 420.164062 L 273.457031 420.164062 C 271.773438 420.160156 270.417969 418.800781 270.414062 417.117188 L 268.714844 417.117188 " fill-opacity="1" fill-rule="nonzero"/><path fill="#ffffff" d="M 291.414062 384.191406 L 298.871094 384.191406 L 301.351562 389.226562 L 299.539062 389.226562 L 297.78125 385.660156 L 292.503906 385.660156 L 290.75 389.226562 L 288.9375 389.226562 L 291.414062 384.191406 " fill-opacity="1" fill-rule="nonzero"/><path fill="#231f20" d="M 291.414062 384.191406 L 291.414062 384.757812 L 298.515625 384.757812 L 300.441406 388.660156 L 299.890625 388.660156 L 298.132812 385.09375 L 292.152344 385.09375 L 290.394531 388.660156 L 289.84375 388.660156 L 291.921875 384.441406 L 291.414062 384.191406 L 291.414062 384.757812 L 291.414062 384.191406 L 290.902344 383.945312 L 288.027344 389.792969 L 291.097656 389.792969 L 292.855469 386.226562 L 297.429688 386.226562 L 299.1875 389.792969 L 302.261719 389.792969 L 299.222656 383.625 L 291.058594 383.625 L 290.902344 383.945312 L 291.414062 384.191406 " fill-opacity="1" fill-rule="nonzero"/><path fill="#ffffff" d="M 290.847656 398.332031 C 290.847656 400.707031 292.769531 402.628906 295.144531 402.628906 C 297.519531 402.628906 299.441406 400.707031 299.441406 398.332031 C 299.441406 395.957031 297.519531 394.035156 295.144531 394.035156 C 292.769531 394.035156 290.847656 395.957031 290.847656 398.332031 " fill-opacity="1" fill-rule="nonzero"/><path fill="#231f20" d="M 290.847656 398.332031 L 289.148438 398.332031 C 289.148438 401.644531 291.828125 404.324219 295.144531 404.324219 C 298.453125 404.324219 301.132812 401.644531 301.136719 398.332031 C 301.132812 395.019531 298.453125 392.339844 295.144531 392.339844 C 291.828125 392.339844 289.148438 395.019531 289.148438 398.332031 L 292.542969 398.332031 C 292.542969 396.898438 293.707031 395.738281 295.144531 395.734375 C 296.582031 395.738281 297.738281 396.898438 297.742188 398.332031 C 297.738281 399.769531 296.574219 400.929688 295.144531 400.929688 C 293.707031 400.929688 292.542969 399.769531 292.542969 398.332031 L 290.847656 398.332031 " fill-opacity="1" fill-rule="nonzero"/><path fill="#ffffff" d="M 280.386719 391.148438 C 280.386719 390.828125 280.652344 390.5625 280.980469 390.5625 L 282.976562 390.5625 C 283.304688 390.5625 283.570312 390.828125 283.570312 391.148438 C 283.570312 391.476562 283.304688 391.746094 282.976562 391.746094 L 280.980469 391.746094 C 280.652344 391.746094 280.386719 391.476562 280.386719 391.148438 Z M 288.148438 398.332031 C 288.148438 394.46875 291.28125 391.335938 295.144531 391.335938 C 299.007812 391.335938 302.136719 394.46875 302.136719 398.332031 C 302.136719 402.195312 299.007812 405.324219 295.144531 405.324219 C 291.28125 405.324219 288.148438 402.195312 288.148438 398.332031 Z M 307.074219 391.148438 C 307.074219 390.828125 307.339844 390.5625 307.667969 390.5625 L 309.667969 390.5625 C 309.992188 390.5625 310.257812 390.828125 310.257812 391.148438 C 310.257812 391.476562 309.992188 391.746094 309.667969 391.746094 L 307.667969 391.746094 C 307.339844 391.746094 307.074219 391.476562 307.074219 391.148438 Z M 278.128906 388.335938 L 278.128906 408.328125 L 312.160156 408.328125 L 312.160156 388.335938 L 278.128906 388.335938 " fill-opacity="1" fill-rule="nonzero"/><path fill="#231f20" d="M 280.386719 391.148438 L 280.953125 391.148438 L 280.980469 391.125 L 282.976562 391.125 L 283.003906 391.148438 L 282.976562 391.179688 L 280.980469 391.179688 L 280.953125 391.148438 L 279.820312 391.148438 C 279.820312 391.789062 280.332031 392.308594 280.980469 392.3125 L 282.976562 392.3125 C 283.621094 392.308594 284.136719 391.789062 284.136719 391.148438 C 284.136719 390.511719 283.617188 389.996094 282.976562 389.996094 L 280.980469 389.996094 C 280.339844 389.996094 279.820312 390.511719 279.820312 391.148438 Z M 288.148438 398.332031 L 288.714844 398.332031 C 288.714844 396.554688 289.433594 394.949219 290.597656 393.785156 C 291.761719 392.621094 293.363281 391.902344 295.144531 391.902344 C 296.921875 391.902344 298.527344 392.621094 299.6875 393.785156 C 300.855469 394.949219 301.570312 396.554688 301.570312 398.332031 C 301.570312 400.109375 300.855469 401.714844 299.6875 402.875 C 298.527344 404.042969 296.921875 404.757812 295.144531 404.757812 C 293.363281 404.757812 291.761719 404.042969 290.59375 402.875 C 289.433594 401.714844 288.714844 400.109375 288.714844 398.332031 L 287.582031 398.332031 C 287.582031 402.503906 290.964844 405.890625 295.144531 405.890625 C 299.316406 405.890625 302.703125 402.507812 302.703125 398.332031 C 302.703125 394.15625 299.316406 390.769531 295.144531 390.769531 C 290.964844 390.769531 287.582031 394.15625 287.582031 398.332031 Z M 307.074219 391.148438 L 307.640625 391.148438 L 307.667969 391.125 L 309.667969 391.125 L 309.691406 391.148438 L 309.667969 391.179688 L 307.667969 391.179688 L 307.640625 391.148438 L 306.511719 391.148438 C 306.511719 391.789062 307.027344 392.308594 307.667969 392.3125 L 309.667969 392.3125 C 310.308594 392.308594 310.820312 391.789062 310.824219 391.148438 C 310.824219 390.511719 310.308594 389.996094 309.667969 389.996094 L 307.667969 389.996094 C 307.027344 389.996094 306.511719 390.511719 306.511719 391.148438 Z M 278.128906 388.335938 L 277.5625 388.335938 L 277.5625 408.890625 L 312.726562 408.890625 L 312.726562 387.773438 L 277.5625 387.773438 L 277.5625 388.335938 L 278.128906 388.335938 L 278.128906 388.902344 L 311.59375 388.902344 L 311.59375 407.761719 L 278.6875 407.761719 L 278.695312 388.335938 L 278.128906 388.335938 L 278.128906 388.902344 L 278.128906 388.335938 " fill-opacity="1" fill-rule="nonzero"/><path fill="#ffffff" d="M 305.148438 387.972656 C 305.148438 388.660156 305.714844 389.226562 306.410156 389.226562 L 309 389.226562 C 309.691406 389.226562 310.257812 388.660156 310.257812 387.972656 C 310.257812 387.273438 309.691406 386.710938 309 386.710938 L 306.410156 386.710938 C 305.714844 386.710938 305.148438 387.273438 305.148438 387.972656 " fill-opacity="1" fill-rule="nonzero"/><path fill="#231f20" d="M 305.148438 387.972656 L 304.582031 387.972656 C 304.582031 388.972656 305.398438 389.792969 306.410156 389.792969 L 309 389.792969 C 310.007812 389.792969 310.824219 388.972656 310.824219 387.972656 C 310.824219 386.964844 310.007812 386.144531 309 386.144531 L 306.410156 386.144531 C 305.398438 386.144531 304.582031 386.957031 304.582031 387.972656 L 305.714844 387.972656 C 305.714844 387.585938 306.023438 387.277344 306.410156 387.277344 L 309 387.277344 C 309.378906 387.277344 309.691406 387.585938 309.691406 387.972656 C 309.691406 388.351562 309.378906 388.660156 309 388.660156 L 306.410156 388.660156 C 306.027344 388.660156 305.714844 388.351562 305.714844 387.972656 L 305.148438 387.972656 " fill-opacity="1" fill-rule="nonzero"/><path fill="#ffffff" d="M 361.347656 272.253906 C 361.347656 275.082031 363.636719 277.371094 366.457031 277.371094 L 413.332031 277.371094 C 416.164062 277.371094 418.453125 275.082031 418.453125 272.253906 L 418.453125 225.386719 C 418.453125 222.5625 416.164062 220.273438 413.332031 220.273438 L 366.457031 220.273438 C 363.636719 220.273438 361.347656 222.5625 361.347656 225.386719 L 361.347656 272.253906 " fill-opacity="1" fill-rule="nonzero"/><g clip-path="url(#2f919fd9d6)"><path fill="#231f20" d="M 361.347656 272.253906 L 359.648438 272.253906 C 359.648438 276.015625 362.699219 279.066406 366.457031 279.066406 L 413.332031 279.066406 C 417.101562 279.066406 420.152344 276.015625 420.152344 272.253906 L 420.152344 225.386719 C 420.152344 221.625 417.101562 218.578125 413.332031 218.574219 L 366.457031 218.574219 C 362.699219 218.578125 359.648438 221.625 359.648438 225.386719 L 359.648438 272.253906 L 363.046875 272.253906 L 363.046875 225.386719 C 363.050781 223.503906 364.574219 221.972656 366.457031 221.96875 L 413.332031 221.96875 C 415.226562 221.972656 416.75 223.503906 416.753906 225.386719 L 416.753906 272.253906 C 416.75 274.144531 415.226562 275.667969 413.332031 275.671875 L 366.457031 275.671875 C 364.574219 275.667969 363.050781 274.144531 363.046875 272.253906 L 361.347656 272.253906 " fill-opacity="1" fill-rule="nonzero"/></g><path fill="#ffffff" d="M 398.539062 259.566406 C 400.304688 256.980469 401.441406 253.601562 401.625 249.882812 L 403.652344 249.882812 C 403.355469 253.789062 401.421875 257.238281 398.539062 259.566406 Z M 394.804688 260.761719 C 396.167969 258.101562 397.035156 254.285156 397.152344 249.882812 L 399.59375 249.882812 C 399.34375 254.519531 397.484375 258.527344 394.804688 260.761719 Z M 391.078125 262.1875 L 391.078125 249.882812 L 395.03125 249.882812 C 394.84375 256.175781 393.023438 260.808594 391.078125 262.1875 Z M 384.769531 249.882812 L 388.722656 249.882812 L 388.722656 262.1875 C 386.773438 260.808594 384.949219 256.175781 384.769531 249.882812 Z M 380.207031 249.882812 L 382.648438 249.882812 C 382.765625 254.285156 383.632812 258.101562 384.992188 260.761719 C 382.316406 258.527344 380.449219 254.519531 380.207031 249.882812 Z M 376.144531 249.882812 L 378.171875 249.882812 C 378.355469 253.601562 379.492188 256.980469 381.253906 259.566406 C 378.371094 257.238281 376.445312 253.789062 376.144531 249.882812 Z M 381.253906 238.078125 C 379.492188 240.664062 378.355469 244.035156 378.171875 247.757812 L 376.144531 247.757812 C 376.445312 243.855469 378.371094 240.398438 381.253906 238.078125 Z M 384.992188 236.878906 C 383.632812 239.535156 382.765625 243.355469 382.648438 247.757812 L 380.207031 247.757812 C 380.449219 243.121094 382.316406 239.117188 384.992188 236.878906 Z M 388.722656 235.460938 L 388.722656 247.757812 L 384.769531 247.757812 C 384.949219 241.46875 386.773438 236.835938 388.722656 235.460938 Z M 395.03125 247.757812 L 391.078125 247.757812 L 391.078125 235.460938 C 393.023438 236.835938 394.84375 241.46875 395.03125 247.757812 Z M 399.59375 247.757812 L 397.152344 247.757812 C 397.035156 243.355469 396.167969 239.535156 394.804688 236.878906 C 397.484375 239.117188 399.34375 243.121094 399.59375 247.757812 Z M 403.652344 247.757812 L 401.625 247.757812 C 401.441406 244.035156 400.304688 240.664062 398.539062 238.078125 C 401.421875 240.402344 403.355469 243.855469 403.652344 247.757812 Z M 389.898438 232.902344 C 381.121094 232.902344 373.976562 240.042969 373.976562 248.824219 C 373.976562 257.597656 381.121094 264.742188 389.898438 264.742188 C 398.679688 264.742188 405.816406 257.597656 405.816406 248.824219 C 405.816406 240.042969 398.679688 232.902344 389.898438 232.902344 " fill-opacity="1" fill-rule="nonzero"/><path fill="#231f20" d="M 398.539062 259.566406 L 399.007812 259.882812 C 400.839844 257.199219 402.003906 253.730469 402.1875 249.910156 L 401.625 249.882812 L 401.625 250.449219 L 403.652344 250.449219 L 403.652344 249.882812 L 403.089844 249.839844 C 402.800781 253.585938 400.953125 256.894531 398.1875 259.121094 L 398.539062 259.566406 L 399.007812 259.882812 L 398.539062 259.566406 L 398.894531 260.003906 C 401.894531 257.585938 403.902344 253.992188 404.21875 249.929688 L 404.261719 249.320312 L 401.085938 249.320312 L 401.0625 249.851562 C 400.882812 253.476562 399.773438 256.757812 398.078125 259.246094 L 395.914062 262.40625 L 398.894531 260.003906 Z M 394.804688 260.761719 L 395.308594 261.019531 C 396.71875 258.25 397.59375 254.371094 397.71875 249.898438 L 397.152344 249.882812 L 397.152344 250.449219 L 399.59375 250.449219 L 399.59375 249.882812 L 399.027344 249.851562 C 398.789062 254.363281 396.96875 258.226562 394.441406 260.328125 L 394.804688 260.761719 L 395.308594 261.019531 L 394.804688 260.761719 L 395.167969 261.195312 C 397.996094 258.828125 399.898438 254.683594 400.160156 249.914062 L 400.191406 249.320312 L 396.605469 249.320312 L 396.585938 249.867188 C 396.472656 254.207031 395.609375 257.953125 394.300781 260.507812 L 393.042969 262.972656 L 395.167969 261.195312 Z M 391.078125 262.1875 L 391.644531 262.1875 L 391.644531 250.445312 L 395.03125 250.449219 L 395.03125 249.882812 L 394.464844 249.867188 C 394.371094 252.960938 393.875 255.640625 393.179688 257.695312 C 392.484375 259.746094 391.554688 261.164062 390.75 261.722656 L 391.078125 262.1875 L 391.644531 262.1875 L 391.078125 262.1875 L 391.40625 262.644531 C 392.542969 261.828125 393.5 260.242188 394.25 258.058594 C 394.992188 255.878906 395.5 253.097656 395.597656 249.898438 L 395.609375 249.320312 L 390.511719 249.320312 L 390.511719 263.277344 L 391.40625 262.644531 Z M 384.769531 249.882812 L 384.769531 250.449219 L 388.15625 250.449219 L 388.15625 262.1875 L 388.722656 262.1875 L 389.050781 261.722656 C 388.238281 261.164062 387.3125 259.746094 386.617188 257.695312 C 385.917969 255.640625 385.425781 252.960938 385.332031 249.867188 L 384.769531 249.882812 L 384.769531 250.449219 L 384.769531 249.882812 L 384.203125 249.898438 C 384.296875 253.097656 384.804688 255.878906 385.546875 258.058594 C 386.300781 260.242188 387.253906 261.828125 388.394531 262.644531 L 389.289062 263.277344 L 389.289062 249.320312 L 384.1875 249.320312 L 384.203125 249.898438 Z M 380.207031 249.882812 L 380.207031 250.449219 L 382.648438 250.449219 L 382.648438 249.882812 L 382.082031 249.898438 C 382.199219 254.371094 383.078125 258.25 384.488281 261.019531 L 384.992188 260.761719 L 385.351562 260.328125 C 382.832031 258.226562 381.007812 254.359375 380.773438 249.851562 L 380.207031 249.882812 L 380.207031 250.449219 L 380.207031 249.882812 L 379.640625 249.914062 C 379.898438 254.683594 381.796875 258.828125 384.628906 261.195312 L 386.761719 262.984375 L 385.496094 260.507812 C 384.1875 257.953125 383.328125 254.207031 383.210938 249.867188 L 383.195312 249.320312 L 379.609375 249.320312 L 379.640625 249.914062 Z M 376.144531 249.882812 L 376.144531 250.449219 L 378.171875 250.449219 L 378.171875 249.882812 L 377.609375 249.910156 C 377.796875 253.730469 378.957031 257.199219 380.785156 259.882812 L 381.253906 259.566406 L 381.613281 259.121094 C 378.84375 256.894531 376.996094 253.585938 376.710938 249.839844 L 376.144531 249.882812 L 376.144531 250.449219 L 376.144531 249.882812 L 375.582031 249.929688 C 375.890625 253.992188 377.902344 257.589844 380.902344 260.003906 L 383.894531 262.421875 L 381.722656 259.246094 C 380.023438 256.757812 378.917969 253.476562 378.738281 249.851562 L 378.714844 249.320312 L 375.535156 249.320312 L 375.582031 249.929688 Z M 381.253906 238.078125 L 380.785156 237.757812 C 378.957031 240.4375 377.796875 243.914062 377.609375 247.730469 L 378.171875 247.757812 L 378.171875 247.191406 L 376.144531 247.191406 L 376.144531 247.757812 L 376.710938 247.800781 C 376.996094 244.0625 378.84375 240.746094 381.613281 238.519531 L 381.253906 238.078125 L 380.785156 237.757812 L 381.253906 238.078125 L 380.902344 237.636719 C 377.898438 240.054688 375.890625 243.652344 375.582031 247.714844 L 375.535156 248.324219 L 378.714844 248.324219 L 378.738281 247.789062 C 378.917969 244.164062 380.023438 240.882812 381.722656 238.394531 L 383.886719 235.230469 L 380.902344 237.636719 Z M 384.992188 236.878906 L 384.488281 236.617188 C 383.078125 239.386719 382.207031 243.269531 382.082031 247.746094 L 382.648438 247.757812 L 382.648438 247.191406 L 380.207031 247.191406 L 380.207031 247.757812 L 380.773438 247.789062 C 381.007812 243.28125 382.832031 239.414062 385.351562 237.3125 L 384.992188 236.878906 L 384.488281 236.617188 L 384.992188 236.878906 L 384.628906 236.441406 C 381.796875 238.816406 379.898438 242.957031 379.640625 247.726562 L 379.609375 248.324219 L 383.195312 248.324219 L 383.210938 247.777344 C 383.328125 243.433594 384.1875 239.6875 385.496094 237.136719 L 386.761719 234.660156 L 384.628906 236.441406 Z M 388.722656 235.460938 L 388.15625 235.460938 L 388.15625 247.191406 L 384.769531 247.191406 L 384.769531 247.757812 L 385.332031 247.777344 C 385.425781 244.679688 385.917969 242.003906 386.617188 239.949219 C 387.3125 237.894531 388.238281 236.480469 389.050781 235.921875 L 388.722656 235.460938 L 388.15625 235.460938 L 388.722656 235.460938 L 388.394531 234.996094 C 387.253906 235.8125 386.300781 237.402344 385.546875 239.585938 C 384.804688 241.765625 384.296875 244.542969 384.203125 247.742188 L 384.179688 248.324219 L 389.289062 248.324219 L 389.289062 234.367188 L 388.394531 234.996094 Z M 395.03125 247.757812 L 395.03125 247.191406 L 391.644531 247.191406 L 391.644531 235.460938 L 391.078125 235.460938 L 390.75 235.921875 C 391.554688 236.476562 392.484375 237.894531 393.179688 239.949219 C 393.875 242.003906 394.371094 244.679688 394.464844 247.777344 L 395.03125 247.757812 L 395.03125 247.191406 L 395.03125 247.757812 L 395.597656 247.742188 C 395.5 244.542969 394.992188 241.765625 394.25 239.585938 C 393.5 237.40625 392.546875 235.820312 391.40625 234.996094 L 390.511719 234.367188 L 390.511719 248.324219 L 395.613281 248.324219 L 395.597656 247.742188 Z M 399.59375 247.757812 L 399.59375 247.191406 L 397.152344 247.191406 L 397.152344 247.757812 L 397.71875 247.746094 C 397.59375 243.269531 396.71875 239.386719 395.308594 236.617188 L 394.804688 236.878906 L 394.441406 237.3125 C 396.96875 239.414062 398.789062 243.28125 399.027344 247.789062 L 399.59375 247.757812 L 399.59375 247.191406 L 399.59375 247.757812 L 400.160156 247.726562 C 399.898438 242.957031 397.996094 238.816406 395.167969 236.441406 L 393.042969 234.667969 L 394.300781 237.136719 C 395.609375 239.6875 396.472656 243.433594 396.585938 247.777344 L 396.605469 248.324219 L 400.191406 248.324219 L 400.160156 247.726562 Z M 403.652344 247.757812 L 403.652344 247.191406 L 401.625 247.191406 L 401.625 247.757812 L 402.1875 247.730469 C 402.003906 243.914062 400.839844 240.4375 399.007812 237.757812 L 398.539062 238.078125 L 398.1875 238.519531 C 400.949219 240.746094 402.800781 244.0625 403.089844 247.800781 L 403.652344 247.757812 L 403.652344 247.191406 L 403.652344 247.757812 L 404.21875 247.714844 C 403.902344 243.652344 401.894531 240.054688 398.894531 237.636719 L 395.933594 235.253906 L 398.078125 238.394531 C 399.773438 240.882812 400.882812 244.164062 401.0625 247.789062 L 401.085938 248.324219 L 404.265625 248.324219 L 404.21875 247.714844 Z M 389.898438 232.902344 L 389.898438 232.335938 C 380.808594 232.339844 373.417969 239.730469 373.414062 248.824219 C 373.414062 257.910156 380.808594 265.300781 389.898438 265.308594 C 398.992188 265.300781 406.382812 257.910156 406.382812 248.824219 C 406.382812 239.730469 398.992188 232.339844 389.898438 232.335938 L 389.898438 233.46875 C 394.132812 233.46875 397.964844 235.1875 400.75 237.972656 C 403.53125 240.75 405.25 244.589844 405.25 248.824219 C 405.25 253.054688 403.53125 256.890625 400.75 259.671875 C 397.964844 262.453125 394.132812 264.175781 389.898438 264.175781 C 385.667969 264.175781 381.828125 262.453125 379.050781 259.671875 C 376.265625 256.890625 374.542969 253.054688 374.542969 248.824219 C 374.542969 244.589844 376.265625 240.75 379.050781 237.972656 C 381.828125 235.1875 385.667969 233.46875 389.898438 233.46875 L 389.898438 232.902344 " fill-opacity="1" fill-rule="nonzero"/></svg>