<svg xmlns="http://www.w3.org/2000/svg" xmlns:xlink="http://www.w3.org/1999/xlink" width="1366" zoomAndPan="magnify" viewBox="0 0 1024.5 576" height="768" preserveAspectRatio="xMidYMid meet" version="1.0"><defs><g/><clipPath id="a1a027f871"><path d="M 244 37.050781 L 779.953125 37.050781 L 779.953125 539 L 244 539 Z M 244 37.050781 " clip-rule="nonzero"/></clipPath><clipPath id="5f31e9530f"><path d="M 243.964844 104.519531 L 243.964844 471.480469 C 243.964844 508.742188 274.167969 538.949219 311.429688 538.949219 L 712.570312 538.949219 C 749.832031 538.949219 780.035156 508.742188 780.035156 471.480469 L 780.035156 104.519531 C 780.035156 67.257812 749.832031 37.050781 712.570312 37.050781 L 311.429688 37.050781 C 274.167969 37.050781 243.964844 67.257812 243.964844 104.519531 Z M 243.964844 104.519531 " clip-rule="nonzero"/></clipPath><clipPath id="2729c3f956"><path d="M 273.507812 65.1875 L 749.800781 65.1875 L 749.800781 511.566406 L 273.507812 511.566406 Z M 273.507812 65.1875 " clip-rule="nonzero"/></clipPath><clipPath id="af908c8113"><path d="M 243.964844 104.519531 L 243.964844 471.480469 C 243.964844 508.742188 274.167969 538.949219 311.429688 538.949219 L 712.570312 538.949219 C 749.832031 538.949219 780.035156 508.742188 780.035156 471.480469 L 780.035156 104.519531 C 780.035156 67.257812 749.832031 37.050781 712.570312 37.050781 L 311.429688 37.050781 C 274.167969 37.050781 243.964844 67.257812 243.964844 104.519531 Z M 243.964844 104.519531 " clip-rule="nonzero"/></clipPath><clipPath id="4c36d3c373"><path d="M 299.589844 89.210938 L 723.722656 89.210938 L 723.722656 486.957031 L 299.589844 486.957031 Z M 299.589844 89.210938 " clip-rule="nonzero"/></clipPath><clipPath id="de95e72e6d"><path d="M 243.964844 104.519531 L 243.964844 471.480469 C 243.964844 508.742188 274.167969 538.949219 311.429688 538.949219 L 712.570312 538.949219 C 749.832031 538.949219 780.035156 508.742188 780.035156 471.480469 L 780.035156 104.519531 C 780.035156 67.257812 749.832031 37.050781 712.570312 37.050781 L 311.429688 37.050781 C 274.167969 37.050781 243.964844 67.257812 243.964844 104.519531 Z M 243.964844 104.519531 " clip-rule="nonzero"/></clipPath><clipPath id="8c924b2d86"><path d="M 324.296875 112.542969 L 699.703125 112.542969 L 699.703125 463.839844 L 324.296875 463.839844 Z M 324.296875 112.542969 " clip-rule="nonzero"/></clipPath><clipPath id="9ffc6029ec"><path d="M 243.964844 104.519531 L 243.964844 471.480469 C 243.964844 508.742188 274.167969 538.949219 311.429688 538.949219 L 712.570312 538.949219 C 749.832031 538.949219 780.035156 508.742188 780.035156 471.480469 L 780.035156 104.519531 C 780.035156 67.257812 749.832031 37.050781 712.570312 37.050781 L 311.429688 37.050781 C 274.167969 37.050781 243.964844 67.257812 243.964844 104.519531 Z M 243.964844 104.519531 " clip-rule="nonzero"/></clipPath><clipPath id="a0aa53b50e"><path d="M 345 132 L 678.425781 132 L 678.425781 444.339844 L 345 444.339844 Z M 345 132 " clip-rule="nonzero"/></clipPath><clipPath id="2e0b43bf90"><path d="M 243.964844 104.519531 L 243.964844 471.480469 C 243.964844 508.742188 274.167969 538.949219 311.429688 538.949219 L 712.570312 538.949219 C 749.832031 538.949219 780.035156 508.742188 780.035156 471.480469 L 780.035156 104.519531 C 780.035156 67.257812 749.832031 37.050781 712.570312 37.050781 L 311.429688 37.050781 C 274.167969 37.050781 243.964844 67.257812 243.964844 104.519531 Z M 243.964844 104.519531 " clip-rule="nonzero"/></clipPath><clipPath id="992e435209"><path d="M 363.414062 148.917969 L 660.582031 148.917969 L 660.582031 427.375 L 363.414062 427.375 Z M 363.414062 148.917969 " clip-rule="nonzero"/></clipPath><clipPath id="e95c6807ca"><path d="M 243.964844 104.519531 L 243.964844 471.480469 C 243.964844 508.742188 274.167969 538.949219 311.429688 538.949219 L 712.570312 538.949219 C 749.832031 538.949219 780.035156 508.742188 780.035156 471.480469 L 780.035156 104.519531 C 780.035156 67.257812 749.832031 37.050781 712.570312 37.050781 L 311.429688 37.050781 C 274.167969 37.050781 243.964844 67.257812 243.964844 104.519531 Z M 243.964844 104.519531 " clip-rule="nonzero"/></clipPath><clipPath id="fc2f4bcc1a"><path d="M 381.945312 166.074219 L 642.738281 166.074219 L 642.738281 409.707031 L 381.945312 409.707031 Z M 381.945312 166.074219 " clip-rule="nonzero"/></clipPath><clipPath id="fa24acf58c"><path d="M 243.964844 104.519531 L 243.964844 471.480469 C 243.964844 508.742188 274.167969 538.949219 311.429688 538.949219 L 712.570312 538.949219 C 749.832031 538.949219 780.035156 508.742188 780.035156 471.480469 L 780.035156 104.519531 C 780.035156 67.257812 749.832031 37.050781 712.570312 37.050781 L 311.429688 37.050781 C 274.167969 37.050781 243.964844 67.257812 243.964844 104.519531 Z M 243.964844 104.519531 " clip-rule="nonzero"/></clipPath><clipPath id="3a3e5cd45a"><path d="M 396 179 L 628 179 L 628 396 L 396 396 Z M 396 179 " clip-rule="nonzero"/></clipPath><clipPath id="f2ad572238"><path d="M 243.964844 104.519531 L 243.964844 471.480469 C 243.964844 508.742188 274.167969 538.949219 311.429688 538.949219 L 712.570312 538.949219 C 749.832031 538.949219 780.035156 508.742188 780.035156 471.480469 L 780.035156 104.519531 C 780.035156 67.257812 749.832031 37.050781 712.570312 37.050781 L 311.429688 37.050781 C 274.167969 37.050781 243.964844 67.257812 243.964844 104.519531 Z M 243.964844 104.519531 " clip-rule="nonzero"/></clipPath><clipPath id="18bf4b2de5"><path d="M 409 191 L 615.289062 191 L 615.289062 384.679688 L 409 384.679688 Z M 409 191 " clip-rule="nonzero"/></clipPath><clipPath id="ff6afb6612"><path d="M 243.964844 104.519531 L 243.964844 471.480469 C 243.964844 508.742188 274.167969 538.949219 311.429688 538.949219 L 712.570312 538.949219 C 749.832031 538.949219 780.035156 508.742188 780.035156 471.480469 L 780.035156 104.519531 C 780.035156 67.257812 749.832031 37.050781 712.570312 37.050781 L 311.429688 37.050781 C 274.167969 37.050781 243.964844 67.257812 243.964844 104.519531 Z M 243.964844 104.519531 " clip-rule="nonzero"/></clipPath><clipPath id="4645ef5afc"><path d="M 424 205.195312 L 600.1875 205.195312 L 600.1875 370.125 L 424 370.125 Z M 424 205.195312 " clip-rule="nonzero"/></clipPath><clipPath id="a45ac9a07a"><path d="M 243.964844 104.519531 L 243.964844 471.480469 C 243.964844 508.742188 274.167969 538.949219 311.429688 538.949219 L 712.570312 538.949219 C 749.832031 538.949219 780.035156 508.742188 780.035156 471.480469 L 780.035156 104.519531 C 780.035156 67.257812 749.832031 37.050781 712.570312 37.050781 L 311.429688 37.050781 C 274.167969 37.050781 243.964844 67.257812 243.964844 104.519531 Z M 243.964844 104.519531 " clip-rule="nonzero"/></clipPath><clipPath id="a47b4fdfce"><path d="M 434 214.117188 L 590.582031 214.117188 L 590.582031 360.792969 L 434 360.792969 Z M 434 214.117188 " clip-rule="nonzero"/></clipPath><clipPath id="9b266b1979"><path d="M 243.964844 104.519531 L 243.964844 471.480469 C 243.964844 508.742188 274.167969 538.949219 311.429688 538.949219 L 712.570312 538.949219 C 749.832031 538.949219 780.035156 508.742188 780.035156 471.480469 L 780.035156 104.519531 C 780.035156 67.257812 749.832031 37.050781 712.570312 37.050781 L 311.429688 37.050781 C 274.167969 37.050781 243.964844 67.257812 243.964844 104.519531 Z M 243.964844 104.519531 " clip-rule="nonzero"/></clipPath><clipPath id="94e756234b"><path d="M 442.339844 222.351562 L 581.660156 222.351562 L 581.660156 352.8125 L 442.339844 352.8125 Z M 442.339844 222.351562 " clip-rule="nonzero"/></clipPath><clipPath id="b94c208672"><path d="M 243.964844 104.519531 L 243.964844 471.480469 C 243.964844 508.742188 274.167969 538.949219 311.429688 538.949219 L 712.570312 538.949219 C 749.832031 538.949219 780.035156 508.742188 780.035156 471.480469 L 780.035156 104.519531 C 780.035156 67.257812 749.832031 37.050781 712.570312 37.050781 L 311.429688 37.050781 C 274.167969 37.050781 243.964844 67.257812 243.964844 104.519531 Z M 243.964844 104.519531 " clip-rule="nonzero"/></clipPath></defs><g clip-path="url(#a1a027f871)"><g clip-path="url(#5f31e9530f)"><path fill="#737373" d="M 511.230469 538.960938 C 510.195312 538.960938 509.28125 538.34375 508.453125 537.6875 C 482.066406 516.816406 455.546875 493.976562 429.632812 469.800781 C 396.988281 439.332031 369.0625 410.285156 344.261719 380.992188 C 309.957031 340.480469 285.742188 304.738281 268.058594 268.5 C 256.066406 243.933594 248.527344 220.695312 245.015625 197.460938 C 244.160156 191.785156 244.171875 186.164062 244.183594 179.65625 C 244.1875 177.507812 244.195312 175.269531 244.164062 172.921875 C 242.890625 148.195312 250.042969 122.875 264.847656 99.714844 C 283.824219 70.011719 310.625 50.636719 344.5 42.121094 C 356.3125 39.15625 367.984375 37.652344 379.203125 37.652344 C 409.679688 37.652344 438.023438 48.671875 463.449219 70.410156 C 482.652344 86.828125 497.789062 109.035156 509.726562 138.289062 C 510.207031 139.488281 510.726562 140.667969 511.25 141.851562 L 511.4375 142.28125 C 511.855469 141.570312 512.101562 140.765625 512.359375 139.925781 C 512.523438 139.402344 512.683594 138.878906 512.890625 138.375 C 526.917969 103.632812 546.230469 78.1875 571.929688 60.582031 C 597.089844 43.339844 625.113281 35.808594 655.070312 38.21875 C 689.210938 40.960938 718.5 54.847656 742.140625 79.503906 C 760.714844 98.886719 772.515625 122.730469 777.214844 150.375 C 781.78125 177.183594 778.945312 204.949219 768.542969 235.25 C 760.140625 259.765625 747.527344 284.925781 729.984375 312.167969 C 712.507812 339.296875 691.652344 366.382812 666.230469 394.976562 C 628.097656 437.886719 585.847656 478.425781 537.074219 518.898438 C 533.4375 521.917969 529.691406 524.921875 526.066406 527.832031 C 522.054688 531.050781 517.90625 534.378906 513.890625 537.738281 C 512.882812 538.582031 512.0625 538.960938 511.230469 538.960938 Z M 379.203125 38.789062 C 368.078125 38.789062 356.5 40.28125 344.78125 43.222656 C 311.191406 51.664062 284.621094 70.878906 265.808594 100.328125 C 251.132812 123.285156 244.042969 148.375 245.300781 172.886719 C 245.332031 175.261719 245.324219 177.503906 245.324219 179.660156 C 245.308594 186.121094 245.296875 191.703125 246.144531 197.292969 C 249.636719 220.410156 257.140625 243.542969 269.082031 268 C 286.722656 304.152344 310.886719 339.820312 345.132812 380.257812 C 369.898438 409.515625 397.792969 438.535156 430.410156 468.972656 C 456.300781 493.125 482.796875 515.945312 509.160156 536.796875 C 510.078125 537.523438 510.675781 537.824219 511.234375 537.824219 C 511.777344 537.824219 512.371094 537.527344 513.160156 536.867188 C 517.1875 533.503906 521.339844 530.171875 525.355469 526.945312 C 528.976562 524.039062 532.71875 521.039062 536.347656 518.023438 C 585.078125 477.585938 627.285156 437.09375 665.382812 394.226562 C 690.765625 365.671875 711.582031 338.632812 729.027344 311.550781 C 746.519531 284.386719 759.09375 259.308594 767.46875 234.878906 C 777.808594 204.761719 780.628906 177.183594 776.09375 150.566406 C 771.433594 123.148438 759.734375 99.503906 741.320312 80.289062 C 717.882812 55.84375 688.832031 42.070312 654.984375 39.351562 C 625.289062 36.953125 597.519531 44.425781 572.574219 61.523438 C 547.066406 78.992188 527.886719 104.269531 513.945312 138.796875 C 513.753906 139.273438 513.601562 139.769531 513.445312 140.261719 C 513.070312 141.480469 512.683594 142.738281 511.734375 143.792969 L 511.144531 144.453125 L 510.207031 142.308594 C 509.683594 141.117188 509.160156 139.921875 508.671875 138.71875 C 496.640625 109.226562 482.039062 87.796875 462.710938 71.273438 C 437.496094 49.71875 409.398438 38.789062 379.203125 38.789062 Z M 379.203125 38.789062 " fill-opacity="1" fill-rule="nonzero"/></g></g><g clip-path="url(#2729c3f956)"><g clip-path="url(#af908c8113)"><path fill="#737373" d="M 511.230469 511.410156 C 510.308594 511.410156 509.5 510.867188 508.761719 510.28125 C 485.324219 491.714844 461.769531 471.394531 438.753906 449.890625 C 409.753906 422.785156 384.949219 396.945312 362.921875 370.886719 C 332.449219 334.851562 310.941406 303.054688 295.230469 270.820312 C 284.582031 248.964844 277.882812 228.292969 274.765625 207.625 C 274.003906 202.574219 274.011719 197.574219 274.027344 191.785156 C 274.03125 189.875 274.035156 187.882812 274.007812 185.796875 C 272.878906 163.800781 279.230469 141.273438 292.378906 120.671875 C 309.238281 94.25 333.039062 77.011719 363.132812 69.4375 C 373.625 66.800781 383.992188 65.460938 393.957031 65.460938 C 421.027344 65.460938 446.207031 75.265625 468.789062 94.605469 C 485.84375 109.210938 499.289062 128.960938 509.890625 154.988281 C 510.324219 156.050781 510.785156 157.105469 511.246094 158.15625 L 511.410156 158.535156 C 511.785156 157.902344 512.003906 157.191406 512.234375 156.445312 C 512.375 155.980469 512.523438 155.511719 512.703125 155.0625 C 525.164062 124.15625 542.316406 101.523438 565.144531 85.863281 C 587.496094 70.519531 612.386719 63.820312 638.996094 65.964844 C 669.320312 68.40625 695.335938 80.761719 716.335938 102.695312 C 732.832031 119.933594 743.316406 141.144531 747.492188 165.742188 C 751.546875 189.589844 749.027344 214.285156 739.789062 241.242188 C 732.324219 263.046875 721.121094 285.429688 705.539062 309.664062 C 690.011719 333.796875 671.492188 357.894531 648.90625 383.332031 C 615.039062 421.503906 577.511719 457.5625 534.1875 493.566406 C 530.957031 496.25 527.625 498.925781 524.410156 501.511719 C 520.847656 504.378906 517.160156 507.339844 513.589844 510.328125 C 512.695312 511.078125 511.96875 511.410156 511.230469 511.410156 Z M 393.957031 66.472656 C 384.074219 66.472656 373.789062 67.800781 363.378906 70.417969 C 333.542969 77.929688 309.945312 95.019531 293.234375 121.21875 C 280.199219 141.640625 273.898438 163.960938 275.019531 185.765625 C 275.042969 187.878906 275.039062 189.871094 275.035156 191.789062 C 275.023438 197.539062 275.011719 202.503906 275.765625 207.476562 C 278.867188 228.039062 285.53125 248.617188 296.140625 270.378906 C 311.8125 302.535156 333.277344 334.265625 363.695312 370.238281 C 385.691406 396.261719 410.46875 422.078125 439.441406 449.152344 C 462.441406 470.640625 485.972656 490.941406 509.390625 509.484375 C 510.207031 510.136719 510.738281 510.398438 511.234375 510.398438 C 511.71875 510.398438 512.242188 510.140625 512.945312 509.554688 C 516.523438 506.558594 520.207031 503.59375 523.777344 500.726562 C 526.992188 498.140625 530.316406 495.46875 533.539062 492.789062 C 576.828125 456.816406 614.316406 420.792969 648.15625 382.660156 C 670.699219 357.261719 689.191406 333.207031 704.6875 309.117188 C 720.226562 284.953125 731.394531 262.644531 738.835938 240.910156 C 748.019531 214.121094 750.523438 189.585938 746.496094 165.910156 C 742.355469 141.519531 731.964844 120.484375 715.609375 103.390625 C 694.789062 81.644531 668.984375 69.394531 638.917969 66.976562 C 612.542969 64.839844 587.875 71.488281 565.71875 86.699219 C 543.058594 102.238281 526.023438 124.726562 513.640625 155.441406 C 513.46875 155.863281 513.335938 156.304688 513.199219 156.742188 C 512.863281 157.824219 512.519531 158.945312 511.679688 159.882812 L 511.152344 160.46875 L 510.324219 158.5625 C 509.855469 157.503906 509.390625 156.4375 508.957031 155.367188 C 498.269531 129.136719 485.300781 110.070312 468.132812 95.375 C 445.734375 76.195312 420.78125 66.472656 393.957031 66.472656 Z M 393.957031 66.472656 " fill-opacity="1" fill-rule="nonzero"/></g></g><g clip-path="url(#4c36d3c373)"><g clip-path="url(#de95e72e6d)"><path fill="#737373" d="M 511.335938 486.820312 C 510.515625 486.820312 509.792969 486.332031 509.136719 485.8125 C 488.242188 469.273438 467.246094 451.175781 446.726562 432.015625 C 420.878906 407.875 398.765625 384.851562 379.132812 361.640625 C 351.96875 329.539062 332.796875 301.214844 318.792969 272.496094 C 309.300781 253.027344 303.332031 234.617188 300.550781 216.203125 C 299.871094 211.707031 299.882812 207.253906 299.890625 202.09375 C 299.894531 200.390625 299.898438 198.617188 299.875 196.761719 C 298.867188 177.167969 304.53125 157.101562 316.253906 138.746094 C 331.277344 115.210938 352.5 99.851562 379.324219 93.109375 C 388.675781 90.757812 397.917969 89.566406 406.796875 89.566406 C 430.925781 89.566406 453.371094 98.300781 473.5 115.523438 C 488.703125 128.535156 500.691406 146.132812 510.140625 169.316406 C 510.527344 170.261719 510.9375 171.203125 511.351562 172.136719 L 511.496094 172.476562 C 511.828125 171.914062 512.023438 171.277344 512.230469 170.613281 C 512.359375 170.199219 512.488281 169.78125 512.648438 169.382812 C 523.753906 141.851562 539.046875 121.6875 559.394531 107.738281 C 579.316406 94.074219 601.503906 88.101562 625.226562 90.015625 C 652.257812 92.1875 675.449219 103.195312 694.167969 122.730469 C 708.871094 138.089844 718.214844 156.984375 721.9375 178.894531 C 725.554688 200.136719 723.308594 222.136719 715.070312 246.148438 C 708.417969 265.574219 698.429688 285.515625 684.542969 307.101562 C 670.703125 328.601562 654.191406 350.066406 634.0625 372.722656 C 603.871094 406.726562 570.417969 438.851562 531.796875 470.925781 C 528.917969 473.316406 525.949219 475.699219 523.082031 478 C 519.90625 480.554688 516.621094 483.191406 513.4375 485.855469 C 512.640625 486.523438 511.992188 486.820312 511.335938 486.820312 Z M 406.796875 90.46875 C 397.988281 90.46875 388.820312 91.648438 379.539062 93.980469 C 352.949219 100.671875 331.910156 115.894531 317.011719 139.234375 C 305.394531 157.425781 299.777344 177.308594 300.777344 196.730469 C 300.796875 198.617188 300.796875 200.390625 300.792969 202.097656 C 300.78125 207.21875 300.769531 211.640625 301.441406 216.070312 C 304.207031 234.390625 310.148438 252.722656 319.605469 272.105469 C 333.574219 300.75 352.707031 329.015625 379.820312 361.058594 C 399.429688 384.242188 421.515625 407.242188 447.34375 431.359375 C 467.84375 450.5 488.820312 468.582031 509.695312 485.105469 C 510.421875 485.683594 510.898438 485.917969 511.339844 485.917969 C 511.769531 485.917969 512.238281 485.683594 512.863281 485.164062 C 516.050781 482.496094 519.339844 479.855469 522.519531 477.300781 C 525.382812 474.996094 528.347656 472.617188 531.21875 470.230469 C 569.804688 438.1875 603.226562 406.097656 633.386719 372.125 C 653.488281 349.503906 669.972656 328.074219 683.78125 306.613281 C 697.636719 285.089844 707.589844 265.214844 714.222656 245.859375 C 722.40625 221.988281 724.640625 200.136719 721.050781 179.042969 C 717.359375 157.316406 708.097656 138.582031 693.515625 123.351562 C 674.957031 103.980469 651.957031 93.066406 625.15625 90.910156 C 601.644531 89.011719 579.65625 94.933594 559.90625 108.484375 C 539.707031 122.328125 524.523438 142.359375 513.484375 169.71875 C 513.332031 170.09375 513.210938 170.488281 513.089844 170.875 C 512.792969 171.84375 512.484375 172.839844 511.734375 173.675781 L 511.265625 174.199219 L 510.527344 172.5 C 510.113281 171.554688 509.695312 170.609375 509.308594 169.65625 C 499.78125 146.285156 488.21875 129.300781 472.917969 116.207031 C 452.953125 99.128906 430.707031 90.46875 406.796875 90.46875 Z M 406.796875 90.46875 " fill-opacity="1" fill-rule="nonzero"/></g></g><g clip-path="url(#8c924b2d86)"><g clip-path="url(#9ffc6029ec)"><path fill="#737373" d="M 511.566406 463.714844 C 510.839844 463.714844 510.199219 463.285156 509.617188 462.824219 C 491.144531 448.207031 472.578125 432.210938 454.4375 415.277344 C 431.582031 393.9375 412.03125 373.589844 394.671875 353.074219 C 370.652344 324.703125 353.699219 299.664062 341.320312 274.285156 C 332.925781 257.078125 327.648438 240.804688 325.1875 224.527344 C 324.585938 220.554688 324.597656 216.617188 324.605469 212.058594 C 324.609375 210.554688 324.613281 208.988281 324.59375 207.34375 C 323.699219 190.023438 328.707031 172.289062 339.074219 156.070312 C 352.355469 135.265625 371.121094 121.695312 394.835938 115.730469 C 403.105469 113.652344 411.277344 112.601562 419.132812 112.601562 C 440.46875 112.601562 460.3125 120.320312 478.109375 135.546875 C 491.554688 147.042969 502.152344 162.59375 510.507812 183.085938 C 510.847656 183.925781 511.210938 184.753906 511.574219 185.582031 L 511.707031 185.882812 C 512 185.382812 512.171875 184.820312 512.355469 184.234375 C 512.46875 183.867188 512.582031 183.5 512.722656 183.148438 C 522.546875 158.8125 536.066406 140.992188 554.058594 128.660156 C 571.671875 116.585938 591.292969 111.308594 612.265625 112.996094 C 636.164062 114.917969 656.671875 124.644531 673.21875 141.914062 C 686.226562 155.488281 694.488281 172.1875 697.777344 191.550781 C 700.976562 210.328125 698.988281 229.777344 691.707031 250.996094 C 685.824219 268.167969 676.992188 285.792969 664.710938 304.871094 C 652.476562 323.871094 637.875 342.84375 620.078125 362.871094 C 593.382812 392.925781 563.804688 421.316406 529.65625 449.664062 C 527.109375 451.777344 524.488281 453.886719 521.949219 455.921875 C 519.140625 458.175781 516.238281 460.507812 513.425781 462.859375 C 512.71875 463.453125 512.144531 463.714844 511.566406 463.714844 Z M 419.132812 113.398438 C 411.34375 113.398438 403.234375 114.441406 395.03125 116.5 C 371.515625 122.414062 352.917969 135.871094 339.746094 156.5 C 329.46875 172.578125 324.503906 190.152344 325.386719 207.320312 C 325.40625 208.984375 325.40625 210.554688 325.402344 212.0625 C 325.390625 216.589844 325.382812 220.496094 325.976562 224.410156 C 328.425781 240.601562 333.675781 256.804688 342.035156 273.9375 C 354.386719 299.257812 371.304688 324.242188 395.28125 352.5625 C 412.617188 373.054688 432.148438 393.378906 454.980469 414.695312 C 473.109375 431.613281 491.65625 447.59375 510.113281 462.199219 C 510.753906 462.710938 511.175781 462.917969 511.566406 462.917969 C 511.949219 462.917969 512.363281 462.710938 512.914062 462.25 C 515.734375 459.894531 518.640625 457.558594 521.453125 455.304688 C 523.988281 453.265625 526.605469 451.164062 529.148438 449.054688 C 563.265625 420.730469 592.8125 392.367188 619.484375 362.34375 C 637.253906 342.347656 651.828125 323.40625 664.042969 304.441406 C 676.289062 285.414062 685.089844 267.847656 690.953125 250.738281 C 698.191406 229.644531 700.167969 210.328125 696.996094 191.6875 C 693.730469 172.480469 685.539062 155.921875 672.648438 142.460938 C 656.238281 125.339844 635.902344 115.695312 612.203125 113.789062 C 591.417969 112.109375 571.972656 117.34375 554.507812 129.316406 C 536.648438 141.554688 523.222656 159.261719 513.460938 183.445312 C 513.328125 183.777344 513.222656 184.121094 513.113281 184.46875 C 512.851562 185.320312 512.582031 186.199219 511.917969 186.941406 L 511.503906 187.402344 L 510.847656 185.902344 C 510.480469 185.066406 510.113281 184.230469 509.769531 183.386719 C 501.351562 162.730469 491.125 147.722656 477.59375 136.148438 C 459.941406 121.050781 440.273438 113.398438 419.132812 113.398438 Z M 419.132812 113.398438 " fill-opacity="1" fill-rule="nonzero"/></g></g><g clip-path="url(#a0aa53b50e)"><g clip-path="url(#2e0b43bf90)"><path fill="#737373" d="M 511.542969 444.230469 C 510.898438 444.230469 510.328125 443.851562 509.8125 443.441406 C 493.40625 430.441406 476.917969 416.222656 460.804688 401.167969 C 440.503906 382.195312 423.140625 364.105469 407.722656 345.863281 C 386.390625 320.640625 371.335938 298.382812 360.34375 275.816406 C 352.882812 260.519531 348.199219 246.046875 346.015625 231.578125 C 345.484375 228.046875 345.488281 224.546875 345.496094 220.496094 C 345.5 219.152344 345.503906 217.761719 345.484375 216.300781 C 344.695312 200.902344 349.140625 185.132812 358.34375 170.714844 C 370.144531 152.21875 386.808594 140.152344 407.871094 134.847656 C 415.21875 133.003906 422.472656 132.066406 429.445312 132.066406 C 448.398438 132.066406 466.023438 138.933594 481.832031 152.46875 C 493.769531 162.691406 503.179688 176.515625 510.605469 194.734375 C 510.90625 195.480469 511.226562 196.214844 511.550781 196.953125 L 511.667969 197.21875 C 511.925781 196.777344 512.082031 196.273438 512.242188 195.753906 C 512.34375 195.429688 512.445312 195.101562 512.570312 194.789062 C 521.292969 173.152344 533.300781 157.308594 549.28125 146.347656 C 564.925781 135.609375 582.351562 130.917969 600.976562 132.417969 C 622.203125 134.128906 640.414062 142.777344 655.113281 158.128906 C 666.664062 170.199219 674 185.046875 676.921875 202.261719 C 679.765625 218.957031 677.996094 236.246094 671.53125 255.113281 C 666.308594 270.378906 658.460938 286.042969 647.558594 303.007812 C 636.6875 319.902344 623.722656 336.769531 607.914062 354.574219 C 584.207031 381.296875 557.933594 406.535156 527.609375 431.742188 C 525.347656 433.621094 523.015625 435.492188 520.765625 437.304688 C 518.269531 439.308594 515.691406 441.382812 513.191406 443.472656 C 512.566406 443.996094 512.058594 444.230469 511.542969 444.230469 Z M 429.445312 132.777344 C 422.53125 132.777344 415.332031 133.703125 408.046875 135.535156 C 387.160156 140.792969 370.640625 152.757812 358.941406 171.097656 C 349.816406 185.390625 345.410156 201.015625 346.191406 216.28125 C 346.207031 217.761719 346.207031 219.152344 346.203125 220.496094 C 346.195312 224.519531 346.1875 227.996094 346.714844 231.476562 C 348.886719 245.871094 353.550781 260.277344 360.976562 275.503906 C 371.949219 298.015625 386.972656 320.226562 408.261719 345.410156 C 423.664062 363.628906 441.007812 381.695312 461.289062 400.652344 C 477.386719 415.691406 493.859375 429.898438 510.253906 442.886719 C 510.820312 443.339844 511.199219 443.523438 511.542969 443.523438 C 511.882812 443.523438 512.25 443.339844 512.742188 442.929688 C 515.242188 440.835938 517.824219 438.757812 520.324219 436.75 C 522.574219 434.941406 524.902344 433.074219 527.15625 431.195312 C 557.457031 406.015625 583.703125 380.800781 607.386719 354.105469 C 623.167969 336.328125 636.113281 319.488281 646.960938 302.625 C 657.835938 285.710938 665.65625 270.09375 670.863281 254.882812 C 677.292969 236.128906 679.046875 218.957031 676.226562 202.378906 C 673.328125 185.304688 666.054688 170.582031 654.605469 158.617188 C 640.03125 143.394531 621.96875 134.816406 600.921875 133.125 C 582.460938 131.632812 565.191406 136.285156 549.679688 146.929688 C 533.820312 157.808594 521.898438 173.550781 513.226562 195.054688 C 513.109375 195.347656 513.015625 195.65625 512.917969 195.960938 C 512.683594 196.71875 512.445312 197.503906 511.855469 198.160156 L 511.488281 198.570312 L 510.90625 197.238281 C 510.578125 196.496094 510.253906 195.75 509.949219 195 C 502.46875 176.636719 493.386719 163.292969 481.371094 153.003906 C 465.695312 139.582031 448.222656 132.777344 429.445312 132.777344 Z M 429.445312 132.777344 " fill-opacity="1" fill-rule="nonzero"/></g></g><g clip-path="url(#992e435209)"><g clip-path="url(#e95c6807ca)"><path fill="#737373" d="M 511.796875 427.277344 C 511.222656 427.277344 510.714844 426.9375 510.253906 426.570312 C 495.609375 414.984375 480.894531 402.300781 466.515625 388.878906 C 448.398438 371.964844 432.902344 355.835938 419.140625 339.570312 C 400.105469 317.078125 386.667969 297.234375 376.855469 277.113281 C 370.199219 263.472656 366.019531 250.570312 364.070312 237.671875 C 363.589844 234.519531 363.601562 231.398438 363.609375 227.785156 C 363.609375 226.589844 363.609375 225.347656 363.597656 224.046875 C 362.890625 210.316406 366.859375 196.257812 375.074219 183.402344 C 385.605469 166.910156 400.476562 156.152344 419.277344 151.421875 C 425.828125 149.777344 432.308594 148.941406 438.53125 148.941406 C 455.445312 148.941406 471.171875 155.0625 485.28125 167.132812 C 495.933594 176.246094 504.335938 188.574219 510.957031 204.820312 C 511.230469 205.480469 511.515625 206.136719 511.804688 206.796875 L 511.910156 207.035156 C 512.140625 206.640625 512.277344 206.191406 512.421875 205.726562 C 512.511719 205.4375 512.601562 205.144531 512.714844 204.863281 C 520.5 185.574219 531.21875 171.449219 545.476562 161.675781 C 559.4375 152.101562 574.992188 147.917969 591.613281 149.253906 C 610.558594 150.777344 626.8125 158.492188 639.933594 172.179688 C 650.238281 182.941406 656.785156 196.179688 659.394531 211.53125 C 661.929688 226.414062 660.355469 241.828125 654.582031 258.652344 C 649.917969 272.265625 642.921875 286.234375 633.1875 301.359375 C 623.488281 316.421875 611.914062 331.460938 597.808594 347.335938 C 576.648438 371.160156 553.203125 393.667969 526.136719 416.140625 C 524.117188 417.8125 522.039062 419.484375 520.027344 421.101562 C 517.804688 422.886719 515.5 424.734375 513.269531 426.601562 C 512.710938 427.066406 512.257812 427.277344 511.796875 427.277344 Z M 438.53125 149.570312 C 432.359375 149.570312 425.933594 150.402344 419.429688 152.035156 C 400.792969 156.722656 386.046875 167.390625 375.605469 183.742188 C 367.460938 196.488281 363.527344 210.417969 364.226562 224.027344 C 364.242188 225.347656 364.242188 226.589844 364.238281 227.789062 C 364.230469 231.375 364.222656 234.476562 364.695312 237.578125 C 366.632812 250.414062 370.796875 263.257812 377.421875 276.839844 C 387.210938 296.910156 400.621094 316.714844 419.625 339.164062 C 433.371094 355.410156 448.847656 371.519531 466.945312 388.417969 C 481.3125 401.832031 496.019531 414.5 510.648438 426.078125 C 511.15625 426.480469 511.488281 426.648438 511.796875 426.648438 C 512.101562 426.648438 512.429688 426.484375 512.867188 426.117188 C 515.101562 424.246094 517.402344 422.398438 519.632812 420.605469 C 521.640625 418.992188 523.71875 417.324219 525.734375 415.65625 C 552.773438 393.203125 576.199219 370.71875 597.335938 346.917969 C 611.421875 331.066406 622.976562 316.050781 632.65625 301.015625 C 642.359375 285.933594 649.339844 272.007812 653.988281 258.445312 C 659.726562 241.726562 661.289062 226.414062 658.773438 211.632812 C 656.1875 196.410156 649.695312 183.285156 639.476562 172.617188 C 626.46875 159.042969 610.351562 151.394531 591.566406 149.886719 C 575.089844 148.554688 559.679688 152.703125 545.835938 162.195312 C 531.679688 171.894531 521.039062 185.929688 513.300781 205.101562 C 513.195312 205.367188 513.113281 205.640625 513.027344 205.914062 C 512.816406 206.589844 512.601562 207.289062 512.078125 207.871094 L 511.746094 208.238281 L 511.230469 207.050781 C 510.9375 206.386719 510.648438 205.726562 510.378906 205.054688 C 503.699219 188.683594 495.59375 176.78125 484.871094 167.609375 C 470.878906 155.640625 455.289062 149.570312 438.53125 149.570312 Z M 438.53125 149.570312 " fill-opacity="1" fill-rule="nonzero"/></g></g><g clip-path="url(#fc2f4bcc1a)"><g clip-path="url(#fa24acf58c)"><path fill="#737373" d="M 511.890625 409.625 C 511.386719 409.625 510.945312 409.328125 510.539062 409.003906 C 497.710938 398.867188 484.820312 387.773438 472.222656 376.035156 C 456.351562 361.238281 442.773438 347.128906 430.71875 332.898438 C 414.042969 313.226562 402.269531 295.863281 393.671875 278.265625 C 387.84375 266.332031 384.179688 255.046875 382.472656 243.761719 C 382.054688 241.003906 382.058594 238.273438 382.066406 235.113281 C 382.066406 234.070312 382.070312 232.984375 382.058594 231.84375 C 381.4375 219.835938 384.914062 207.535156 392.113281 196.289062 C 401.339844 181.863281 414.367188 172.449219 430.835938 168.3125 C 436.578125 166.875 442.253906 166.144531 447.707031 166.144531 C 462.519531 166.144531 476.304688 171.496094 488.660156 182.054688 C 497.996094 190.027344 505.355469 200.8125 511.160156 215.023438 C 511.394531 215.605469 511.648438 216.179688 511.898438 216.75 L 511.992188 216.960938 C 512.195312 216.613281 512.316406 216.226562 512.441406 215.820312 C 512.519531 215.5625 512.597656 215.308594 512.695312 215.066406 C 519.519531 198.191406 528.90625 185.832031 541.398438 177.28125 C 553.632812 168.90625 567.257812 165.246094 581.820312 166.417969 C 598.417969 167.75 612.65625 174.496094 624.148438 186.472656 C 633.175781 195.882812 638.914062 207.464844 641.199219 220.894531 C 643.421875 233.914062 642.042969 247.398438 636.984375 262.113281 C 632.898438 274.023438 626.765625 286.242188 618.238281 299.472656 C 609.742188 312.648438 599.605469 325.804688 587.246094 339.695312 C 568.707031 360.535156 548.167969 380.222656 524.453125 399.882812 C 522.6875 401.34375 520.863281 402.804688 519.101562 404.21875 C 517.152344 405.78125 515.136719 407.398438 513.183594 409.03125 C 512.691406 409.441406 512.296875 409.625 511.890625 409.625 Z M 447.707031 166.699219 C 442.300781 166.699219 436.667969 167.421875 430.96875 168.851562 C 414.644531 172.949219 401.722656 182.28125 392.578125 196.585938 C 385.445312 207.734375 382 219.921875 382.609375 231.828125 C 382.625 232.980469 382.621094 234.070312 382.621094 235.117188 C 382.613281 238.253906 382.605469 240.964844 383.015625 243.679688 C 384.71875 254.910156 388.367188 266.140625 394.167969 278.023438 C 402.746094 295.578125 414.496094 312.902344 431.140625 332.542969 C 443.183594 346.753906 456.742188 360.847656 472.601562 375.628906 C 485.1875 387.363281 498.070312 398.445312 510.882812 408.574219 C 511.332031 408.925781 511.625 409.070312 511.894531 409.070312 C 512.15625 409.070312 512.445312 408.929688 512.828125 408.609375 C 514.785156 406.972656 516.804688 405.355469 518.757812 403.789062 C 520.519531 402.378906 522.339844 400.917969 524.101562 399.457031 C 547.792969 379.816406 568.3125 360.148438 586.832031 339.328125 C 599.171875 325.460938 609.292969 312.328125 617.773438 299.175781 C 626.277344 285.980469 632.390625 273.800781 636.464844 261.933594 C 641.488281 247.308594 642.859375 233.910156 640.65625 220.984375 C 638.386719 207.667969 632.703125 196.183594 623.746094 186.851562 C 612.355469 174.980469 598.234375 168.289062 581.777344 166.96875 C 567.34375 165.804688 553.839844 169.433594 541.714844 177.738281 C 529.3125 186.226562 519.992188 198.5 513.210938 215.269531 C 513.117188 215.5 513.042969 215.742188 512.96875 215.980469 C 512.785156 216.570312 512.597656 217.183594 512.136719 217.695312 L 511.847656 218.015625 L 511.394531 216.972656 C 511.140625 216.394531 510.882812 215.816406 510.648438 215.230469 C 504.796875 200.90625 497.699219 190.5 488.304688 182.472656 C 476.046875 172.003906 462.386719 166.699219 447.707031 166.699219 Z M 447.707031 166.699219 " fill-opacity="1" fill-rule="nonzero"/></g></g><g clip-path="url(#3a3e5cd45a)"><g clip-path="url(#f2ad572238)"><path fill="#737373" d="M 511.851562 395.960938 C 511.402344 395.960938 511.007812 395.699219 510.652344 395.414062 C 499.257812 386.410156 487.8125 376.554688 476.625 366.125 C 462.527344 352.976562 450.472656 340.441406 439.769531 327.804688 C 424.960938 310.324219 414.503906 294.902344 406.871094 279.265625 C 401.695312 268.664062 398.441406 258.636719 396.921875 248.613281 C 396.554688 246.164062 396.558594 243.738281 396.5625 240.929688 C 396.566406 240.003906 396.570312 239.039062 396.554688 238.023438 C 396.007812 227.355469 399.09375 216.429688 405.484375 206.4375 C 413.679688 193.621094 425.246094 185.257812 439.871094 181.585938 C 444.972656 180.304688 450.007812 179.65625 454.851562 179.65625 C 468.007812 179.65625 480.246094 184.414062 491.222656 193.792969 C 499.511719 200.875 506.046875 210.457031 511.199219 223.082031 C 511.410156 223.597656 511.632812 224.109375 511.855469 224.617188 L 511.941406 224.800781 C 512.121094 224.496094 512.226562 224.148438 512.339844 223.789062 C 512.410156 223.5625 512.480469 223.335938 512.566406 223.117188 C 518.625 208.128906 526.960938 197.148438 538.054688 189.550781 C 548.917969 182.113281 561.015625 178.859375 573.949219 179.902344 C 588.683594 181.085938 601.332031 187.078125 611.535156 197.71875 C 619.554688 206.078125 624.648438 216.367188 626.679688 228.296875 C 628.652344 239.863281 627.425781 251.84375 622.9375 264.917969 C 619.304688 275.496094 613.859375 286.351562 606.289062 298.109375 C 598.742188 309.8125 589.742188 321.5 578.765625 333.839844 C 562.300781 352.351562 544.066406 369.84375 523.007812 387.308594 C 521.4375 388.609375 519.820312 389.90625 518.257812 391.160156 C 516.523438 392.550781 514.734375 393.988281 513 395.4375 C 512.5625 395.800781 512.210938 395.960938 511.851562 395.960938 Z M 454.851562 180.148438 C 450.050781 180.148438 445.050781 180.792969 439.992188 182.0625 C 425.492188 185.703125 414.019531 193.992188 405.898438 206.703125 C 399.5625 216.605469 396.503906 227.433594 397.046875 238.011719 C 397.058594 239.035156 397.058594 240.003906 397.054688 240.933594 C 397.050781 243.722656 397.042969 246.128906 397.40625 248.539062 C 398.917969 258.515625 402.15625 268.496094 407.3125 279.050781 C 414.925781 294.648438 425.363281 310.039062 440.144531 327.488281 C 450.835938 340.113281 462.878906 352.632812 476.960938 365.765625 C 488.136719 376.183594 499.574219 386.03125 510.957031 395.027344 C 511.351562 395.34375 511.609375 395.472656 511.851562 395.472656 C 512.085938 395.472656 512.34375 395.34375 512.683594 395.0625 C 514.421875 393.609375 516.214844 392.171875 517.949219 390.78125 C 519.511719 389.523438 521.128906 388.230469 522.691406 386.929688 C 543.730469 369.484375 561.953125 352.007812 578.398438 333.515625 C 589.359375 321.191406 598.34375 309.527344 605.875 297.84375 C 613.425781 286.121094 618.855469 275.300781 622.472656 264.757812 C 626.933594 251.765625 628.152344 239.863281 626.195312 228.378906 C 624.183594 216.546875 619.132812 206.34375 611.183594 198.054688 C 601.0625 187.507812 588.523438 181.5625 573.910156 180.390625 C 561.089844 179.355469 549.101562 182.582031 538.332031 189.957031 C 527.320312 197.496094 519.042969 208.402344 513.023438 223.300781 C 512.941406 223.503906 512.871094 223.71875 512.808594 223.929688 C 512.644531 224.457031 512.476562 225 512.070312 225.457031 L 511.8125 225.742188 L 511.410156 224.816406 C 511.183594 224.300781 510.957031 223.785156 510.746094 223.265625 C 505.550781 210.542969 499.246094 201.292969 490.902344 194.164062 C 480.019531 184.867188 467.890625 180.148438 454.851562 180.148438 Z M 454.851562 180.148438 " fill-opacity="1" fill-rule="nonzero"/></g></g><g clip-path="url(#18bf4b2de5)"><g clip-path="url(#ff6afb6612)"><path fill="#737373" d="M 511.917969 384.609375 C 511.519531 384.609375 511.167969 384.375 510.847656 384.121094 C 500.695312 376.074219 490.484375 367.273438 480.511719 357.953125 C 467.945312 346.207031 457.195312 335.011719 447.648438 323.71875 C 434.445312 308.101562 425.125 294.324219 418.320312 280.355469 C 413.703125 270.882812 410.800781 261.925781 409.449219 252.96875 C 409.121094 250.78125 409.125 248.617188 409.128906 246.105469 C 409.132812 245.277344 409.132812 244.414062 409.125 243.511719 C 408.632812 233.980469 411.386719 224.21875 417.082031 215.289062 C 424.386719 203.84375 434.703125 196.371094 447.742188 193.089844 C 452.289062 191.949219 456.785156 191.367188 461.101562 191.367188 C 472.832031 191.367188 483.738281 195.617188 493.527344 203.996094 C 500.917969 210.324219 506.746094 218.882812 511.339844 230.160156 C 511.523438 230.621094 511.726562 231.078125 511.925781 231.535156 L 512 231.699219 C 512.15625 231.425781 512.253906 231.117188 512.351562 230.792969 C 512.414062 230.589844 512.480469 230.390625 512.554688 230.195312 C 517.957031 216.800781 525.390625 206.992188 535.28125 200.207031 C 544.964844 193.558594 555.753906 190.65625 567.285156 191.585938 C 580.421875 192.644531 591.699219 197.996094 600.796875 207.503906 C 607.945312 214.972656 612.488281 224.164062 614.296875 234.820312 C 616.054688 245.15625 614.964844 255.859375 610.960938 267.539062 C 607.722656 276.988281 602.871094 286.6875 596.117188 297.1875 C 589.394531 307.644531 581.367188 318.089844 571.578125 329.109375 C 556.902344 345.648438 540.640625 361.277344 521.863281 376.878906 C 520.464844 378.039062 519.023438 379.203125 517.628906 380.320312 C 516.085938 381.5625 514.488281 382.847656 512.941406 384.140625 C 512.554688 384.464844 512.238281 384.609375 511.917969 384.609375 Z M 461.101562 191.804688 C 456.820312 191.804688 452.359375 192.378906 447.851562 193.515625 C 434.921875 196.769531 424.695312 204.175781 417.453125 215.53125 C 411.804688 224.378906 409.074219 234.046875 409.558594 243.5 C 409.570312 244.414062 409.570312 245.277344 409.570312 246.109375 C 409.5625 248.601562 409.558594 250.75 409.886719 252.90625 C 411.226562 261.816406 414.117188 270.734375 418.714844 280.164062 C 425.503906 294.097656 434.804688 307.847656 447.984375 323.433594 C 457.519531 334.710938 468.253906 345.898438 480.808594 357.632812 C 490.777344 366.941406 500.976562 375.742188 511.121094 383.777344 C 511.472656 384.058594 511.707031 384.175781 511.921875 384.175781 C 512.128906 384.175781 512.359375 384.058594 512.660156 383.804688 C 514.210938 382.507812 515.808594 381.222656 517.355469 379.980469 C 518.75 378.859375 520.1875 377.703125 521.585938 376.542969 C 540.34375 360.953125 556.589844 345.34375 571.25 328.820312 C 581.023438 317.8125 589.035156 307.390625 595.75 296.949219 C 602.484375 286.476562 607.324219 276.8125 610.546875 267.394531 C 614.527344 255.785156 615.613281 245.15625 613.867188 234.894531 C 612.074219 224.324219 607.570312 215.210938 600.480469 207.804688 C 591.460938 198.378906 580.28125 193.070312 567.25 192.023438 C 555.820312 191.097656 545.132812 193.976562 535.53125 200.570312 C 525.710938 207.304688 518.332031 217.050781 512.964844 230.355469 C 512.890625 230.542969 512.828125 230.734375 512.769531 230.921875 C 512.625 231.390625 512.476562 231.878906 512.113281 232.28125 L 511.886719 232.535156 L 511.523438 231.710938 C 511.324219 231.25 511.121094 230.792969 510.933594 230.324219 C 506.300781 218.957031 500.683594 210.699219 493.242188 204.328125 C 483.539062 196.019531 472.722656 191.804688 461.101562 191.804688 Z M 461.101562 191.804688 " fill-opacity="1" fill-rule="nonzero"/></g></g><g clip-path="url(#4645ef5afc)"><g clip-path="url(#a45ac9a07a)"><path fill="#737373" d="M 512.070312 370.066406 C 511.726562 370.066406 511.429688 369.867188 511.15625 369.648438 C 502.488281 362.800781 493.773438 355.304688 485.261719 347.367188 C 474.535156 337.371094 465.355469 327.832031 457.210938 318.21875 C 445.941406 304.925781 437.984375 293.195312 432.171875 281.300781 C 428.234375 273.234375 425.753906 265.609375 424.601562 257.984375 C 424.320312 256.121094 424.324219 254.277344 424.328125 252.140625 C 424.328125 251.433594 424.332031 250.699219 424.320312 249.929688 C 423.902344 241.8125 426.253906 233.5 431.117188 225.902344 C 437.351562 216.152344 446.15625 209.792969 457.289062 207 C 461.167969 206.027344 465.007812 205.53125 468.691406 205.53125 C 478.703125 205.53125 488.015625 209.148438 496.371094 216.28125 C 502.679688 221.671875 507.652344 228.960938 511.574219 238.5625 C 511.734375 238.953125 511.90625 239.34375 512.074219 239.730469 L 512.136719 239.871094 C 512.273438 239.636719 512.355469 239.375 512.441406 239.097656 C 512.492188 238.929688 512.546875 238.757812 512.613281 238.589844 C 517.222656 227.1875 523.570312 218.835938 532.011719 213.058594 C 540.28125 207.398438 549.484375 204.925781 559.328125 205.71875 C 570.546875 206.617188 580.167969 211.175781 587.9375 219.269531 C 594.039062 225.628906 597.914062 233.457031 599.460938 242.527344 C 600.960938 251.328125 600.027344 260.441406 596.613281 270.386719 C 593.847656 278.433594 589.707031 286.691406 583.941406 295.628906 C 578.199219 304.535156 571.347656 313.425781 562.996094 322.8125 C 550.464844 336.894531 536.585938 350.199219 520.558594 363.484375 C 519.367188 364.472656 518.132812 365.460938 516.941406 366.417969 C 515.625 367.472656 514.261719 368.5625 512.941406 369.667969 C 512.609375 369.945312 512.34375 370.066406 512.070312 370.066406 Z M 468.691406 205.90625 C 465.035156 205.90625 461.230469 206.394531 457.378906 207.359375 C 446.34375 210.128906 437.617188 216.4375 431.433594 226.101562 C 426.609375 233.636719 424.28125 241.875 424.695312 249.917969 C 424.703125 250.695312 424.703125 251.433594 424.703125 252.140625 C 424.699219 254.261719 424.695312 256.09375 424.972656 257.925781 C 426.121094 265.515625 428.585938 273.105469 432.507812 281.136719 C 438.304688 293 446.246094 304.707031 457.496094 317.976562 C 465.632812 327.582031 474.800781 337.105469 485.515625 347.09375 C 494.019531 355.023438 502.726562 362.511719 511.386719 369.355469 C 511.691406 369.597656 511.886719 369.695312 512.070312 369.695312 C 512.25 369.695312 512.445312 369.597656 512.703125 369.382812 C 514.027344 368.277344 515.390625 367.183594 516.710938 366.125 C 517.898438 365.167969 519.128906 364.1875 520.320312 363.195312 C 536.332031 349.921875 550.199219 336.632812 562.714844 322.5625 C 571.054688 313.191406 577.898438 304.316406 583.628906 295.429688 C 589.375 286.511719 593.503906 278.28125 596.257812 270.265625 C 599.65625 260.378906 600.582031 251.328125 599.09375 242.59375 C 597.5625 233.59375 593.71875 225.832031 587.667969 219.527344 C 579.964844 211.503906 570.421875 206.984375 559.300781 206.089844 C 549.542969 205.300781 540.417969 207.753906 532.222656 213.367188 C 523.84375 219.101562 517.542969 227.398438 512.960938 238.730469 C 512.898438 238.886719 512.847656 239.046875 512.796875 239.210938 C 512.675781 239.609375 512.546875 240.023438 512.234375 240.367188 L 512.039062 240.585938 L 511.734375 239.882812 C 511.5625 239.492188 511.386719 239.097656 511.230469 238.703125 C 507.273438 229.023438 502.476562 221.988281 496.128906 216.566406 C 487.84375 209.492188 478.613281 205.90625 468.691406 205.90625 Z M 468.691406 205.90625 " fill-opacity="1" fill-rule="nonzero"/></g></g><g clip-path="url(#a47b4fdfce)"><g clip-path="url(#9b266b1979)"><path fill="#737373" d="M 511.914062 360.742188 C 511.613281 360.742188 511.347656 360.5625 511.105469 360.371094 C 503.421875 354.289062 495.695312 347.632812 488.144531 340.589844 C 478.636719 331.710938 470.5 323.246094 463.277344 314.710938 C 453.28125 302.902344 446.230469 292.488281 441.078125 281.929688 C 437.582031 274.769531 435.386719 268 434.367188 261.226562 C 434.113281 259.574219 434.121094 257.933594 434.121094 256.039062 C 434.121094 255.414062 434.125 254.761719 434.117188 254.078125 C 433.746094 246.871094 435.832031 239.492188 440.140625 232.742188 C 445.667969 224.089844 453.476562 218.441406 463.347656 215.960938 C 466.785156 215.097656 470.1875 214.65625 473.453125 214.65625 C 482.332031 214.65625 490.589844 217.871094 497.996094 224.203125 C 503.589844 228.988281 508 235.457031 511.476562 243.984375 C 511.617188 244.332031 511.769531 244.679688 511.921875 245.023438 L 511.976562 245.148438 C 512.097656 244.941406 512.167969 244.707031 512.246094 244.460938 C 512.292969 244.308594 512.339844 244.15625 512.398438 244.011719 C 516.484375 233.886719 522.109375 226.46875 529.597656 221.339844 C 536.925781 216.316406 545.089844 214.121094 553.816406 214.824219 C 563.761719 215.625 572.292969 219.671875 579.179688 226.855469 C 584.589844 232.5 588.03125 239.449219 589.398438 247.507812 C 590.730469 255.320312 589.902344 263.410156 586.871094 272.242188 C 584.425781 279.386719 580.75 286.714844 575.640625 294.65625 C 570.550781 302.558594 564.472656 310.453125 557.066406 318.785156 C 545.960938 331.289062 533.652344 343.101562 519.445312 354.898438 C 518.382812 355.777344 517.292969 356.652344 516.238281 357.5 C 515.070312 358.4375 513.859375 359.410156 512.691406 360.386719 C 512.394531 360.632812 512.15625 360.742188 511.914062 360.742188 Z M 473.453125 214.992188 C 470.214844 214.992188 466.839844 215.425781 463.425781 216.28125 C 453.640625 218.742188 445.902344 224.339844 440.421875 232.921875 C 436.148438 239.613281 434.082031 246.925781 434.445312 254.066406 C 434.457031 254.757812 434.453125 255.414062 434.453125 256.039062 C 434.449219 257.925781 434.445312 259.550781 434.695312 261.179688 C 435.710938 267.917969 437.898438 274.65625 441.375 281.785156 C 446.511719 292.316406 453.554688 302.714844 463.527344 314.496094 C 470.742188 323.019531 478.871094 331.476562 488.371094 340.347656 C 495.914062 347.386719 503.632812 354.035156 511.3125 360.109375 C 511.578125 360.324219 511.753906 360.410156 511.914062 360.410156 C 512.074219 360.410156 512.25 360.324219 512.480469 360.132812 C 513.648438 359.152344 514.859375 358.179688 516.03125 357.242188 C 517.085938 356.394531 518.175781 355.519531 519.230469 354.640625 C 533.425781 342.855469 545.722656 331.058594 556.820312 318.566406 C 564.214844 310.246094 570.28125 302.363281 575.359375 294.476562 C 580.457031 286.558594 584.121094 279.25 586.558594 272.132812 C 589.574219 263.355469 590.394531 255.320312 589.074219 247.5625 C 587.714844 239.570312 584.308594 232.679688 578.941406 227.082031 C 572.113281 219.957031 563.652344 215.945312 553.789062 215.152344 C 545.140625 214.453125 537.050781 216.632812 529.785156 221.613281 C 522.355469 226.707031 516.769531 234.074219 512.707031 244.132812 C 512.648438 244.269531 512.605469 244.414062 512.5625 244.558594 C 512.453125 244.914062 512.339844 245.28125 512.0625 245.585938 L 511.890625 245.78125 L 511.617188 245.15625 C 511.464844 244.808594 511.3125 244.460938 511.171875 244.109375 C 507.667969 235.515625 503.410156 229.269531 497.78125 224.457031 C 490.4375 218.175781 482.253906 214.992188 473.453125 214.992188 Z M 473.453125 214.992188 " fill-opacity="1" fill-rule="nonzero"/></g></g><g clip-path="url(#94e756234b)"><g clip-path="url(#b94c208672)"><path fill="#737373" d="M 511.988281 352.769531 C 511.71875 352.769531 511.480469 352.605469 511.265625 352.4375 C 504.410156 347.015625 497.523438 341.085938 490.789062 334.804688 C 482.308594 326.890625 475.054688 319.347656 468.613281 311.738281 C 459.699219 301.21875 453.410156 291.933594 448.8125 282.523438 C 445.699219 276.140625 443.742188 270.105469 442.828125 264.070312 C 442.605469 262.597656 442.609375 261.140625 442.613281 259.445312 C 442.613281 258.890625 442.617188 258.308594 442.609375 257.699219 C 442.277344 251.277344 444.136719 244.699219 447.980469 238.6875 C 452.910156 230.972656 459.871094 225.9375 468.671875 223.726562 C 471.742188 222.957031 474.773438 222.566406 477.6875 222.566406 C 485.605469 222.566406 492.96875 225.429688 499.574219 231.074219 C 504.5625 235.339844 508.496094 241.105469 511.597656 248.703125 C 511.722656 249.015625 511.855469 249.320312 511.992188 249.628906 L 512.042969 249.738281 C 512.148438 249.554688 512.214844 249.347656 512.28125 249.128906 C 512.324219 248.996094 512.367188 248.859375 512.417969 248.726562 C 516.0625 239.703125 521.082031 233.09375 527.757812 228.523438 C 534.292969 224.042969 541.574219 222.085938 549.355469 222.714844 C 558.226562 223.425781 565.835938 227.03125 571.976562 233.4375 C 576.800781 238.46875 579.867188 244.664062 581.085938 251.84375 C 582.273438 258.804688 581.539062 266.019531 578.835938 273.886719 C 576.652344 280.253906 573.375 286.789062 568.816406 293.863281 C 564.277344 300.910156 558.859375 307.945312 552.253906 315.371094 C 542.347656 326.515625 531.375 337.042969 518.699219 347.554688 C 517.757812 348.339844 516.785156 349.121094 515.84375 349.875 C 514.800781 350.710938 513.722656 351.578125 512.679688 352.449219 C 512.417969 352.667969 512.207031 352.769531 511.988281 352.769531 Z M 477.6875 222.863281 C 474.800781 222.863281 471.792969 223.25 468.746094 224.015625 C 460.019531 226.203125 453.117188 231.195312 448.230469 238.84375 C 444.417969 244.808594 442.574219 251.324219 442.902344 257.691406 C 442.910156 258.308594 442.90625 258.890625 442.90625 259.449219 C 442.90625 261.128906 442.902344 262.574219 443.121094 264.027344 C 444.027344 270.035156 445.976562 276.039062 449.078125 282.394531 C 453.664062 291.785156 459.941406 301.046875 468.835938 311.550781 C 475.269531 319.148438 482.515625 326.683594 490.992188 334.589844 C 497.71875 340.863281 504.601562 346.789062 511.449219 352.203125 C 511.6875 352.394531 511.84375 352.46875 511.988281 352.46875 C 512.128906 352.46875 512.285156 352.394531 512.488281 352.222656 C 513.535156 351.351562 514.617188 350.484375 515.660156 349.648438 C 516.597656 348.890625 517.570312 348.113281 518.511719 347.328125 C 531.171875 336.828125 542.136719 326.3125 552.035156 315.175781 C 558.628906 307.761719 564.035156 300.738281 568.570312 293.707031 C 573.113281 286.648438 576.378906 280.136719 578.558594 273.789062 C 581.242188 265.96875 581.976562 258.804688 580.796875 251.890625 C 579.585938 244.773438 576.546875 238.628906 571.761719 233.640625 C 565.671875 227.289062 558.128906 223.714844 549.332031 223.007812 C 541.621094 222.382812 534.40625 224.324219 527.921875 228.765625 C 521.296875 233.304688 516.316406 239.867188 512.691406 248.835938 C 512.640625 248.960938 512.605469 249.089844 512.566406 249.21875 C 512.464844 249.535156 512.367188 249.859375 512.121094 250.132812 L 511.964844 250.304688 L 511.722656 249.746094 C 511.585938 249.441406 511.449219 249.128906 511.324219 248.816406 C 508.199219 241.15625 504.402344 235.589844 499.382812 231.296875 C 492.832031 225.699219 485.535156 222.863281 477.6875 222.863281 Z M 477.6875 222.863281 " fill-opacity="1" fill-rule="nonzero"/></g></g><g fill="#f4b7c5" fill-opacity="1"><g transform="translate(425.601207, 298.506075)"><g><path d="M 7.890625 -21.257812 C 13.59375 -21.257812 13.683594 -26.074219 17.558594 -26.386719 C 20.949219 -26.609375 22.910156 -23.445312 20.546875 -20.679688 C 18.941406 -18.808594 15.777344 -17.871094 13.726562 -17.203125 C 8.601562 -15.554688 1.917969 -13.503906 1.78125 -7.042969 C 1.695312 -3.433594 4.144531 0 8.78125 0 C 11.722656 0 14.484375 -1.160156 17.027344 -2.808594 L 17.027344 0 L 23.085938 0 L 23.085938 -20.902344 C 23.085938 -25.359375 20.859375 -27.367188 16.667969 -27.367188 L 2.40625 -27.367188 L 2.40625 -21.257812 Z M 17.027344 -3.699219 C 13.414062 -1.425781 7.976562 -1.246094 7.800781 -6.773438 C 7.621094 -12.523438 12.390625 -15.289062 17.027344 -17.335938 Z M 17.027344 -3.699219 "/></g></g></g><g fill="#f4b7c5" fill-opacity="1"><g transform="translate(450.648831, 298.506075)"><g><path d="M 22.597656 -2.003906 L 22.597656 -27.367188 L 16.535156 -27.367188 L 16.535156 -4.636719 C 14.351562 -2.851562 11.589844 -1.382812 8.734375 -1.292969 C 2.09375 -1.070312 2.675781 -9.359375 4.859375 -13.59375 C 6.152344 -16.132812 7.398438 -18.453125 7.398438 -21.257812 L 7.398438 -27.367188 L 1.335938 -27.367188 L 1.335938 -8.113281 C 1.335938 -4.054688 2.585938 0 7.398438 0 C 10.695312 0 13.996094 -1.605469 16.535156 -3.609375 L 16.535156 -3.03125 C 16.535156 1.871094 15.375 5.257812 10.207031 5.257812 C 9.628906 5.257812 9.003906 5.214844 8.46875 5.171875 L 8.46875 5.882812 C 9.359375 6.015625 10.25 6.0625 11.097656 6.0625 C 16.222656 6.0625 22.597656 4.054688 22.597656 -2.003906 Z M 22.597656 -2.003906 "/></g></g></g><g fill="#f4b7c5" fill-opacity="1"><g transform="translate(475.161633, 298.506075)"><g><path d="M 2.003906 -33.425781 L 2.003906 0 L 8.066406 0 L 8.066406 -33.425781 Z M 2.003906 -33.425781 "/></g></g></g><g fill="#f4b7c5" fill-opacity="1"><g transform="translate(485.323303, 298.506075)"><g><path d="M 7.933594 0 L 7.933594 -27.367188 L 1.871094 -27.367188 L 1.871094 0 Z M 4.902344 -33.425781 C 3.433594 -33.425781 2.226562 -32.222656 2.226562 -30.753906 C 2.226562 -29.238281 3.433594 -28.035156 4.902344 -28.035156 C 6.417969 -28.035156 7.621094 -29.238281 7.621094 -30.753906 C 7.621094 -32.222656 6.417969 -33.425781 4.902344 -33.425781 Z M 4.902344 -33.425781 "/></g></g></g><g fill="#f4b7c5" fill-opacity="1"><g transform="translate(495.217562, 298.506075)"><g><path d="M 8.066406 0 L 8.066406 -22.6875 C 10.25 -24.511719 13.015625 -25.984375 15.867188 -26.074219 C 22.507812 -26.25 21.929688 -18.007812 19.746094 -13.726562 C 18.453125 -11.230469 17.203125 -8.914062 17.203125 -6.0625 L 17.203125 0 L 23.265625 0 L 23.265625 -19.253906 C 23.265625 -23.308594 22.015625 -27.367188 17.203125 -27.367188 C 13.90625 -27.367188 10.652344 -25.761719 8.066406 -23.753906 L 8.066406 -27.367188 L 2.003906 -27.367188 L 2.003906 0 Z M 8.066406 0 "/></g></g></g><g fill="#f4b7c5" fill-opacity="1"><g transform="translate(520.443458, 298.506075)"><g/></g></g><g fill="#f4b7c5" fill-opacity="1"><g transform="translate(533.680372, 298.506075)"><g><path d="M 11.097656 -33.425781 C 9.628906 -33.425781 8.421875 -32.222656 8.421875 -30.753906 C 8.421875 -29.238281 9.628906 -28.035156 11.097656 -28.035156 C 12.613281 -28.035156 13.816406 -29.238281 13.816406 -30.753906 C 13.816406 -32.222656 12.613281 -33.425781 11.097656 -33.425781 Z M 14.171875 -1.960938 L 14.171875 -27.367188 L 8.066406 -27.367188 C 8.066406 -19.210938 8.066406 -11.1875 8.066406 -3.03125 C 8.066406 1.871094 6.910156 5.257812 1.78125 5.257812 C 1.160156 5.257812 0.578125 5.214844 0 5.171875 L 0 5.882812 C 0.890625 6.015625 1.78125 6.0625 2.628906 6.0625 C 7.800781 6.0625 14.171875 4.054688 14.171875 -1.960938 Z M 14.171875 -1.960938 "/></g></g></g><g fill="#f4b7c5" fill-opacity="1"><g transform="translate(549.680537, 298.506075)"><g><path d="M 1.472656 -13.683594 C 1.472656 -19.566406 5.125 -27.367188 12.121094 -27.367188 C 17.960938 -27.367188 22.730469 -21.214844 22.730469 -13.683594 C 22.730469 -7.800781 19.074219 0 12.121094 0 C 6.238281 0 1.472656 -6.105469 1.472656 -13.683594 Z M 18.453125 -13.636719 L 12.792969 -22.285156 C 8.066406 -29.460938 0.890625 -21.171875 5.703125 -13.816406 L 11.453125 -5.082031 C 16.132812 2.09375 23.308594 -6.195312 18.453125 -13.636719 Z M 18.453125 -13.636719 "/></g></g></g><g fill="#f4b7c5" fill-opacity="1"><g transform="translate(573.881362, 298.506075)"><g><path d="M 22.597656 -2.003906 L 22.597656 -27.367188 L 16.535156 -27.367188 L 16.535156 -4.636719 C 14.351562 -2.851562 11.589844 -1.382812 8.734375 -1.292969 C 2.09375 -1.070312 2.675781 -9.359375 4.859375 -13.59375 C 6.152344 -16.132812 7.398438 -18.453125 7.398438 -21.257812 L 7.398438 -27.367188 L 1.335938 -27.367188 L 1.335938 -8.113281 C 1.335938 -4.054688 2.585938 0 7.398438 0 C 10.695312 0 13.996094 -1.605469 16.535156 -3.609375 L 16.535156 -3.03125 C 16.535156 1.871094 15.375 5.257812 10.207031 5.257812 C 9.628906 5.257812 9.003906 5.214844 8.46875 5.171875 L 8.46875 5.882812 C 9.359375 6.015625 10.25 6.0625 11.097656 6.0625 C 16.222656 6.0625 22.597656 4.054688 22.597656 -2.003906 Z M 22.597656 -2.003906 "/></g></g></g></svg>