<svg xmlns="http://www.w3.org/2000/svg" xmlns:xlink="http://www.w3.org/1999/xlink" width="1366" zoomAndPan="magnify" viewBox="0 0 1024.5 576" height="768" preserveAspectRatio="xMidYMid meet" version="1.0"><defs><g/><clipPath id="b926f315a9"><path d="M 304.976562 94.148438 L 718.75 94.148438 L 718.75 481.710938 L 304.976562 481.710938 Z M 304.976562 94.148438 " clip-rule="nonzero"/></clipPath><clipPath id="18e0b91fff"><path d="M 304.949219 161.617188 L 304.949219 414.382812 C 304.949219 451.644531 335.15625 481.851562 372.417969 481.851562 L 651.582031 481.851562 C 688.84375 481.851562 719.050781 451.644531 719.050781 414.382812 L 719.050781 161.617188 C 719.050781 124.355469 688.84375 94.148438 651.582031 94.148438 L 372.417969 94.148438 C 335.15625 94.148438 304.949219 124.355469 304.949219 161.617188 Z M 304.949219 161.617188 " clip-rule="nonzero"/></clipPath><clipPath id="5ed5b7ddf9"><path d="M 328 116 L 695.6875 116 L 695.6875 460.691406 L 328 460.691406 Z M 328 116 " clip-rule="nonzero"/></clipPath><clipPath id="02d2f7d1be"><path d="M 304.949219 161.617188 L 304.949219 414.382812 C 304.949219 451.644531 335.15625 481.851562 372.417969 481.851562 L 651.582031 481.851562 C 688.84375 481.851562 719.050781 451.644531 719.050781 414.382812 L 719.050781 161.617188 C 719.050781 124.355469 688.84375 94.148438 651.582031 94.148438 L 372.417969 94.148438 C 335.15625 94.148438 304.949219 124.355469 304.949219 161.617188 Z M 304.949219 161.617188 " clip-rule="nonzero"/></clipPath><clipPath id="27a9f025d0"><path d="M 348 134.441406 L 675.542969 134.441406 L 675.542969 441.683594 L 348 441.683594 Z M 348 134.441406 " clip-rule="nonzero"/></clipPath><clipPath id="ed072b3afc"><path d="M 304.949219 161.617188 L 304.949219 414.382812 C 304.949219 451.644531 335.15625 481.851562 372.417969 481.851562 L 651.582031 481.851562 C 688.84375 481.851562 719.050781 451.644531 719.050781 414.382812 L 719.050781 161.617188 C 719.050781 124.355469 688.84375 94.148438 651.582031 94.148438 L 372.417969 94.148438 C 335.15625 94.148438 304.949219 124.355469 304.949219 161.617188 Z M 304.949219 161.617188 " clip-rule="nonzero"/></clipPath><clipPath id="167f78c57c"><path d="M 367.003906 152.464844 L 656.988281 152.464844 L 656.988281 423.824219 L 367.003906 423.824219 Z M 367.003906 152.464844 " clip-rule="nonzero"/></clipPath><clipPath id="decadec2fe"><path d="M 304.949219 161.617188 L 304.949219 414.382812 C 304.949219 451.644531 335.15625 481.851562 372.417969 481.851562 L 651.582031 481.851562 C 688.84375 481.851562 719.050781 451.644531 719.050781 414.382812 L 719.050781 161.617188 C 719.050781 124.355469 688.84375 94.148438 651.582031 94.148438 L 372.417969 94.148438 C 335.15625 94.148438 304.949219 124.355469 304.949219 161.617188 Z M 304.949219 161.617188 " clip-rule="nonzero"/></clipPath><clipPath id="14bc5e1202"><path d="M 383 167.308594 L 640.554688 167.308594 L 640.554688 408.761719 L 383 408.761719 Z M 383 167.308594 " clip-rule="nonzero"/></clipPath><clipPath id="2da177a0bf"><path d="M 304.949219 161.617188 L 304.949219 414.382812 C 304.949219 451.644531 335.15625 481.851562 372.417969 481.851562 L 651.582031 481.851562 C 688.84375 481.851562 719.050781 451.644531 719.050781 414.382812 L 719.050781 161.617188 C 719.050781 124.355469 688.84375 94.148438 651.582031 94.148438 L 372.417969 94.148438 C 335.15625 94.148438 304.949219 124.355469 304.949219 161.617188 Z M 304.949219 161.617188 " clip-rule="nonzero"/></clipPath><clipPath id="cd6367efe2"><path d="M 397.222656 180.5625 L 626.769531 180.5625 L 626.769531 395.65625 L 397.222656 395.65625 Z M 397.222656 180.5625 " clip-rule="nonzero"/></clipPath><clipPath id="1ca51fb109"><path d="M 304.949219 161.617188 L 304.949219 414.382812 C 304.949219 451.644531 335.15625 481.851562 372.417969 481.851562 L 651.582031 481.851562 C 688.84375 481.851562 719.050781 451.644531 719.050781 414.382812 L 719.050781 161.617188 C 719.050781 124.355469 688.84375 94.148438 651.582031 94.148438 L 372.417969 94.148438 C 335.15625 94.148438 304.949219 124.355469 304.949219 161.617188 Z M 304.949219 161.617188 " clip-rule="nonzero"/></clipPath><clipPath id="7352551664"><path d="M 411.535156 193.816406 L 612.988281 193.816406 L 612.988281 382 L 411.535156 382 Z M 411.535156 193.816406 " clip-rule="nonzero"/></clipPath><clipPath id="b8f1e45b36"><path d="M 304.949219 161.617188 L 304.949219 414.382812 C 304.949219 451.644531 335.15625 481.851562 372.417969 481.851562 L 651.582031 481.851562 C 688.84375 481.851562 719.050781 451.644531 719.050781 414.382812 L 719.050781 161.617188 C 719.050781 124.355469 688.84375 94.148438 651.582031 94.148438 L 372.417969 94.148438 C 335.15625 94.148438 304.949219 124.355469 304.949219 161.617188 Z M 304.949219 161.617188 " clip-rule="nonzero"/></clipPath><clipPath id="779e698459"><path d="M 422 204 L 602 204 L 602 372 L 422 372 Z M 422 204 " clip-rule="nonzero"/></clipPath><clipPath id="fde1f9d4fb"><path d="M 304.949219 161.617188 L 304.949219 414.382812 C 304.949219 451.644531 335.15625 481.851562 372.417969 481.851562 L 651.582031 481.851562 C 688.84375 481.851562 719.050781 451.644531 719.050781 414.382812 L 719.050781 161.617188 C 719.050781 124.355469 688.84375 94.148438 651.582031 94.148438 L 372.417969 94.148438 C 335.15625 94.148438 304.949219 124.355469 304.949219 161.617188 Z M 304.949219 161.617188 " clip-rule="nonzero"/></clipPath><clipPath id="286474e79d"><path d="M 432.210938 213 L 591.78125 213 L 591.78125 362.675781 L 432.210938 362.675781 Z M 432.210938 213 " clip-rule="nonzero"/></clipPath><clipPath id="92bfe5eae3"><path d="M 304.949219 161.617188 L 304.949219 414.382812 C 304.949219 451.644531 335.15625 481.851562 372.417969 481.851562 L 651.582031 481.851562 C 688.84375 481.851562 719.050781 451.644531 719.050781 414.382812 L 719.050781 161.617188 C 719.050781 124.355469 688.84375 94.148438 651.582031 94.148438 L 372.417969 94.148438 C 335.15625 94.148438 304.949219 124.355469 304.949219 161.617188 Z M 304.949219 161.617188 " clip-rule="nonzero"/></clipPath><clipPath id="564af8f63b"><path d="M 444 224.035156 L 580.117188 224.035156 L 580.117188 351.4375 L 444 351.4375 Z M 444 224.035156 " clip-rule="nonzero"/></clipPath><clipPath id="caf41fcfaa"><path d="M 304.949219 161.617188 L 304.949219 414.382812 C 304.949219 451.644531 335.15625 481.851562 372.417969 481.851562 L 651.582031 481.851562 C 688.84375 481.851562 719.050781 451.644531 719.050781 414.382812 L 719.050781 161.617188 C 719.050781 124.355469 688.84375 94.148438 651.582031 94.148438 L 372.417969 94.148438 C 335.15625 94.148438 304.949219 124.355469 304.949219 161.617188 Z M 304.949219 161.617188 " clip-rule="nonzero"/></clipPath><clipPath id="a8f3b8dad4"><path d="M 451.546875 231 L 572.695312 231 L 572.695312 344.226562 L 451.546875 344.226562 Z M 451.546875 231 " clip-rule="nonzero"/></clipPath><clipPath id="f29f3ae46b"><path d="M 304.949219 161.617188 L 304.949219 414.382812 C 304.949219 451.644531 335.15625 481.851562 372.417969 481.851562 L 651.582031 481.851562 C 688.84375 481.851562 719.050781 451.644531 719.050781 414.382812 L 719.050781 161.617188 C 719.050781 124.355469 688.84375 94.148438 651.582031 94.148438 L 372.417969 94.148438 C 335.15625 94.148438 304.949219 124.355469 304.949219 161.617188 Z M 304.949219 161.617188 " clip-rule="nonzero"/></clipPath><clipPath id="f52f0d61d7"><path d="M 458.1875 237.285156 L 565.804688 237.285156 L 565.804688 338.058594 L 458.1875 338.058594 Z M 458.1875 237.285156 " clip-rule="nonzero"/></clipPath><clipPath id="129e42a0b6"><path d="M 304.949219 161.617188 L 304.949219 414.382812 C 304.949219 451.644531 335.15625 481.851562 372.417969 481.851562 L 651.582031 481.851562 C 688.84375 481.851562 719.050781 451.644531 719.050781 414.382812 L 719.050781 161.617188 C 719.050781 124.355469 688.84375 94.148438 651.582031 94.148438 L 372.417969 94.148438 C 335.15625 94.148438 304.949219 124.355469 304.949219 161.617188 Z M 304.949219 161.617188 " clip-rule="nonzero"/></clipPath></defs><g clip-path="url(#b926f315a9)"><g clip-path="url(#18e0b91fff)"><path fill="#737373" d="M 511.402344 481.851562 C 510.601562 481.851562 509.898438 481.378906 509.257812 480.867188 C 488.875 464.75 468.390625 447.105469 448.371094 428.429688 C 423.152344 404.894531 401.582031 382.457031 382.425781 359.828125 C 355.929688 328.535156 337.222656 300.925781 323.5625 272.933594 C 314.300781 253.957031 308.476562 236.007812 305.765625 218.058594 C 305.101562 213.675781 305.109375 209.332031 305.121094 204.304688 C 305.125 202.644531 305.128906 200.917969 305.105469 199.105469 C 304.121094 180.003906 309.648438 160.445312 321.082031 142.554688 C 335.742188 119.609375 356.441406 104.640625 382.609375 98.066406 C 391.734375 95.773438 400.75 94.613281 409.417969 94.613281 C 432.957031 94.613281 454.851562 103.125 474.492188 119.917969 C 489.324219 132.601562 501.019531 149.753906 510.238281 172.351562 C 510.613281 173.277344 511.015625 174.191406 511.414062 175.101562 L 511.5625 175.433594 C 511.882812 174.886719 512.074219 174.265625 512.273438 173.617188 C 512.398438 173.210938 512.527344 172.808594 512.683594 172.417969 C 523.519531 145.582031 538.4375 125.925781 558.289062 112.328125 C 577.722656 99.007812 599.371094 93.1875 622.511719 95.050781 C 648.882812 97.167969 671.507812 107.898438 689.769531 126.945312 C 704.117188 141.914062 713.234375 160.332031 716.863281 181.6875 C 720.390625 202.398438 718.199219 223.84375 710.164062 247.25 C 703.671875 266.1875 693.929688 285.621094 680.378906 306.667969 C 666.878906 327.621094 650.773438 348.546875 631.132812 370.632812 C 601.675781 403.777344 569.042969 435.09375 531.363281 466.355469 C 528.554688 468.6875 525.660156 471.007812 522.863281 473.257812 C 519.761719 475.742188 516.558594 478.316406 513.457031 480.910156 C 512.675781 481.5625 512.046875 481.851562 511.402344 481.851562 Z M 409.417969 95.492188 C 400.824219 95.492188 391.878906 96.644531 382.828125 98.917969 C 356.878906 105.4375 336.355469 120.28125 321.824219 143.03125 C 310.488281 160.761719 305.011719 180.144531 305.984375 199.078125 C 306.007812 200.914062 306 202.644531 306 204.308594 C 305.988281 209.300781 305.980469 213.609375 306.632812 217.929688 C 309.332031 235.789062 315.128906 253.65625 324.351562 272.550781 C 337.980469 300.472656 356.648438 328.027344 383.097656 359.261719 C 402.230469 381.863281 423.777344 404.277344 448.972656 427.789062 C 468.972656 446.445312 489.4375 464.074219 509.800781 480.179688 C 510.511719 480.742188 510.976562 480.972656 511.40625 480.972656 C 511.824219 480.972656 512.285156 480.746094 512.890625 480.238281 C 516.003906 477.636719 519.210938 475.0625 522.3125 472.574219 C 525.109375 470.328125 528 468.007812 530.804688 465.679688 C 568.445312 434.445312 601.050781 403.164062 630.476562 370.050781 C 650.085938 347.996094 666.167969 327.109375 679.640625 306.191406 C 693.152344 285.207031 702.867188 265.832031 709.335938 246.964844 C 717.324219 223.699219 719.5 202.398438 715.996094 181.835938 C 712.398438 160.65625 703.359375 142.390625 689.136719 127.550781 C 671.03125 108.667969 648.59375 98.027344 622.445312 95.925781 C 599.507812 94.074219 578.054688 99.847656 558.785156 113.050781 C 539.082031 126.546875 524.269531 146.074219 513.5 172.746094 C 513.351562 173.113281 513.234375 173.496094 513.113281 173.875 C 512.824219 174.816406 512.523438 175.789062 511.792969 176.601562 L 511.335938 177.113281 L 510.613281 175.457031 C 510.207031 174.535156 509.800781 173.613281 509.425781 172.683594 C 500.132812 149.902344 488.851562 133.347656 473.921875 120.585938 C 454.445312 103.933594 432.742188 95.492188 409.417969 95.492188 Z M 409.417969 95.492188 " fill-opacity="1" fill-rule="nonzero"/></g></g><g clip-path="url(#5ed5b7ddf9)"><g clip-path="url(#02d2f7d1be)"><path fill="#737373" d="M 511.402344 460.570312 C 510.691406 460.570312 510.066406 460.152344 509.496094 459.699219 C 491.390625 445.359375 473.195312 429.664062 455.414062 413.050781 C 433.015625 392.113281 413.855469 372.152344 396.839844 352.023438 C 373.300781 324.1875 356.6875 299.625 344.554688 274.726562 C 336.324219 257.84375 331.152344 241.875 328.742188 225.910156 C 328.152344 222.011719 328.160156 218.148438 328.171875 213.675781 C 328.175781 212.199219 328.179688 210.660156 328.15625 209.046875 C 327.285156 192.058594 332.191406 174.65625 342.347656 158.742188 C 355.371094 138.332031 373.757812 125.019531 397.003906 119.167969 C 405.105469 117.128906 413.117188 116.097656 420.8125 116.097656 C 441.722656 116.097656 461.171875 123.667969 478.617188 138.605469 C 491.792969 149.886719 502.175781 165.148438 510.367188 185.25 C 510.703125 186.074219 511.058594 186.886719 511.414062 187.699219 L 511.542969 187.992188 C 511.828125 187.503906 512 186.953125 512.179688 186.375 C 512.289062 186.015625 512.398438 185.65625 512.539062 185.308594 C 522.164062 161.4375 535.414062 143.953125 553.046875 131.855469 C 570.3125 120.003906 589.539062 114.828125 610.097656 116.484375 C 633.519531 118.371094 653.617188 127.914062 669.835938 144.855469 C 682.578125 158.175781 690.679688 174.558594 693.902344 193.554688 C 697.035156 211.980469 695.089844 231.054688 687.953125 251.878906 C 682.1875 268.722656 673.53125 286.011719 661.496094 304.730469 C 649.503906 323.375 635.195312 341.988281 617.75 361.636719 C 591.589844 391.121094 562.601562 418.976562 529.132812 446.789062 C 526.636719 448.859375 524.066406 450.929688 521.582031 452.925781 C 518.828125 455.140625 515.980469 457.425781 513.226562 459.734375 C 512.535156 460.316406 511.972656 460.570312 511.402344 460.570312 Z M 420.8125 116.878906 C 413.179688 116.878906 405.234375 117.902344 397.195312 119.925781 C 374.148438 125.726562 355.917969 138.925781 343.007812 159.164062 C 332.941406 174.941406 328.074219 192.179688 328.9375 209.027344 C 328.957031 210.65625 328.957031 212.195312 328.949219 213.679688 C 328.941406 218.117188 328.933594 221.953125 329.515625 225.796875 C 331.914062 241.679688 337.058594 257.574219 345.253906 274.382812 C 357.359375 299.222656 373.941406 323.734375 397.4375 351.519531 C 414.429688 371.625 433.570312 391.566406 455.949219 412.480469 C 473.714844 429.078125 491.890625 444.757812 509.980469 459.085938 C 510.609375 459.589844 511.023438 459.792969 511.40625 459.792969 C 511.777344 459.792969 512.183594 459.589844 512.726562 459.136719 C 515.488281 456.824219 518.335938 454.535156 521.09375 452.320312 C 523.578125 450.320312 526.144531 448.257812 528.636719 446.1875 C 562.074219 418.402344 591.03125 390.574219 617.171875 361.117188 C 634.585938 341.5 648.871094 322.917969 660.839844 304.308594 C 672.84375 285.644531 681.46875 268.410156 687.214844 251.625 C 694.3125 230.929688 696.246094 211.976562 693.136719 193.6875 C 689.933594 174.847656 681.910156 158.597656 669.273438 145.394531 C 653.191406 128.597656 633.261719 119.132812 610.035156 117.265625 C 589.664062 115.617188 570.605469 120.75 553.492188 132.5 C 535.988281 144.503906 522.832031 161.875 513.261719 185.601562 C 513.132812 185.925781 513.027344 186.265625 512.921875 186.605469 C 512.664062 187.441406 512.398438 188.308594 511.75 189.03125 L 511.339844 189.484375 L 510.703125 188.011719 C 510.339844 187.191406 509.980469 186.371094 509.648438 185.542969 C 501.390625 165.28125 491.371094 150.554688 478.109375 139.199219 C 460.808594 124.386719 441.53125 116.878906 420.8125 116.878906 Z M 420.8125 116.878906 " fill-opacity="1" fill-rule="nonzero"/></g></g><g clip-path="url(#27a9f025d0)"><g clip-path="url(#ed072b3afc)"><path fill="#737373" d="M 511.484375 441.574219 C 510.851562 441.574219 510.292969 441.203125 509.785156 440.796875 C 493.644531 428.023438 477.425781 414.042969 461.578125 399.242188 C 441.609375 380.59375 424.527344 362.8125 409.363281 344.882812 C 388.378906 320.082031 373.570312 298.203125 362.753906 276.023438 C 355.417969 260.984375 350.808594 246.761719 348.660156 232.539062 C 348.136719 229.0625 348.144531 225.625 348.152344 221.640625 C 348.152344 220.324219 348.160156 218.953125 348.140625 217.519531 C 347.359375 202.382812 351.738281 186.882812 360.789062 172.707031 C 372.398438 154.523438 388.789062 142.660156 409.507812 137.449219 C 416.730469 135.636719 423.871094 134.714844 430.730469 134.714844 C 449.371094 134.714844 466.707031 141.460938 482.257812 154.765625 C 494.003906 164.816406 503.261719 178.410156 510.558594 196.320312 C 510.859375 197.050781 511.175781 197.773438 511.496094 198.496094 L 511.609375 198.761719 C 511.863281 198.324219 512.015625 197.832031 512.171875 197.320312 C 512.273438 197 512.371094 196.679688 512.496094 196.371094 C 521.078125 175.101562 532.886719 159.527344 548.605469 148.753906 C 563.996094 138.195312 581.136719 133.585938 599.457031 135.0625 C 620.339844 136.742188 638.253906 145.242188 652.710938 160.332031 C 664.070312 172.199219 671.289062 186.792969 674.164062 203.714844 C 676.957031 220.128906 675.222656 237.121094 668.859375 255.667969 C 663.71875 270.675781 656.007812 286.078125 645.277344 302.753906 C 634.585938 319.359375 621.832031 335.941406 606.285156 353.441406 C 582.960938 379.710938 557.121094 404.523438 527.289062 429.296875 C 525.066406 431.144531 522.773438 432.984375 520.554688 434.765625 C 518.101562 436.738281 515.566406 438.773438 513.109375 440.832031 C 512.492188 441.347656 511.992188 441.574219 511.484375 441.574219 Z M 430.730469 135.410156 C 423.929688 135.410156 416.847656 136.324219 409.675781 138.125 C 389.136719 143.292969 372.882812 155.054688 361.375 173.082031 C 352.402344 187.136719 348.066406 202.492188 348.835938 217.496094 C 348.851562 218.953125 348.851562 220.324219 348.847656 221.640625 C 348.839844 225.597656 348.832031 229.011719 349.347656 232.433594 C 351.484375 246.585938 356.074219 260.746094 363.378906 275.71875 C 374.171875 297.847656 388.949219 319.679688 409.894531 344.433594 C 425.039062 362.339844 442.101562 380.105469 462.050781 398.738281 C 477.886719 413.519531 494.089844 427.488281 510.214844 440.253906 C 510.777344 440.699219 511.144531 440.878906 511.484375 440.878906 C 511.816406 440.878906 512.179688 440.699219 512.664062 440.296875 C 515.125 438.238281 517.664062 436.195312 520.121094 434.222656 C 522.335938 432.445312 524.625 430.605469 526.84375 428.761719 C 556.648438 404.007812 582.464844 379.21875 605.765625 352.980469 C 621.289062 335.503906 634.023438 318.953125 644.691406 302.375 C 655.390625 285.75 663.082031 270.394531 668.203125 255.445312 C 674.527344 237.007812 676.253906 220.125 673.476562 203.832031 C 670.628906 187.050781 663.472656 172.578125 652.207031 160.8125 C 637.875 145.851562 620.109375 137.421875 599.402344 135.753906 C 581.242188 134.285156 564.257812 138.859375 549 149.328125 C 533.398438 160.019531 521.671875 175.496094 513.144531 196.628906 C 513.023438 196.917969 512.929688 197.222656 512.839844 197.523438 C 512.609375 198.269531 512.371094 199.039062 511.792969 199.6875 L 511.429688 200.089844 L 510.859375 198.777344 C 510.539062 198.046875 510.214844 197.316406 509.917969 196.578125 C 502.558594 178.527344 493.628906 165.410156 481.808594 155.296875 C 466.386719 142.101562 449.203125 135.410156 430.730469 135.410156 Z M 430.730469 135.410156 " fill-opacity="1" fill-rule="nonzero"/></g></g><g clip-path="url(#167f78c57c)"><g clip-path="url(#decadec2fe)"><path fill="#737373" d="M 511.660156 423.730469 C 511.097656 423.730469 510.605469 423.398438 510.15625 423.039062 C 495.886719 411.75 481.546875 399.394531 467.53125 386.3125 C 449.875 369.828125 434.773438 354.113281 421.363281 338.261719 C 402.8125 316.347656 389.714844 297.007812 380.152344 277.402344 C 373.667969 264.113281 369.589844 251.539062 367.691406 238.96875 C 367.230469 235.898438 367.234375 232.855469 367.242188 229.335938 C 367.246094 228.171875 367.246094 226.964844 367.234375 225.695312 C 366.542969 212.3125 370.410156 198.617188 378.417969 186.085938 C 388.679688 170.015625 403.171875 159.53125 421.492188 154.925781 C 427.878906 153.320312 434.195312 152.507812 440.257812 152.507812 C 456.742188 152.507812 472.070312 158.46875 485.816406 170.234375 C 496.203125 179.113281 504.390625 191.128906 510.84375 206.953125 C 511.105469 207.601562 511.386719 208.242188 511.667969 208.882812 L 511.769531 209.113281 C 511.996094 208.730469 512.128906 208.292969 512.269531 207.839844 C 512.359375 207.558594 512.445312 207.277344 512.554688 207.003906 C 520.140625 188.207031 530.585938 174.4375 544.484375 164.914062 C 558.089844 155.585938 573.246094 151.511719 589.449219 152.816406 C 607.910156 154.296875 623.75 161.8125 636.53125 175.152344 C 646.578125 185.636719 652.960938 198.535156 655.5 213.496094 C 657.972656 228 656.4375 243.019531 650.8125 259.414062 C 646.265625 272.675781 639.445312 286.292969 629.960938 301.03125 C 620.507812 315.707031 609.230469 330.359375 595.480469 345.832031 C 574.859375 369.046875 552.011719 390.980469 525.632812 412.875 C 523.667969 414.507812 521.640625 416.136719 519.683594 417.710938 C 517.511719 419.449219 515.269531 421.253906 513.097656 423.070312 C 512.550781 423.527344 512.109375 423.730469 511.660156 423.730469 Z M 440.257812 153.125 C 434.242188 153.125 427.980469 153.929688 421.644531 155.519531 C 403.480469 160.089844 389.113281 170.484375 378.9375 186.417969 C 371 198.839844 367.164062 212.414062 367.847656 225.675781 C 367.863281 226.960938 367.859375 228.171875 367.859375 229.339844 C 367.851562 232.835938 367.84375 235.855469 368.300781 238.878906 C 370.191406 251.386719 374.25 263.898438 380.707031 277.132812 C 390.246094 296.691406 403.316406 315.992188 421.835938 337.867188 C 435.226562 353.699219 450.3125 369.398438 467.953125 385.863281 C 481.953125 398.929688 496.28125 411.277344 510.539062 422.558594 C 511.035156 422.953125 511.359375 423.113281 511.664062 423.113281 C 511.957031 423.113281 512.277344 422.953125 512.703125 422.597656 C 514.878906 420.777344 517.125 418.976562 519.296875 417.230469 C 521.257812 415.65625 523.28125 414.035156 525.242188 412.402344 C 551.597656 390.527344 574.421875 368.617188 595.023438 345.425781 C 608.75 329.976562 620.007812 315.347656 629.441406 300.695312 C 638.902344 286 645.703125 272.429688 650.230469 259.214844 C 655.824219 242.917969 657.347656 228 654.898438 213.597656 C 652.375 198.761719 646.046875 185.972656 636.089844 175.574219 C 623.414062 162.347656 607.707031 154.898438 589.398438 153.425781 C 573.34375 152.128906 558.324219 156.171875 544.832031 165.421875 C 531.035156 174.875 520.667969 188.550781 513.125 207.234375 C 513.023438 207.488281 512.941406 207.757812 512.855469 208.023438 C 512.652344 208.683594 512.445312 209.359375 511.933594 209.933594 L 511.613281 210.289062 L 511.105469 209.128906 C 510.824219 208.484375 510.539062 207.839844 510.273438 207.1875 C 503.769531 191.234375 495.871094 179.636719 485.421875 170.699219 C 471.785156 159.035156 456.589844 153.125 440.257812 153.125 Z M 440.257812 153.125 " fill-opacity="1" fill-rule="nonzero"/></g></g><g clip-path="url(#14bc5e1202)"><g clip-path="url(#2da177a0bf)"><path fill="#737373" d="M 511.644531 408.679688 C 511.144531 408.679688 510.707031 408.382812 510.308594 408.066406 C 497.632812 398.027344 484.894531 387.042969 472.449219 375.414062 C 456.769531 360.757812 443.355469 346.785156 431.449219 332.695312 C 414.96875 313.210938 403.339844 296.015625 394.847656 278.585938 C 389.085938 266.769531 385.464844 255.589844 383.78125 244.414062 C 383.367188 241.683594 383.371094 238.980469 383.378906 235.851562 C 383.382812 234.816406 383.386719 233.742188 383.371094 232.613281 C 382.761719 220.71875 386.195312 208.535156 393.304688 197.398438 C 402.417969 183.109375 415.292969 173.789062 431.5625 169.695312 C 437.234375 168.269531 442.839844 167.542969 448.226562 167.542969 C 462.867188 167.542969 476.480469 172.847656 488.691406 183.304688 C 497.914062 191.199219 505.183594 201.882812 510.917969 215.953125 C 511.152344 216.527344 511.398438 217.097656 511.648438 217.667969 L 511.742188 217.871094 C 511.941406 217.53125 512.058594 217.144531 512.183594 216.742188 C 512.261719 216.488281 512.339844 216.238281 512.4375 215.996094 C 519.175781 199.28125 528.449219 187.042969 540.796875 178.574219 C 552.878906 170.28125 566.339844 166.660156 580.726562 167.816406 C 597.125 169.136719 611.191406 175.816406 622.546875 187.675781 C 631.46875 197 637.136719 208.46875 639.390625 221.769531 C 641.585938 234.664062 640.222656 248.019531 635.226562 262.59375 C 631.191406 274.382812 625.132812 286.484375 616.707031 299.589844 C 608.3125 312.640625 598.296875 325.667969 586.085938 339.421875 C 567.773438 360.0625 547.480469 379.558594 524.054688 399.03125 C 522.304688 400.480469 520.507812 401.925781 518.765625 403.328125 C 516.839844 404.875 514.847656 406.476562 512.917969 408.09375 C 512.433594 408.5 512.042969 408.679688 511.644531 408.679688 Z M 448.226562 168.09375 C 442.886719 168.09375 437.324219 168.808594 431.695312 170.222656 C 415.5625 174.285156 402.800781 183.527344 393.765625 197.695312 C 386.71875 208.734375 383.3125 220.804688 383.917969 232.597656 C 383.929688 233.738281 383.929688 234.816406 383.925781 235.855469 C 383.917969 238.960938 383.914062 241.644531 384.320312 244.332031 C 386 255.453125 389.601562 266.582031 395.339844 278.34375 C 403.8125 295.734375 415.417969 312.890625 431.863281 332.34375 C 443.761719 346.417969 457.160156 360.375 472.824219 375.015625 C 485.257812 386.632812 497.984375 397.609375 510.648438 407.640625 C 511.085938 407.988281 511.375 408.132812 511.644531 408.132812 C 511.90625 408.132812 512.191406 407.992188 512.570312 407.675781 C 514.5 406.054688 516.496094 404.453125 518.425781 402.902344 C 520.164062 401.503906 521.960938 400.058594 523.703125 398.609375 C 547.109375 379.160156 567.382812 359.679688 585.679688 339.0625 C 597.871094 325.328125 607.871094 312.320312 616.25 299.292969 C 624.648438 286.230469 630.6875 274.164062 634.710938 262.414062 C 639.679688 247.929688 641.03125 234.664062 638.855469 221.859375 C 636.613281 208.667969 630.996094 197.296875 622.152344 188.054688 C 610.894531 176.296875 596.945312 169.667969 580.6875 168.363281 C 566.421875 167.210938 553.085938 170.804688 541.101562 179.027344 C 528.851562 187.429688 519.640625 199.589844 512.945312 216.199219 C 512.851562 216.425781 512.78125 216.664062 512.707031 216.902344 C 512.527344 217.488281 512.339844 218.09375 511.882812 218.597656 L 511.601562 218.917969 L 511.152344 217.886719 C 510.898438 217.3125 510.648438 216.738281 510.414062 216.15625 C 504.632812 201.972656 497.621094 191.664062 488.339844 183.71875 C 476.226562 173.347656 462.730469 168.09375 448.226562 168.09375 Z M 448.226562 168.09375 " fill-opacity="1" fill-rule="nonzero"/></g></g><g clip-path="url(#cd6367efe2)"><g clip-path="url(#1ca51fb109)"><path fill="#737373" d="M 511.839844 395.582031 C 511.394531 395.582031 511.003906 395.320312 510.648438 395.035156 C 499.335938 386.085938 487.96875 376.289062 476.863281 365.921875 C 462.867188 352.855469 450.898438 340.394531 440.265625 327.832031 C 425.5625 310.457031 415.183594 295.128906 407.601562 279.589844 C 402.460938 269.050781 399.230469 259.085938 397.726562 249.121094 C 397.359375 246.6875 397.363281 244.277344 397.371094 241.484375 C 397.371094 240.5625 397.371094 239.601562 397.363281 238.59375 C 396.816406 227.992188 399.882812 217.132812 406.226562 207.199219 C 414.359375 194.460938 425.847656 186.148438 440.371094 182.496094 C 445.433594 181.226562 450.4375 180.582031 455.242188 180.582031 C 468.308594 180.582031 480.457031 185.308594 491.359375 194.632812 C 499.585938 201.671875 506.078125 211.195312 511.191406 223.742188 C 511.402344 224.253906 511.621094 224.761719 511.847656 225.269531 L 511.925781 225.453125 C 512.105469 225.148438 512.210938 224.804688 512.324219 224.445312 C 512.390625 224.21875 512.460938 223.996094 512.546875 223.777344 C 518.5625 208.878906 526.839844 197.964844 537.855469 190.417969 C 548.640625 183.019531 560.65625 179.789062 573.496094 180.824219 C 588.128906 182 600.683594 187.957031 610.820312 198.53125 C 618.777344 206.84375 623.839844 217.070312 625.851562 228.925781 C 627.8125 240.425781 626.59375 252.332031 622.136719 265.328125 C 618.53125 275.839844 613.128906 286.632812 605.609375 298.316406 C 598.117188 309.949219 589.175781 321.566406 578.28125 333.832031 C 561.933594 352.234375 543.824219 369.621094 522.914062 386.980469 C 521.359375 388.273438 519.75 389.5625 518.199219 390.8125 C 516.480469 392.191406 514.699219 393.621094 512.976562 395.0625 C 512.546875 395.421875 512.195312 395.582031 511.839844 395.582031 Z M 455.242188 181.066406 C 450.476562 181.066406 445.511719 181.710938 440.488281 182.96875 C 426.09375 186.589844 414.703125 194.832031 406.640625 207.460938 C 400.347656 217.308594 397.308594 228.070312 397.847656 238.582031 C 397.859375 239.601562 397.859375 240.5625 397.855469 241.488281 C 397.851562 244.257812 397.847656 246.652344 398.207031 249.046875 C 399.707031 258.960938 402.921875 268.882812 408.039062 279.375 C 415.605469 294.878906 425.960938 310.175781 440.640625 327.519531 C 451.257812 340.066406 463.214844 352.511719 477.195312 365.566406 C 488.292969 375.925781 499.652344 385.710938 510.953125 394.65625 C 511.34375 394.96875 511.601562 395.097656 511.839844 395.097656 C 512.074219 395.097656 512.328125 394.96875 512.667969 394.6875 C 514.390625 393.242188 516.171875 391.8125 517.894531 390.429688 C 519.445312 389.183594 521.050781 387.894531 522.605469 386.605469 C 543.492188 369.261719 561.585938 351.894531 577.914062 333.507812 C 588.796875 321.265625 597.71875 309.664062 605.199219 298.050781 C 612.695312 286.402344 618.085938 275.644531 621.675781 265.167969 C 626.109375 252.253906 627.316406 240.425781 625.371094 229.007812 C 623.375 217.25 618.359375 207.109375 610.464844 198.867188 C 600.417969 188.382812 587.96875 182.476562 573.457031 181.308594 C 560.730469 180.28125 548.824219 183.484375 538.132812 190.820312 C 527.199219 198.3125 518.980469 209.152344 513.003906 223.960938 C 512.917969 224.164062 512.855469 224.378906 512.789062 224.589844 C 512.628906 225.109375 512.460938 225.652344 512.054688 226.101562 L 511.800781 226.386719 L 511.402344 225.464844 C 511.175781 224.953125 510.953125 224.441406 510.742188 223.925781 C 505.585938 211.277344 499.324219 202.085938 491.039062 195 C 480.234375 185.753906 468.1875 181.066406 455.242188 181.066406 Z M 455.242188 181.066406 " fill-opacity="1" fill-rule="nonzero"/></g></g><g clip-path="url(#7352551664)"><g clip-path="url(#b8f1e45b36)"><path fill="#737373" d="M 511.914062 381.945312 C 511.523438 381.945312 511.183594 381.714844 510.867188 381.46875 C 500.960938 373.636719 491 365.070312 481.269531 356 C 469.011719 344.570312 458.523438 333.671875 449.210938 322.679688 C 436.328125 307.480469 427.234375 294.070312 420.59375 280.476562 C 416.089844 271.257812 413.257812 262.539062 411.941406 253.824219 C 411.621094 251.695312 411.625 249.585938 411.628906 247.144531 C 411.628906 246.339844 411.632812 245.5 411.621094 244.617188 C 411.144531 235.34375 413.828125 225.839844 419.390625 217.152344 C 426.515625 206.011719 436.578125 198.738281 449.300781 195.542969 C 453.738281 194.433594 458.121094 193.871094 462.332031 193.871094 C 473.777344 193.871094 484.421875 198.003906 493.96875 206.160156 C 501.179688 212.320312 506.863281 220.648438 511.347656 231.625 C 511.53125 232.074219 511.722656 232.515625 511.917969 232.960938 L 511.988281 233.121094 C 512.148438 232.855469 512.238281 232.554688 512.335938 232.238281 C 512.398438 232.042969 512.460938 231.847656 512.535156 231.65625 C 517.804688 218.621094 525.054688 209.078125 534.707031 202.472656 C 544.15625 196.003906 554.679688 193.175781 565.929688 194.082031 C 578.75 195.109375 589.746094 200.320312 598.625 209.570312 C 605.601562 216.839844 610.03125 225.789062 611.796875 236.160156 C 613.511719 246.21875 612.449219 256.632812 608.539062 268 C 605.382812 277.199219 600.648438 286.640625 594.0625 296.859375 C 587.5 307.035156 579.667969 317.199219 570.121094 327.929688 C 555.800781 344.027344 539.933594 359.234375 521.617188 374.421875 C 520.253906 375.550781 518.84375 376.679688 517.484375 377.769531 C 515.976562 378.976562 514.421875 380.226562 512.910156 381.488281 C 512.53125 381.804688 512.226562 381.945312 511.914062 381.945312 Z M 462.332031 194.296875 C 458.15625 194.296875 453.808594 194.855469 449.402344 195.957031 C 436.792969 199.125 426.8125 206.332031 419.75 217.382812 C 414.238281 225.996094 411.574219 235.410156 412.046875 244.605469 C 412.058594 245.496094 412.054688 246.339844 412.054688 247.144531 C 412.050781 249.570312 412.046875 251.664062 412.363281 253.761719 C 413.675781 262.433594 416.496094 271.113281 420.976562 280.289062 C 427.601562 293.851562 436.679688 307.234375 449.535156 322.40625 C 458.839844 333.382812 469.3125 344.269531 481.5625 355.6875 C 491.285156 364.75 501.234375 373.308594 511.132812 381.132812 C 511.480469 381.40625 511.707031 381.519531 511.914062 381.519531 C 512.117188 381.519531 512.339844 381.410156 512.636719 381.160156 C 514.148438 379.898438 515.707031 378.648438 517.214844 377.441406 C 518.578125 376.347656 519.984375 375.222656 521.34375 374.089844 C 539.644531 358.921875 555.496094 343.726562 569.800781 327.644531 C 579.332031 316.933594 587.152344 306.789062 593.703125 296.628906 C 600.273438 286.4375 604.992188 277.027344 608.140625 267.863281 C 612.019531 256.5625 613.078125 246.214844 611.378906 236.230469 C 609.625 225.945312 605.234375 217.074219 598.316406 209.863281 C 589.515625 200.691406 578.609375 195.527344 565.894531 194.503906 C 554.746094 193.605469 544.316406 196.410156 534.949219 202.824219 C 525.371094 209.378906 518.167969 218.863281 512.929688 231.816406 C 512.859375 231.992188 512.804688 232.179688 512.746094 232.363281 C 512.605469 232.820312 512.457031 233.292969 512.101562 233.691406 L 511.878906 233.9375 L 511.53125 233.132812 C 511.332031 232.683594 511.132812 232.238281 510.953125 231.785156 C 506.433594 220.722656 500.949219 212.679688 493.691406 206.484375 C 484.222656 198.394531 473.671875 194.296875 462.332031 194.296875 Z M 462.332031 194.296875 " fill-opacity="1" fill-rule="nonzero"/></g></g><g clip-path="url(#779e698459)"><g clip-path="url(#fde1f9d4fb)"><path fill="#737373" d="M 511.882812 371.394531 C 511.535156 371.394531 511.230469 371.191406 510.953125 370.96875 C 502.15625 364.015625 493.3125 356.402344 484.671875 348.34375 C 473.78125 338.1875 464.46875 328.503906 456.199219 318.742188 C 444.761719 305.242188 436.683594 293.328125 430.789062 281.25 C 426.789062 273.0625 424.277344 265.316406 423.105469 257.574219 C 422.820312 255.679688 422.824219 253.804688 422.828125 251.636719 C 422.828125 250.921875 422.832031 250.175781 422.820312 249.394531 C 422.394531 241.152344 424.78125 232.710938 429.71875 224.992188 C 436.046875 215.09375 444.984375 208.632812 456.28125 205.796875 C 460.21875 204.808594 464.113281 204.304688 467.851562 204.304688 C 478.015625 204.304688 487.46875 207.980469 495.945312 215.226562 C 502.347656 220.695312 507.398438 228.097656 511.378906 237.851562 C 511.539062 238.25 511.714844 238.644531 511.886719 239.035156 L 511.949219 239.179688 C 512.089844 238.945312 512.171875 238.675781 512.257812 238.398438 C 512.3125 238.21875 512.367188 238.046875 512.433594 237.878906 C 517.113281 226.296875 523.554688 217.820312 532.121094 211.949219 C 540.511719 206.203125 549.859375 203.691406 559.847656 204.496094 C 571.230469 205.410156 581 210.039062 588.882812 218.257812 C 595.078125 224.714844 599.011719 232.664062 600.582031 241.878906 C 602.105469 250.8125 601.15625 260.066406 597.691406 270.167969 C 594.886719 278.335938 590.679688 286.722656 584.828125 295.804688 C 579.003906 304.847656 572.046875 313.875 563.570312 323.40625 C 550.851562 337.707031 536.765625 351.214844 520.5 364.707031 C 519.285156 365.710938 518.035156 366.714844 516.828125 367.683594 C 515.492188 368.757812 514.109375 369.867188 512.769531 370.988281 C 512.429688 371.269531 512.160156 371.394531 511.882812 371.394531 Z M 467.851562 204.683594 C 464.140625 204.683594 460.28125 205.183594 456.371094 206.164062 C 445.171875 208.976562 436.3125 215.382812 430.039062 225.195312 C 425.144531 232.847656 422.777344 241.210938 423.199219 249.382812 C 423.210938 250.171875 423.207031 250.921875 423.207031 251.640625 C 423.203125 253.792969 423.199219 255.652344 423.480469 257.515625 C 424.644531 265.21875 427.148438 272.929688 431.128906 281.082031 C 437.011719 293.132812 445.070312 305.019531 456.492188 318.5 C 464.75 328.25 474.054688 337.921875 484.929688 348.066406 C 493.5625 356.117188 502.398438 363.722656 511.191406 370.671875 C 511.496094 370.917969 511.695312 371.015625 511.882812 371.015625 C 512.0625 371.015625 512.261719 370.917969 512.523438 370.695312 C 513.867188 369.574219 515.25 368.464844 516.589844 367.390625 C 517.796875 366.421875 519.046875 365.421875 520.257812 364.417969 C 536.507812 350.9375 550.582031 337.441406 563.285156 323.15625 C 571.753906 313.636719 578.695312 304.625 584.511719 295.601562 C 590.34375 286.546875 594.539062 278.1875 597.332031 270.042969 C 600.777344 260.007812 601.71875 250.8125 600.207031 241.941406 C 598.652344 232.804688 594.75 224.921875 588.609375 218.519531 C 580.792969 210.371094 571.109375 205.777344 559.820312 204.875 C 549.917969 204.074219 540.65625 206.566406 532.335938 212.261719 C 523.832031 218.085938 517.4375 226.511719 512.785156 238.019531 C 512.722656 238.175781 512.671875 238.34375 512.621094 238.507812 C 512.496094 238.914062 512.363281 239.332031 512.050781 239.683594 L 511.851562 239.902344 L 511.539062 239.191406 C 511.367188 238.792969 511.191406 238.394531 511.027344 237.992188 C 507.015625 228.164062 502.144531 221.019531 495.699219 215.515625 C 487.292969 208.328125 477.925781 204.683594 467.851562 204.683594 Z M 467.851562 204.683594 " fill-opacity="1" fill-rule="nonzero"/></g></g><g clip-path="url(#286474e79d)"><g clip-path="url(#92bfe5eae3)"><path fill="#737373" d="M 511.933594 362.625 C 511.625 362.625 511.355469 362.441406 511.105469 362.246094 C 503.261719 356.03125 495.378906 349.230469 487.671875 342.03125 C 477.964844 332.960938 469.664062 324.308594 462.289062 315.585938 C 452.089844 303.523438 444.890625 292.878906 439.632812 282.089844 C 436.066406 274.773438 433.824219 267.855469 432.78125 260.9375 C 432.527344 259.25 432.527344 257.574219 432.53125 255.636719 C 432.535156 254.996094 432.535156 254.328125 432.527344 253.632812 C 432.148438 246.269531 434.277344 238.726562 438.675781 231.832031 C 444.320312 222.988281 452.289062 217.21875 462.363281 214.683594 C 465.875 213.800781 469.34375 213.351562 472.679688 213.351562 C 481.742188 213.351562 490.167969 216.632812 497.726562 223.109375 C 503.4375 227.996094 507.9375 234.605469 511.484375 243.320312 C 511.628906 243.675781 511.785156 244.027344 511.941406 244.378906 L 511.996094 244.507812 C 512.117188 244.296875 512.191406 244.054688 512.269531 243.808594 C 512.316406 243.652344 512.367188 243.496094 512.425781 243.34375 C 516.597656 233 522.339844 225.421875 529.980469 220.179688 C 537.460938 215.046875 545.792969 212.804688 554.699219 213.523438 C 564.851562 214.335938 573.558594 218.472656 580.589844 225.816406 C 586.113281 231.585938 589.621094 238.6875 591.015625 246.917969 C 592.375 254.902344 591.53125 263.167969 588.4375 272.191406 C 585.941406 279.492188 582.191406 286.984375 576.976562 295.09375 C 571.777344 303.171875 565.578125 311.238281 558.019531 319.753906 C 546.679688 332.527344 534.121094 344.601562 519.617188 356.652344 C 518.535156 357.550781 517.421875 358.445312 516.34375 359.3125 C 515.152344 360.269531 513.917969 361.261719 512.722656 362.261719 C 512.425781 362.511719 512.179688 362.625 511.933594 362.625 Z M 472.679688 213.691406 C 469.371094 213.691406 465.925781 214.132812 462.445312 215.011719 C 452.457031 217.523438 444.554688 223.246094 438.964844 232.015625 C 434.601562 238.851562 432.492188 246.320312 432.867188 253.621094 C 432.875 254.328125 432.871094 254.996094 432.871094 255.636719 C 432.867188 257.5625 432.863281 259.222656 433.117188 260.886719 C 434.15625 267.773438 436.386719 274.660156 439.9375 281.941406 C 445.183594 292.707031 452.367188 303.328125 462.546875 315.367188 C 469.910156 324.082031 478.207031 332.722656 487.902344 341.785156 C 495.601562 348.976562 503.480469 355.773438 511.320312 361.980469 C 511.589844 362.199219 511.769531 362.289062 511.9375 362.289062 C 512.097656 362.289062 512.273438 362.199219 512.507812 362 C 513.703125 361 514.9375 360.007812 516.132812 359.046875 C 517.210938 358.183594 518.320312 357.289062 519.402344 356.390625 C 533.890625 344.351562 546.441406 332.292969 557.765625 319.527344 C 565.3125 311.027344 571.503906 302.972656 576.691406 294.910156 C 581.890625 286.820312 585.628906 279.355469 588.121094 272.082031 C 591.191406 263.113281 592.03125 254.902344 590.683594 246.972656 C 589.296875 238.8125 585.820312 231.769531 580.34375 226.046875 C 573.375 218.769531 564.738281 214.667969 554.675781 213.859375 C 545.847656 213.144531 537.589844 215.367188 530.171875 220.460938 C 522.589844 225.664062 516.886719 233.191406 512.742188 243.46875 C 512.683594 243.613281 512.636719 243.761719 512.59375 243.90625 C 512.480469 244.269531 512.363281 244.644531 512.085938 244.957031 L 511.910156 245.152344 L 511.628906 244.515625 C 511.472656 244.160156 511.320312 243.804688 511.171875 243.445312 C 507.59375 234.664062 503.253906 228.285156 497.507812 223.363281 C 490.011719 216.945312 481.65625 213.691406 472.679688 213.691406 Z M 472.679688 213.691406 " fill-opacity="1" fill-rule="nonzero"/></g></g><g clip-path="url(#564af8f63b)"><g clip-path="url(#caf41fcfaa)"><path fill="#737373" d="M 512.050781 351.390625 C 511.785156 351.390625 511.554688 351.234375 511.34375 351.066406 C 504.648438 345.777344 497.917969 339.988281 491.339844 333.855469 C 483.054688 326.132812 475.96875 318.765625 469.671875 311.339844 C 460.96875 301.070312 454.820312 292.007812 450.332031 282.820312 C 447.289062 276.589844 445.375 270.699219 444.484375 264.808594 C 444.269531 263.371094 444.269531 261.945312 444.273438 260.296875 C 444.273438 259.75 444.277344 259.183594 444.269531 258.589844 C 443.945312 252.320312 445.761719 245.898438 449.519531 240.027344 C 454.335938 232.5 461.136719 227.585938 469.734375 225.425781 C 472.730469 224.675781 475.695312 224.292969 478.542969 224.292969 C 486.277344 224.292969 493.46875 227.085938 499.921875 232.597656 C 504.796875 236.761719 508.640625 242.390625 511.667969 249.808594 C 511.789062 250.113281 511.921875 250.410156 512.054688 250.710938 L 512.101562 250.820312 C 512.207031 250.640625 512.269531 250.4375 512.335938 250.222656 C 512.375 250.089844 512.417969 249.957031 512.46875 249.828125 C 516.03125 241.023438 520.933594 234.570312 527.453125 230.105469 C 533.839844 225.734375 540.953125 223.824219 548.554688 224.4375 C 557.222656 225.132812 564.652344 228.652344 570.65625 234.90625 C 575.367188 239.820312 578.363281 245.863281 579.554688 252.871094 C 580.714844 259.671875 579.992188 266.710938 577.355469 274.390625 C 575.222656 280.605469 572.019531 286.984375 567.570312 293.890625 C 563.132812 300.769531 557.839844 307.636719 551.386719 314.886719 C 541.710938 325.765625 530.988281 336.042969 518.609375 346.304688 C 517.6875 347.070312 516.734375 347.832031 515.8125 348.570312 C 514.796875 349.386719 513.742188 350.230469 512.722656 351.082031 C 512.46875 351.296875 512.261719 351.390625 512.050781 351.390625 Z M 478.542969 224.582031 C 475.71875 224.582031 472.78125 224.960938 469.804688 225.707031 C 461.28125 227.84375 454.539062 232.71875 449.761719 240.183594 C 446.035156 246.003906 444.238281 252.367188 444.558594 258.582031 C 444.566406 259.183594 444.566406 259.75 444.5625 260.296875 C 444.558594 261.9375 444.554688 263.351562 444.773438 264.765625 C 445.65625 270.628906 447.5625 276.492188 450.59375 282.695312 C 455.070312 291.859375 461.203125 300.902344 469.894531 311.152344 C 476.179688 318.570312 483.261719 325.929688 491.539062 333.644531 C 498.109375 339.769531 504.832031 345.554688 511.523438 350.839844 C 511.757812 351.027344 511.910156 351.101562 512.050781 351.101562 C 512.1875 351.101562 512.339844 351.027344 512.539062 350.859375 C 513.5625 350.007812 514.617188 349.164062 515.632812 348.34375 C 516.554688 347.605469 517.503906 346.847656 518.421875 346.082031 C 530.792969 335.832031 541.503906 325.5625 551.171875 314.695312 C 557.613281 307.457031 562.898438 300.601562 567.328125 293.734375 C 571.765625 286.847656 574.957031 280.492188 577.082031 274.296875 C 579.707031 266.660156 580.421875 259.667969 579.269531 252.921875 C 578.089844 245.96875 575.121094 239.976562 570.445312 235.105469 C 564.496094 228.90625 557.125 225.414062 548.535156 224.726562 C 540.996094 224.117188 533.949219 226.011719 527.617188 230.34375 C 521.144531 234.773438 516.277344 241.183594 512.738281 249.9375 C 512.6875 250.058594 512.652344 250.183594 512.613281 250.308594 C 512.515625 250.617188 512.417969 250.9375 512.179688 251.203125 L 512.027344 251.371094 L 511.789062 250.828125 C 511.65625 250.527344 511.523438 250.222656 511.402344 249.917969 C 508.347656 242.441406 504.640625 237.007812 499.734375 232.816406 C 493.335938 227.351562 486.207031 224.582031 478.542969 224.582031 Z M 478.542969 224.582031 " fill-opacity="1" fill-rule="nonzero"/></g></g><g clip-path="url(#a8f3b8dad4)"><g clip-path="url(#f29f3ae46b)"><path fill="#737373" d="M 511.929688 344.1875 C 511.699219 344.1875 511.492188 344.050781 511.304688 343.898438 C 505.367188 339.203125 499.402344 334.0625 493.570312 328.621094 C 486.222656 321.761719 479.9375 315.222656 474.359375 308.628906 C 466.640625 299.507812 461.191406 291.464844 457.210938 283.308594 C 454.511719 277.777344 452.816406 272.546875 452.027344 267.316406 C 451.832031 266.039062 451.835938 264.773438 451.839844 263.308594 C 451.839844 262.824219 451.839844 262.320312 451.835938 261.792969 C 451.550781 256.226562 453.160156 250.527344 456.488281 245.3125 C 460.757812 238.628906 466.789062 234.265625 474.414062 232.351562 C 477.070312 231.683594 479.699219 231.34375 482.222656 231.34375 C 489.078125 231.34375 495.457031 233.824219 501.179688 238.71875 C 505.5 242.414062 508.90625 247.410156 511.589844 253.996094 C 511.703125 254.265625 511.816406 254.53125 511.9375 254.800781 L 511.976562 254.894531 C 512.070312 254.734375 512.125 254.554688 512.1875 254.363281 C 512.222656 254.246094 512.257812 254.128906 512.304688 254.015625 C 515.460938 246.195312 519.808594 240.46875 525.589844 236.507812 C 531.25 232.625 537.558594 230.925781 544.296875 231.472656 C 551.980469 232.089844 558.570312 235.214844 563.890625 240.765625 C 568.070312 245.125 570.726562 250.496094 571.78125 256.71875 C 572.8125 262.75 572.171875 269 569.832031 275.824219 C 567.941406 281.34375 565.101562 287.003906 561.15625 293.136719 C 557.222656 299.242188 552.53125 305.339844 546.808594 311.777344 C 538.230469 321.4375 528.722656 330.558594 517.746094 339.671875 C 516.929688 340.351562 516.085938 341.027344 515.269531 341.683594 C 514.367188 342.40625 513.433594 343.15625 512.53125 343.914062 C 512.300781 344.101562 512.117188 344.1875 511.929688 344.1875 Z M 482.222656 231.601562 C 479.71875 231.601562 477.113281 231.9375 474.476562 232.597656 C 466.917969 234.496094 460.9375 238.824219 456.707031 245.453125 C 453.402344 250.617188 451.808594 256.269531 452.089844 261.785156 C 452.097656 262.320312 452.097656 262.824219 452.097656 263.308594 C 452.09375 264.765625 452.089844 266.019531 452.28125 267.277344 C 453.066406 272.484375 454.753906 277.6875 457.441406 283.195312 C 461.410156 291.332031 466.847656 299.363281 474.554688 308.464844 C 480.128906 315.050781 486.40625 321.582031 493.746094 328.433594 C 499.570312 333.867188 505.53125 339.007812 511.464844 343.699219 C 511.671875 343.863281 511.808594 343.929688 511.929688 343.929688 C 512.054688 343.929688 512.1875 343.863281 512.367188 343.714844 C 513.269531 342.957031 514.207031 342.207031 515.109375 341.484375 C 515.925781 340.828125 516.765625 340.152344 517.582031 339.476562 C 528.546875 330.371094 538.046875 321.257812 546.617188 311.609375 C 552.328125 305.179688 557.015625 299.09375 560.941406 293 C 564.875 286.882812 567.707031 281.238281 569.589844 275.742188 C 571.917969 268.960938 572.550781 262.75 571.53125 256.761719 C 570.484375 250.585938 567.851562 245.265625 563.707031 240.941406 C 558.433594 235.4375 551.898438 232.335938 544.277344 231.726562 C 537.597656 231.1875 531.347656 232.867188 525.734375 236.71875 C 519.996094 240.648438 515.679688 246.339844 512.542969 254.113281 C 512.5 254.21875 512.464844 254.328125 512.429688 254.441406 C 512.34375 254.714844 512.257812 255 512.046875 255.234375 L 511.910156 255.382812 L 511.703125 254.902344 C 511.582031 254.632812 511.464844 254.363281 511.355469 254.09375 C 508.648438 247.453125 505.363281 242.632812 501.015625 238.914062 C 495.339844 234.058594 489.015625 231.601562 482.222656 231.601562 Z M 482.222656 231.601562 " fill-opacity="1" fill-rule="nonzero"/></g></g><g clip-path="url(#f52f0d61d7)"><g clip-path="url(#129e42a0b6)"><path fill="#737373" d="M 511.988281 338.027344 C 511.78125 338.027344 511.597656 337.902344 511.429688 337.769531 C 506.136719 333.582031 500.8125 329.003906 495.613281 324.152344 C 489.0625 318.039062 483.457031 312.210938 478.480469 306.335938 C 471.597656 298.207031 466.738281 291.035156 463.1875 283.765625 C 460.78125 278.835938 459.269531 274.175781 458.566406 269.511719 C 458.390625 268.375 458.394531 267.246094 458.398438 265.941406 C 458.398438 265.511719 458.398438 265.0625 458.394531 264.589844 C 458.140625 259.628906 459.574219 254.550781 462.542969 249.90625 C 466.351562 243.945312 471.730469 240.058594 478.527344 238.347656 C 480.898438 237.753906 483.242188 237.453125 485.492188 237.453125 C 491.609375 237.453125 497.296875 239.664062 502.398438 244.023438 C 506.25 247.316406 509.289062 251.773438 511.683594 257.644531 C 511.78125 257.882812 511.886719 258.121094 511.992188 258.359375 L 512.027344 258.441406 C 512.113281 258.300781 512.160156 258.140625 512.214844 257.96875 C 512.246094 257.867188 512.28125 257.761719 512.320312 257.660156 C 515.136719 250.6875 519.011719 245.585938 524.167969 242.054688 C 529.21875 238.59375 534.839844 237.082031 540.851562 237.566406 C 547.703125 238.113281 553.582031 240.902344 558.324219 245.851562 C 562.050781 249.738281 564.421875 254.519531 565.363281 260.066406 C 566.28125 265.445312 565.710938 271.015625 563.625 277.09375 C 561.9375 282.011719 559.40625 287.0625 555.886719 292.527344 C 552.378906 297.96875 548.195312 303.40625 543.089844 309.140625 C 535.441406 317.75 526.960938 325.882812 517.171875 334 C 516.445312 334.605469 515.691406 335.210938 514.964844 335.792969 C 514.160156 336.4375 513.328125 337.109375 512.523438 337.78125 C 512.320312 337.949219 512.15625 338.027344 511.988281 338.027344 Z M 485.492188 237.679688 C 483.261719 237.679688 480.9375 237.980469 478.585938 238.570312 C 471.84375 240.261719 466.511719 244.117188 462.734375 250.027344 C 459.792969 254.632812 458.367188 259.667969 458.621094 264.585938 C 458.628906 265.0625 458.625 265.511719 458.625 265.941406 C 458.625 267.238281 458.621094 268.359375 458.792969 269.480469 C 459.492188 274.117188 460.996094 278.757812 463.394531 283.664062 C 466.933594 290.917969 471.785156 298.074219 478.65625 306.1875 C 483.625 312.058594 489.222656 317.878906 495.769531 323.984375 C 500.964844 328.832031 506.28125 333.410156 511.570312 337.59375 C 511.753906 337.738281 511.875 337.796875 511.988281 337.796875 C 512.097656 337.796875 512.21875 337.738281 512.375 337.605469 C 513.183594 336.933594 514.015625 336.261719 514.824219 335.617188 C 515.550781 335.03125 516.300781 334.429688 517.027344 333.824219 C 526.804688 325.714844 535.277344 317.589844 542.921875 308.988281 C 548.015625 303.261719 552.191406 297.835938 555.695312 292.40625 C 559.203125 286.953125 561.726562 281.921875 563.410156 277.019531 C 565.484375 270.980469 566.050781 265.445312 565.140625 260.105469 C 564.203125 254.605469 561.855469 249.859375 558.160156 246.007812 C 553.457031 241.101562 547.628906 238.339844 540.835938 237.792969 C 534.875 237.3125 529.304688 238.8125 524.296875 242.238281 C 519.175781 245.746094 515.328125 250.816406 512.53125 257.746094 C 512.492188 257.839844 512.464844 257.9375 512.433594 258.039062 C 512.355469 258.28125 512.28125 258.535156 512.089844 258.746094 L 511.972656 258.878906 L 511.78125 258.449219 C 511.675781 258.210938 511.570312 257.96875 511.472656 257.726562 C 509.058594 251.8125 506.128906 247.511719 502.25 244.195312 C 497.191406 239.875 491.550781 237.679688 485.492188 237.679688 Z M 485.492188 237.679688 " fill-opacity="1" fill-rule="nonzero"/></g></g><g fill="#f4b7c5" fill-opacity="1"><g transform="translate(425.601207, 298.506075)"><g><path d="M 7.890625 -21.257812 C 13.59375 -21.257812 13.683594 -26.074219 17.558594 -26.386719 C 20.949219 -26.609375 22.910156 -23.445312 20.546875 -20.679688 C 18.941406 -18.808594 15.777344 -17.871094 13.726562 -17.203125 C 8.601562 -15.554688 1.917969 -13.503906 1.78125 -7.042969 C 1.695312 -3.433594 4.144531 0 8.78125 0 C 11.722656 0 14.484375 -1.160156 17.027344 -2.808594 L 17.027344 0 L 23.085938 0 L 23.085938 -20.902344 C 23.085938 -25.359375 20.859375 -27.367188 16.667969 -27.367188 L 2.40625 -27.367188 L 2.40625 -21.257812 Z M 17.027344 -3.699219 C 13.414062 -1.425781 7.976562 -1.246094 7.800781 -6.773438 C 7.621094 -12.523438 12.390625 -15.289062 17.027344 -17.335938 Z M 17.027344 -3.699219 "/></g></g></g><g fill="#f4b7c5" fill-opacity="1"><g transform="translate(450.648831, 298.506075)"><g><path d="M 22.597656 -2.003906 L 22.597656 -27.367188 L 16.535156 -27.367188 L 16.535156 -4.636719 C 14.351562 -2.851562 11.589844 -1.382812 8.734375 -1.292969 C 2.09375 -1.070312 2.675781 -9.359375 4.859375 -13.59375 C 6.152344 -16.132812 7.398438 -18.453125 7.398438 -21.257812 L 7.398438 -27.367188 L 1.335938 -27.367188 L 1.335938 -8.113281 C 1.335938 -4.054688 2.585938 0 7.398438 0 C 10.695312 0 13.996094 -1.605469 16.535156 -3.609375 L 16.535156 -3.03125 C 16.535156 1.871094 15.375 5.257812 10.207031 5.257812 C 9.628906 5.257812 9.003906 5.214844 8.46875 5.171875 L 8.46875 5.882812 C 9.359375 6.015625 10.25 6.0625 11.097656 6.0625 C 16.222656 6.0625 22.597656 4.054688 22.597656 -2.003906 Z M 22.597656 -2.003906 "/></g></g></g><g fill="#f4b7c5" fill-opacity="1"><g transform="translate(475.161633, 298.506075)"><g><path d="M 2.003906 -33.425781 L 2.003906 0 L 8.066406 0 L 8.066406 -33.425781 Z M 2.003906 -33.425781 "/></g></g></g><g fill="#f4b7c5" fill-opacity="1"><g transform="translate(485.323303, 298.506075)"><g><path d="M 7.933594 0 L 7.933594 -27.367188 L 1.871094 -27.367188 L 1.871094 0 Z M 4.902344 -33.425781 C 3.433594 -33.425781 2.226562 -32.222656 2.226562 -30.753906 C 2.226562 -29.238281 3.433594 -28.035156 4.902344 -28.035156 C 6.417969 -28.035156 7.621094 -29.238281 7.621094 -30.753906 C 7.621094 -32.222656 6.417969 -33.425781 4.902344 -33.425781 Z M 4.902344 -33.425781 "/></g></g></g><g fill="#f4b7c5" fill-opacity="1"><g transform="translate(495.217562, 298.506075)"><g><path d="M 8.066406 0 L 8.066406 -22.6875 C 10.25 -24.511719 13.015625 -25.984375 15.867188 -26.074219 C 22.507812 -26.25 21.929688 -18.007812 19.746094 -13.726562 C 18.453125 -11.230469 17.203125 -8.914062 17.203125 -6.0625 L 17.203125 0 L 23.265625 0 L 23.265625 -19.253906 C 23.265625 -23.308594 22.015625 -27.367188 17.203125 -27.367188 C 13.90625 -27.367188 10.652344 -25.761719 8.066406 -23.753906 L 8.066406 -27.367188 L 2.003906 -27.367188 L 2.003906 0 Z M 8.066406 0 "/></g></g></g><g fill="#f4b7c5" fill-opacity="1"><g transform="translate(520.443458, 298.506075)"><g/></g></g><g fill="#f4b7c5" fill-opacity="1"><g transform="translate(533.680372, 298.506075)"><g><path d="M 11.097656 -33.425781 C 9.628906 -33.425781 8.421875 -32.222656 8.421875 -30.753906 C 8.421875 -29.238281 9.628906 -28.035156 11.097656 -28.035156 C 12.613281 -28.035156 13.816406 -29.238281 13.816406 -30.753906 C 13.816406 -32.222656 12.613281 -33.425781 11.097656 -33.425781 Z M 14.171875 -1.960938 L 14.171875 -27.367188 L 8.066406 -27.367188 C 8.066406 -19.210938 8.066406 -11.1875 8.066406 -3.03125 C 8.066406 1.871094 6.910156 5.257812 1.78125 5.257812 C 1.160156 5.257812 0.578125 5.214844 0 5.171875 L 0 5.882812 C 0.890625 6.015625 1.78125 6.0625 2.628906 6.0625 C 7.800781 6.0625 14.171875 4.054688 14.171875 -1.960938 Z M 14.171875 -1.960938 "/></g></g></g><g fill="#f4b7c5" fill-opacity="1"><g transform="translate(549.680537, 298.506075)"><g><path d="M 1.472656 -13.683594 C 1.472656 -19.566406 5.125 -27.367188 12.121094 -27.367188 C 17.960938 -27.367188 22.730469 -21.214844 22.730469 -13.683594 C 22.730469 -7.800781 19.074219 0 12.121094 0 C 6.238281 0 1.472656 -6.105469 1.472656 -13.683594 Z M 18.453125 -13.636719 L 12.792969 -22.285156 C 8.066406 -29.460938 0.890625 -21.171875 5.703125 -13.816406 L 11.453125 -5.082031 C 16.132812 2.09375 23.308594 -6.195312 18.453125 -13.636719 Z M 18.453125 -13.636719 "/></g></g></g><g fill="#f4b7c5" fill-opacity="1"><g transform="translate(573.881362, 298.506075)"><g><path d="M 22.597656 -2.003906 L 22.597656 -27.367188 L 16.535156 -27.367188 L 16.535156 -4.636719 C 14.351562 -2.851562 11.589844 -1.382812 8.734375 -1.292969 C 2.09375 -1.070312 2.675781 -9.359375 4.859375 -13.59375 C 6.152344 -16.132812 7.398438 -18.453125 7.398438 -21.257812 L 7.398438 -27.367188 L 1.335938 -27.367188 L 1.335938 -8.113281 C 1.335938 -4.054688 2.585938 0 7.398438 0 C 10.695312 0 13.996094 -1.605469 16.535156 -3.609375 L 16.535156 -3.03125 C 16.535156 1.871094 15.375 5.257812 10.207031 5.257812 C 9.628906 5.257812 9.003906 5.214844 8.46875 5.171875 L 8.46875 5.882812 C 9.359375 6.015625 10.25 6.0625 11.097656 6.0625 C 16.222656 6.0625 22.597656 4.054688 22.597656 -2.003906 Z M 22.597656 -2.003906 "/></g></g></g></svg>